<?xml version="1.0" encoding="utf-8"?>
<!-- Generator: Adobe Illustrator 26.5.0, SVG Export Plug-In . SVG Version: 6.00 Build 0)  -->
<svg version="1.1" id="WhatsApp_Logo" xmlns="http://www.w3.org/2000/svg" xmlns:xlink="http://www.w3.org/1999/xlink" x="0px"
	 y="0px" viewBox="0 0 80 80" style="enable-background:new 0 0 80 80;" xml:space="preserve">
<style type="text/css">
	.st0{fill-rule:evenodd;clip-rule:evenodd;fill:#001F60;}
	.st1{fill:#001F60;}
	.st2{fill:#FFFFFF;}
	.st3{fill:none;stroke:#000000;stroke-width:3;stroke-linecap:square;stroke-miterlimit:10;}
	.st4{fill:none;stroke:#000000;stroke-width:2;stroke-linecap:square;stroke-miterlimit:10;}
	.st5{fill:none;stroke:#000000;stroke-width:2;stroke-linecap:square;stroke-linejoin:round;stroke-miterlimit:10;}
</style>
<g>
	<path class="st1" d="M0.4,80h79.2V26.7H0.4V80z M60.8,33h10.7v8.1H60.8V33z M60.8,47.8h10.7v8.1H60.8V47.8z M60.8,62.5h10.7v8.1
		H60.8V62.5z M43.4,33h10.7v8.1H43.4V33z M43.4,47.8h10.7v8.1H43.4V47.8z M43.4,62.5h10.7v8.1H43.4V62.5z M25.9,33h10.7v8.1H25.9V33
		z M25.9,47.8h10.7v8.1H25.9V47.8z M25.9,62.5h10.7v8.1H25.9V62.5z M8.4,47.8h10.7v8.1H8.4V47.8z M8.4,62.5h10.7v8.1H8.4V62.5z"/>
	<polygon class="st1" points="65.6,8.8 65.6,0 61.4,0 61.4,8.8 20,8.8 20,0 15.7,0 15.7,8.8 0.4,8.8 0.4,22.5 79.6,22.5 79.6,8.8 	
		"/>
</g>
</svg>
