<?xml version="1.0" encoding="utf-8"?>
<!-- Generator: Adobe Illustrator 26.5.0, SVG Export Plug-In . SVG Version: 6.00 Build 0)  -->
<svg version="1.1" id="WhatsApp_Logo" xmlns="http://www.w3.org/2000/svg" xmlns:xlink="http://www.w3.org/1999/xlink" x="0px"
	 y="0px" viewBox="0 0 80 80" style="enable-background:new 0 0 80 80;" xml:space="preserve">
<style type="text/css">
	.st0{fill-rule:evenodd;clip-rule:evenodd;fill:#7F2346;}
	.st1{fill:#7F2346;}
	.st2{fill:#FFFFFF;}
	.st3{fill:none;stroke:#000000;stroke-width:3;stroke-linecap:square;stroke-miterlimit:10;}
	.st4{fill:none;stroke:#000000;stroke-width:2;stroke-linecap:square;stroke-miterlimit:10;}
	.st5{fill:none;stroke:#000000;stroke-width:2;stroke-linecap:square;stroke-linejoin:round;stroke-miterlimit:10;}
</style>
<g>
	<polygon class="st1" points="79.1,65.7 0.9,65.7 0.9,22.7 40,51.1 79.1,22.8 	"/>
	<path class="st1" d="M80,66.6H0V20.9l40,29l40-29V66.6z M1.8,64.8h76.4V24.5L40,52.2L1.8,24.5V64.8z"/>
</g>
<g>
	<polygon class="st1" points="79.1,16.4 40.1,44.7 1.1,16.6 1.1,14.6 79.1,14.3 	"/>
	<path class="st1" d="M40.1,45.9L0.2,17v-3.3L80,13.4v3.5L40.1,45.9z M2,16.1l38,27.5L78.2,16v-0.7L2,15.5V16.1z"/>
</g>
</svg>
