<?xml version="1.0" encoding="utf-8"?>
<!-- Generator: Adobe Illustrator 26.5.0, SVG Export Plug-In . SVG Version: 6.00 Build 0)  -->
<svg version="1.1" id="WhatsApp_Logo" xmlns="http://www.w3.org/2000/svg" xmlns:xlink="http://www.w3.org/1999/xlink" x="0px"
	 y="0px" viewBox="0 0 80 80" style="enable-background:new 0 0 80 80;" xml:space="preserve">
<style type="text/css">
	.st0{fill-rule:evenodd;clip-rule:evenodd;fill:#7F2346;}
	.st1{fill:#7F2346;}
	.st2{fill:#FFFFFF;}
	.st3{fill:none;stroke:#000000;stroke-width:3;stroke-linecap:square;stroke-miterlimit:10;}
	.st4{fill:none;stroke:#000000;stroke-width:2;stroke-linecap:square;stroke-miterlimit:10;}
	.st5{fill:none;stroke:#000000;stroke-width:2;stroke-linecap:square;stroke-linejoin:round;stroke-miterlimit:10;}
</style>
<path class="st1" d="M2.4,1.2c1.2-0.8,4.1-0.6,6.3-0.6c8.2-0.2,0,0,3.5,0c4.1,0,7-0.4,9.7,0.5c1.5,0.5,2.2,1,2.5,1.4
	c1.1,1.2,1,2.6,1.3,5.1c0,0,0.4,4.4,1.8,9c0.8,2.5,1.2,3,1.1,4.3c-0.1,2.3-1.4,3.9-2.5,5.2c-1.5,1.9-3.4,4.3-5.8,7.5
	c-0.8,1.1-0.9,2.5-0.3,3.6c1.1,2.2,2.4,4.4,4,6.7c6,8.7,13.5,14,19.2,17c1.6,0.8,3.5,0.7,4.8-0.5c2.8-2.3,5.6-4.7,8.5-7
	c0.3-0.3,0.9-0.7,1.6-0.9c1.3-0.3,2.4,0.4,2.7,0.5c2.9,0.9,5.2,1.6,15.3,2.5c0.4,0,1.3,0,2.2,0.5c1.6,1,1.8,2.8,1.8,3.1
	c0,5.5,0,11.1,0,16.6c0,0.7-0.2,1.7-0.9,2.5c-1.3,1.4-3.7,1.1-4.9,1.1c-5.8,0.1-7.7,0.1-14.4-1.6c-10.9-2.7-17.3-5.5-23.8-9.6
	c-10.3-6.5-16.1-14.1-19.7-18.9C14.8,47.4,6.5,36,2.2,19.1C1.5,16.1-2.5,4.2,2.4,1.2z"/>
</svg>
