<?xml version="1.0" encoding="utf-8"?>
<!-- Generator: Adobe Illustrator 26.5.0, SVG Export Plug-In . SVG Version: 6.00 Build 0)  -->
<svg version="1.1" id="WhatsApp_Logo" xmlns="http://www.w3.org/2000/svg" xmlns:xlink="http://www.w3.org/1999/xlink" x="0px"
	 y="0px" viewBox="0 0 120 120" style="enable-background:new 0 0 120 120;" xml:space="preserve">
<style type="text/css">
	.st0{fill-rule:evenodd;clip-rule:evenodd;fill:#001F60;}
	.st1{fill:#001F60;}
	.st2{fill:none;stroke:#000000;stroke-width:3;stroke-linecap:square;stroke-miterlimit:10;}
	.st3{fill:none;stroke:#000000;stroke-width:2;stroke-linecap:square;stroke-miterlimit:10;}
	.st4{fill:none;stroke:#000000;stroke-width:2;stroke-linecap:square;stroke-linejoin:round;stroke-miterlimit:10;}
	.st5{fill:#FFFFFF;}
</style>
<g>
	<g>
		<polygon class="st1" points="26.8,120 13.4,120 13.4,117.3 24,117.3 24,34.4 80.9,34.4 80.9,118.6 78.1,118.6 78.1,37.2 
			26.8,37.2 		"/>
	</g>
	<g>
		<path class="st1" d="M71.4,54.8H32.6v-9.6h38.8V54.8z M35.4,52h33.3v-4.1H35.4V52z"/>
	</g>
	<g>
		<path class="st1" d="M71.4,73.7H32.6V64h38.8V73.7z M35.4,70.9h33.3v-4.1H35.4V70.9z"/>
	</g>
	<g>
		<path class="st1" d="M71.4,92.5H32.6v-9.6h38.8V92.5z M35.4,89.8h33.3v-4.1H35.4V89.8z"/>
	</g>
	<g>
		<path class="st1" d="M71.4,111.4H32.6v-9.6h38.8V111.4z M35.4,108.7h33.3v-4.1H35.4V108.7z"/>
	</g>
	<g>
		<polygon class="st1" points="106.6,118.6 103.9,118.6 103.9,2.7 48.4,2.7 48.4,35.8 45.7,35.8 45.7,0 106.6,0 		"/>
	</g>
	<g>
		<path class="st1" d="M96.3,20.4H54.9v-9.6h41.4V20.4z M57.7,17.7h35.9v-4.1H57.7V17.7z"/>
	</g>
	<g>
		<path class="st1" d="M96.3,39.3H79v-3.4h-24v-6.2h41.4V39.3z M81.7,36.6h11.8v-4.1H57.7v0.7h24V36.6z"/>
	</g>
	<g>
		<path class="st1" d="M96.3,58.2H79v-9.6h17.3V58.2z M81.7,55.5h11.8v-4.1H81.7V55.5z"/>
	</g>
	<g>
		<path class="st1" d="M96.3,77.1H79v-9.6h17.3V77.1z M81.7,74.3h11.8v-4.1H81.7V74.3z"/>
	</g>
	<g>
		<path class="st1" d="M96.3,96H79v-9.6h17.3V96z M81.7,93.2h11.8v-4.1H81.7V93.2z"/>
	</g>
	<g>
		<path class="st1" d="M96.3,115.7H79v-9.6h17.3V115.7z M81.7,112.9h11.8v-4.1H81.7V112.9z"/>
	</g>
</g>
</svg>
