<?xml version="1.0" encoding="utf-8"?>
<!-- Generator: Adobe Illustrator 26.5.0, SVG Export Plug-In . SVG Version: 6.00 Build 0)  -->
<svg version="1.1" id="WhatsApp_Logo" xmlns="http://www.w3.org/2000/svg" xmlns:xlink="http://www.w3.org/1999/xlink" x="0px"
	 y="0px" viewBox="0 0 120 120" style="enable-background:new 0 0 120 120;" xml:space="preserve">
<style type="text/css">
	.st0{fill-rule:evenodd;clip-rule:evenodd;fill:#001F60;}
	.st1{fill:#001F60;}
	.st2{fill:none;stroke:#000000;stroke-width:3;stroke-linecap:square;stroke-miterlimit:10;}
	.st3{fill:none;stroke:#000000;stroke-width:2;stroke-linecap:square;stroke-miterlimit:10;}
	.st4{fill:none;stroke:#000000;stroke-width:2;stroke-linecap:square;stroke-linejoin:round;stroke-miterlimit:10;}
	.st5{fill:#FFFFFF;}
</style>
<g>
	<path class="st1" d="M94.3,60.1h-3.8l0.3,1.7c0.1,0.7,0.2,1.4,0.2,2c0,6.6-6,12-13.5,12.3c-4.5-4.9-11.2-8-18.6-8h-3.6l0.3,1.7
		c0.1,0.7,0.2,1.4,0.2,2c0,6.8-6.1,12.4-13.5,12.4s-13.5-5.6-13.5-12.4c0-0.6,0.1-1.3,0.2-2l0.3-1.7h-3.3C11.4,68.2,0,78.8,0,92.4
		V103c0,7.7,6.7,14,15,14h53.5c6,0,11.1-3.3,13.5-8h22.3c8.6,0,15.7-6.3,15.7-14v-12C120,70.4,108.5,60.1,94.3,60.1z M80.7,103
		c0,6.2-5.5,11.2-12.2,11.2H15c-6.7,0-12.2-5-12.2-11.2V92.4C2.8,80.4,13,71,26.1,71h0c0,0.3,0,0.6,0,0.9c0,8.4,7.3,15.2,16.3,15.2
		s16.3-6.8,16.3-15.2c0-0.3,0-0.6,0-0.9H59c12,0,21.7,9,21.7,20V103z M117.2,94.9c0,6.2-5.8,11.2-12.9,11.2H83.1
		c0.2-1,0.4-2.1,0.4-3.1v-12c0-4.5-1.4-8.6-3.8-12.1c8.1-1.2,14.2-7.4,14.2-15c0-0.3,0-0.6,0-0.9h0.4c12.6,0,22.8,9,22.8,20V94.9z"
		/>
	<path class="st1" d="M18.2,53.2c0.1,0.1,0.2,0.3,0.2,0.4c2.3,3.3,5.4,7.7,10.4,10.2c0.6,0.3,1.4,0.1,1.8-0.5
		c0.4-0.6,0.3-1.3-0.2-1.8l-1.8-1.7c-3.2-3.4-4.9-7.9-4.9-12.5c0-6.5,3.3-12.4,8.9-15.8c0.2-0.1,0.3-0.2,0.5-0.2
		c3.8-0.7,9.9-0.3,14.6,3.3c2.6,1.9,4.6,3.6,6.4,5.1c2.2,1.8,4,3.3,5.6,4.3c0.4,0.2,0.7,0.7,0.7,1.1c0.1,0.7,0.1,1.5,0.1,2.2
		c0,5.1-1.5,9.1-4.4,12.3c-0.2,0.2-0.8,0.6-0.9,0.6c-0.4,0.3-2,1-3,1.5c-0.7,0.3-1,1-0.8,1.7c0.2,0.6,0.7,1,1.3,1c0.1,0,0.2,0,0.3,0
		l1.5-0.3c0.5-0.1,1-0.3,1.5-0.5c8.9-3.5,13.5-11.5,13.4-23.7c0-5.4-1.6-10.4-4.3-14.7l0.5-0.5c0.8-0.7,1.6-1.4,2.4-2
		c2.1,3.8,5.5,7.2,9.8,9.9c6.4,3.9,13.6,5.2,18.9,3.4c0.1,0.7,0.1,1.3,0.1,2c0,4.8-1.9,9.4-5.2,12.9c-0.8,0.5-1.3,0.9-1.3,0.9
		l-1.5,0.9l1.3,1.3c0.1,0.1,0.2,0.2,0.4,0.3l0.1,0.1c1.9,1.4,6.7,2.5,10.4,2.5c6,0,12.8-3.7,13.1-3.9l4.4-2.4l-5-0.2
		c-2.1-0.1-8.1-1-10-4.3c-0.4-0.7-0.7-1.6-0.7-2.7c2.1-3.9,3.2-8.3,3.2-12.8c0-15.2-12.3-27.5-27.5-27.5c-9.2,0-17.7,4.6-22.8,12.2
		l-0.4,0.6c-3.8-2.1-8.2-3.4-12.9-3.4c-14.9-0.1-27.4,11.9-27.8,26.8c-0.1,3.3,0.6,6.5,0.6,6.6C16,48.4,16.9,50.9,18.2,53.2z
		 M58.2,16.8c4.6-6.9,12.3-11,20.5-11c13.6,0,24.7,11.1,24.7,24.7c0,4.1-1,8.2-3,11.8l-0.2,0.3V43c0,1.7,0.4,3.2,1.1,4.5
		c1.6,2.8,4.8,4.2,7.6,4.9c-2.2,0.9-5,1.7-7.6,1.7c-2.5,0-5.4-0.6-7.3-1.2c3.9-4,6-9.2,6-14.8c0-1.4-0.1-2.8-0.4-4.2L99.2,32
		l-1.6,0.8c-4.5,2.3-11.7,1.2-18-2.6c-4.3-2.6-7.7-6.3-9.4-10l-0.6-1.4l-1.3,0.8c-1.5,0.9-3,1.9-4.2,3.1l-0.3,0.2
		c-1.7-2.1-3.7-4-5.9-5.6L58.2,16.8z M42.5,15.2c13.4,0.1,24.4,11.2,24.4,24.7c0,9-2.6,14.1-5.4,17.1c1.3-2.8,2-6,2-9.6
		c0-0.8-0.1-1.7-0.2-2.5c-0.2-1.4-0.9-2.5-2.1-3.2c-1.5-0.9-3.2-2.3-5.3-4c-1.8-1.5-3.9-3.2-6.5-5.2c-4.1-3-8.9-4.1-13-4.1
		c-1.4,0-2.7,0.1-3.8,0.3c-0.5,0.1-1,0.3-1.4,0.5C24.8,33,21,39.8,21,47.3c0,2.2,0.3,4.3,1,6.3c-0.4-0.6-0.8-1.1-1.2-1.6
		c0,0-0.1-0.1-0.1-0.1c-1.2-2.1-2-4.3-2.5-6.6c0,0-0.6-3-0.6-5.9C17.9,25.9,29.1,15.1,42.5,15.2z"/>
</g>
</svg>
