<?xml version="1.0" encoding="utf-8"?>
<!-- Generator: Adobe Illustrator 26.5.0, SVG Export Plug-In . SVG Version: 6.00 Build 0)  -->
<svg version="1.1" id="WhatsApp_Logo" xmlns="http://www.w3.org/2000/svg" xmlns:xlink="http://www.w3.org/1999/xlink" x="0px"
	 y="0px" viewBox="0 0 120 120" style="enable-background:new 0 0 120 120;" xml:space="preserve">
<style type="text/css">
	.st0{fill-rule:evenodd;clip-rule:evenodd;fill:#001F60;}
	.st1{fill:#001F60;}
	.st2{fill:none;stroke:#000000;stroke-width:3;stroke-linecap:square;stroke-miterlimit:10;}
	.st3{fill:none;stroke:#000000;stroke-width:2;stroke-linecap:square;stroke-miterlimit:10;}
	.st4{fill:none;stroke:#000000;stroke-width:2;stroke-linecap:square;stroke-linejoin:round;stroke-miterlimit:10;}
	.st5{fill:#FFFFFF;}
</style>
<g>
	<g>
		<path class="st1" d="M59.8,113.3c-7.5,0-13.4-3.2-13.4-7.3L46,87.6c-12-5.3-19.7-17-19.7-29.9c0-18.1,15-32.8,33.5-32.8
			s33.5,14.7,33.5,32.8c0,12.8-7.6,24.4-19.4,29.8L73.2,106C73.2,110.1,67.3,113.3,59.8,113.3z M59.8,27.4
			c-17,0-30.9,13.6-30.9,30.2c0,12.2,7.4,23.1,18.9,27.8l0.8,0.3l0.5,20.1c0,2.3,4.4,4.8,10.8,4.8s10.8-2.5,10.8-4.7l0.8-20.3
			l0.8-0.3c11.3-4.8,18.6-15.7,18.6-27.7C90.7,41,76.9,27.4,59.8,27.4z"/>
	</g>
	<g>
		<path class="st1" d="M37,53.2l-2.6-0.4c0.4-2.5,1.4-6.3,4.3-10c3.2-4.2,7.2-6.2,10-7.1l0.9,2.5c-2.4,0.8-5.9,2.6-8.8,6.3
			C38.2,47.6,37.3,50.9,37,53.2z"/>
	</g>
	<g>
		<path class="st1" d="M53.7,36.5l-1.1-2.3c1.3-0.7,2.8-1.1,4.2-1.3c1.6-0.2,3.1-0.2,4.7,0.1L61,35.6c-1.3-0.2-2.5-0.3-3.8-0.1
			C56,35.7,54.8,36,53.7,36.5z"/>
	</g>
	<g>
		<path class="st1" d="M72.5,79.7l-0.7-2.5c1.6-0.5,5.8-2,8.7-6.2c3.1-4.6,2.8-9.3,2.5-11.1l2.6-0.4c0.3,2.1,0.7,7.7-2.9,13
			C79.2,77.4,74.4,79.2,72.5,79.7z"/>
	</g>
	<g>
		<path class="st1" d="M65.2,94.5c-0.7,0-1.3-0.6-1.3-1.3c0-3.6,0-7.2,0-10.8c0-3.9,0.2-6.8,0.6-9.6c-1.7,0.1-3.7,0.2-6,0.2
			c-0.8,0-1.7,0-2.7-0.1c0,0.1,0,0.1,0,0.1c-0.1,5.5-0.1,11.7,0,20.1c0,0.7-0.6,1.3-1.3,1.3c-0.8,0-1.3-0.6-1.3-1.3
			c-0.1-8.4-0.1-14.7,0-20.1c0-0.2,0-0.4,0-0.5c-3.9-0.8-8.1-2.4-9.3-5.7c-0.5-1.5-0.5-2.8,0.1-3.8c0.5-0.8,1.5-1.8,3.7-2
			c1.7-0.2,3.5,0.4,5,1.6c2.4,1.9,3,4.9,3.1,7.6c1,0.1,1.9,0.2,2.8,0.2c2.7,0,4.8-0.1,6.4-0.2c0.1-0.5,0.2-1,0.3-1.5
			c1.6-6.3,4.2-7.4,4.9-7.6c1.8-0.5,4.5,0.1,5.5,2c0.9,1.5,0.3,3.1,0.1,3.7c-0.6,1.9-2.3,3.5-4.7,4.8c-0.8,0.4-2.2,0.8-4,1
			c-0.5,2.9-0.6,5.8-0.6,9.9c0,3.6,0,7.2,0,10.7C66.5,93.9,65.9,94.5,65.2,94.5C65.2,94.5,65.2,94.5,65.2,94.5z M71.6,63.5
			c-0.2,0-0.5,0-0.7,0.1c0,0-1.8,0.7-3.1,5.8c0,0.2-0.1,0.3-0.1,0.5c1.5-0.3,2.1-0.5,2.3-0.6c1.8-0.9,3-2.1,3.4-3.3
			c0.1-0.3,0.4-1.1,0.1-1.6C73.2,63.8,72.3,63.5,71.6,63.5z M48.2,63.6c-0.1,0-0.2,0-0.3,0c-1.2,0.1-1.6,0.5-1.7,0.7
			c-0.2,0.3-0.2,0.9,0.1,1.6c0.7,1.9,3.6,3.2,6.8,3.9c-0.2-2-0.7-4-2.1-5.1C50.4,64.3,49.4,63.6,48.2,63.6z"/>
	</g>
	<g>
		<path class="st1" d="M72.4,94.9C72.4,94.9,72.4,94.9,72.4,94.9l-25-0.4c-0.7,0-1.3-0.6-1.3-1.3c0-0.7,0.6-1.3,1.3-1.3c0,0,0,0,0,0
			l25,0.4c0.7,0,1.3,0.6,1.3,1.3C73.7,94.3,73.1,94.9,72.4,94.9z"/>
	</g>
	<g>
		<path class="st1" d="M71.2,101.2H48.4c-0.7,0-1.3-0.6-1.3-1.3s0.6-1.3,1.3-1.3h22.8c0.7,0,1.3,0.6,1.3,1.3S72,101.2,71.2,101.2z"
			/>
	</g>
	<g>
		<path class="st1" d="M71.2,107.9H48.4c-0.7,0-1.3-0.6-1.3-1.3s0.6-1.3,1.3-1.3h22.8c0.7,0,1.3,0.6,1.3,1.3S72,107.9,71.2,107.9z"
			/>
	</g>
	<g>
		<path class="st1" d="M60.2,120c-4.6,0-8.3-3.9-8.3-8.7c0-0.7,0.6-1.3,1.3-1.3s1.3,0.6,1.3,1.3c0,3.3,2.6,6.1,5.7,6.1
			c3.2,0,5.7-2.7,5.7-6.1c0-0.7,0.6-1.3,1.3-1.3c0.7,0,1.3,0.6,1.3,1.3C68.5,116.1,64.8,120,60.2,120z"/>
	</g>
	<g>
		<rect x="58.6" class="st1" width="2.6" height="17.1"/>
	</g>
	<g>
		<line class="st1" x1="102" y1="55.6" x2="119.1" y2="55.6"/>
		<rect x="102" y="54.3" class="st1" width="17.1" height="2.6"/>
	</g>
	<g>
		<line class="st1" x1="0.9" y1="55.6" x2="18" y2="55.6"/>
		<rect x="0.9" y="54.3" class="st1" width="17.1" height="2.6"/>
	</g>
	<g>
		<line class="st1" x1="90.6" y1="28.5" x2="103.2" y2="16.8"/>
		
			<rect x="88.3" y="21.3" transform="matrix(0.7325 -0.6808 0.6808 0.7325 10.5173 72.0283)" class="st1" width="17.1" height="2.6"/>
	</g>
	<g>
		<line class="st1" x1="30" y1="27.6" x2="16.1" y2="17.6"/>
		<rect x="21.8" y="14.1" transform="matrix(0.584 -0.8118 0.8118 0.584 -8.7669 28.1548)" class="st1" width="2.6" height="17.1"/>
	</g>
</g>
</svg>
