<?xml version="1.0" encoding="utf-8"?>
<!-- Generator: Adobe Illustrator 26.5.0, SVG Export Plug-In . SVG Version: 6.00 Build 0)  -->
<svg version="1.1" id="WhatsApp_Logo" xmlns="http://www.w3.org/2000/svg" xmlns:xlink="http://www.w3.org/1999/xlink" x="0px"
	 y="0px" viewBox="0 0 120 120" style="enable-background:new 0 0 120 120;" xml:space="preserve">
<style type="text/css">
	.st0{fill-rule:evenodd;clip-rule:evenodd;fill:#001F60;}
	.st1{fill:#001F60;}
	.st2{fill:none;stroke:#000000;stroke-width:3;stroke-linecap:square;stroke-miterlimit:10;}
	.st3{fill:none;stroke:#000000;stroke-width:2;stroke-linecap:square;stroke-miterlimit:10;}
	.st4{fill:none;stroke:#000000;stroke-width:2;stroke-linecap:square;stroke-linejoin:round;stroke-miterlimit:10;}
	.st5{fill:#FFFFFF;}
</style>
<g>
	<path class="st1" d="M88.2,52.4H85l0.3,1.5c0.1,0.6,0.2,1.2,0.2,1.7c0,5.4-4.5,11.2-11.7,11.3c-3.8-4.7-9.9-7.7-16.7-7.7h-3.2
		l0.3,1.5c0.1,0.6,0.2,1.2,0.2,1.7c0,5.8-5.1,10.5-11.4,10.5s-11.4-4.7-11.4-10.5c0-0.5,0.1-1.1,0.2-1.7l0.3-1.5h-2.9
		c-12.5,0-22.4,9.1-22.4,20.8v9c0,6.2,5.1,11.4,11.6,12l1.8,10.3h44.8l1.6-10.3c4.6-0.4,8.5-3.1,10.4-6.8h19.6
		c7.1,0,12.9-5.4,12.9-12V72C109.3,61.2,99.8,52.4,88.2,52.4z M62.5,108.7H22.1l-4.6-26.9h49.3L62.5,108.7z M75.5,89.1
		c0,4.7-3.8,8.6-8.7,9.3l3-19.1H14.4l3.3,19.1c-4.9-0.8-8.6-4.6-8.6-9.3v-9c0-10.2,8.7-18.2,19.7-18.2c0,0.2,0,0.4,0,0.7
		c0,7.2,6.3,13.1,14,13.1s14-5.9,14-13.1c0-0.2,0-0.4,0-0.7h0.2c10.2,0,18.4,7.6,18.4,17V89.1z M106.7,82.2c0,5.2-4.6,9.4-10.3,9.4
		H77.8c0.2-0.8,0.3-1.7,0.3-2.6V78.8c0-3.4-0.9-6.6-2.6-9.4c7.1-0.9,12.6-6.7,12.6-13.8c0-0.2,0-0.4,0-0.7h0.2
		c10.2,0,18.4,7.6,18.4,17V82.2z"/>
	<polygon class="st1" points="72,107.7 73.9,117.4 9.8,117.4 12,107.7 9.5,107.1 6.5,120 77.1,120 74.5,107.2 	"/>
	<path class="st1" d="M108.8,43.4c-2-0.1-7.5-0.9-9.2-3.9C99.2,38.8,99,38,99,37c1.9-3.6,2.9-7.7,2.9-11.7C101.9,11.3,90.6,0,76.6,0
		c-8.4,0-16.3,4.2-21,11.2l-0.4,0.5c-3.5-2-7.6-3.1-11.9-3.1c-0.1,0-0.2,0-0.3,0c-13.6,0-24.9,11-25.3,24.6c-0.1,3,0.6,5.9,0.6,6.1
		c0.5,2.4,1.4,4.7,2.6,6.8c0.1,0.1,0.1,0.2,0.2,0.3c2.1,3,5,7.1,9.5,9.4c0.6,0.3,1.3,0.1,1.6-0.4c0.4-0.5,0.3-1.2-0.2-1.7l-1.6-1.5
		c-2.9-3.2-4.5-7.2-4.5-11.5c0-6,3.1-11.4,8.2-14.5c0.1-0.1,0.3-0.1,0.4-0.2c3.5-0.6,9.1-0.2,13.5,3c2.3,1.8,4.2,3.3,5.9,4.7
		c2,1.7,3.6,3,5.2,3.9c0.4,0.2,0.6,0.6,0.7,1c0.1,0.7,0.1,1.4,0.1,2c0,4.7-1.3,8.4-4.1,11.3c-0.2,0.2-0.7,0.5-0.8,0.6
		c-0.4,0.3-1.9,1-2.8,1.4c-0.6,0.3-0.9,1-0.7,1.6c0.2,0.5,0.7,0.9,1.2,0.9c0.1,0,0.2,0,0.3,0l1.4-0.3c0.5-0.1,0.9-0.2,1.4-0.4
		c8.2-3.2,12.4-10.5,12.3-21.8c0-5-1.5-9.6-4-13.5l0.5-0.4c0.7-0.7,1.4-1.3,2.2-1.8c1.9,3.5,5,6.7,9,9.1c5.9,3.6,12.5,4.8,17.4,3.2
		c0.1,0.6,0.1,1.2,0.1,1.8c0,4.4-1.7,8.6-4.8,11.8c-0.7,0.5-1.2,0.8-1.2,0.8l-1.4,0.9l1.2,1.2c0.1,0.1,0.2,0.2,0.3,0.3l0.1,0.1
		c1.7,1.2,6.1,2.3,9.6,2.3c5.5,0,11.8-3.4,12-3.6l4.1-2.2L108.8,43.4z M60.8,49.5c1.2-2.6,1.8-5.5,1.8-8.8c0-0.8,0-1.6-0.1-2.3
		c-0.1-1.3-0.8-2.3-1.9-3c-1.4-0.8-2.9-2.1-4.8-3.7c-1.7-1.4-3.6-3-6-4.8c-3.7-2.8-8.2-3.8-12-3.8c-1.3,0-2.5,0.1-3.5,0.3
		c-0.5,0.1-0.9,0.3-1.3,0.5c-5.9,3.6-9.5,9.8-9.5,16.7c0,2,0.3,3.9,0.9,5.8c-0.4-0.5-0.7-1-1.1-1.5c0,0-0.1-0.1-0.1-0.1
		c-1.1-1.9-1.9-4-2.3-6.1c0,0-0.6-2.8-0.5-5.5C20.7,20.9,31,11,43.4,11.2c12.3,0.1,22.4,10.3,22.4,22.7
		C65.8,42.1,63.4,46.8,60.8,49.5z M97.4,46.8c-2.3,0-5-0.5-6.7-1.1c3.5-3.7,5.5-8.5,5.5-13.6c0-1.3-0.1-2.6-0.4-3.9l-0.3-1.7
		l-1.5,0.8c-4.1,2.1-10.8,1.1-16.5-2.4c-3.9-2.4-7.1-5.8-8.6-9.2l-0.6-1.3L67,15.1c-1.4,0.8-2.7,1.8-3.9,2.9l-0.2,0.2
		c-1.5-2-3.4-3.7-5.4-5.1l0.3-0.4C62,6.4,69,2.6,76.6,2.6c12.5,0,22.7,10.2,22.7,22.7c0,3.8-1,7.5-2.8,10.8l-0.2,0.3v0.3
		c0,1.6,0.3,3,1,4.1c1.5,2.5,4.4,3.8,7,4.5C102.3,46.1,99.7,46.8,97.4,46.8z"/>
</g>
</svg>
