<?xml version="1.0" encoding="utf-8"?>
<!-- Generator: Adobe Illustrator 26.5.0, SVG Export Plug-In . SVG Version: 6.00 Build 0)  -->
<svg version="1.1" id="WhatsApp_Logo" xmlns="http://www.w3.org/2000/svg" xmlns:xlink="http://www.w3.org/1999/xlink" x="0px"
	 y="0px" viewBox="0 0 120 120" style="enable-background:new 0 0 120 120;" xml:space="preserve">
<style type="text/css">
	.st0{fill-rule:evenodd;clip-rule:evenodd;fill:#001F60;}
	.st1{fill:#001F60;}
	.st2{fill:none;stroke:#000000;stroke-width:3;stroke-linecap:square;stroke-miterlimit:10;}
	.st3{fill:none;stroke:#000000;stroke-width:2;stroke-linecap:square;stroke-miterlimit:10;}
	.st4{fill:none;stroke:#000000;stroke-width:2;stroke-linecap:square;stroke-linejoin:round;stroke-miterlimit:10;}
	.st5{fill:#FFFFFF;}
</style>
<g>
	<g>
		<path class="st1" d="M12,110.1V58.7l48.2-39.4l47.9,39.4v51.4L67.3,110V75.3H51.5V110L12,110.1z M70.5,106.9L105,107V60.2
			L60.2,23.4l-45,36.8V107l33.2-0.1V72.1h22.1V106.9z"/>
	</g>
	<g>
		<polygon class="st1" points="2,60.7 0,58.2 29,34.9 29.5,20.2 43.6,18.2 43.6,23 60.2,9.9 120,58.2 118,60.7 60.2,13.9 40.5,29.6 
			40.5,21.8 32.5,22.9 32.2,36.5 		"/>
	</g>
</g>
</svg>
