<?xml version="1.0" encoding="utf-8"?>
<!-- Generator: Adobe Illustrator 26.5.0, SVG Export Plug-In . SVG Version: 6.00 Build 0)  -->
<svg version="1.1" xmlns="http://www.w3.org/2000/svg" xmlns:xlink="http://www.w3.org/1999/xlink" x="0px" y="0px"
	 viewBox="0 0 240 200" style="enable-background:new 0 0 240 200;" xml:space="preserve">
<style type="text/css">
	.st0{fill:#FFFFFF;}
	.st1{fill:#001F60;}
	.st2{fill:#7F2346;}
	.st3{fill:#837E9B;}
	.st4{display:none;}
	.st5{display:inline;}
	.st6{fill:#E6007E;}
</style>
<g id="Ebene_1">
	<g>
		<g>
			<path class="st1" d="M54.9,190.2c0.2,0.2,0.2,0.5,0.2,0.7c0,0.2-0.1,0.4-0.2,0.6c-0.1,0.2-0.3,0.4-0.5,0.5
				c-0.4,0.3-0.9,0.5-1.5,0.5c-0.3,0-0.5,0-0.8-0.1c-0.3-0.1-0.5-0.2-0.7-0.3c-0.3-0.3-0.6-0.6-0.6-0.9l0.4-0.2
				c0,0.3,0.2,0.6,0.5,0.8c0.2,0.1,0.3,0.2,0.6,0.3c0.2,0.1,0.4,0.1,0.7,0.1c0.5,0,0.9-0.1,1.2-0.4c0.3-0.2,0.5-0.5,0.5-0.8
				c0-0.2-0.1-0.4-0.2-0.5s-0.3-0.3-0.5-0.4c-0.2-0.1-0.6-0.2-1.1-0.2c0,0-0.2,0-0.5-0.1c-0.3,0-0.5-0.1-0.7-0.2
				c-0.3-0.1-0.5-0.3-0.7-0.6c-0.2-0.2-0.3-0.5-0.3-0.8c0-0.2,0.1-0.4,0.2-0.6c0.1-0.2,0.3-0.4,0.5-0.5c0.2-0.1,0.4-0.3,0.7-0.3
				c0.3-0.1,0.5-0.1,0.8-0.1c0.6,0,1.1,0.2,1.5,0.5c0.4,0.3,0.6,0.6,0.6,0.9l-0.4,0.2c0-0.2,0-0.3-0.1-0.4c-0.1-0.1-0.2-0.3-0.3-0.4
				c-0.2-0.1-0.4-0.2-0.6-0.3c-0.2-0.1-0.4-0.1-0.7-0.1s-0.5,0-0.7,0.1c-0.2,0.1-0.4,0.2-0.6,0.3c-0.2,0.1-0.3,0.2-0.4,0.4
				c-0.1,0.1-0.1,0.3-0.1,0.4c0,0.2,0.1,0.4,0.2,0.6c0.1,0.2,0.3,0.3,0.5,0.4c0.1,0.1,0.3,0.1,0.4,0.1c0.2,0,0.4,0.1,0.6,0.1
				c0,0,0.1,0,0.3,0c0.2,0,0.3,0.1,0.5,0.1c0.2,0,0.3,0.1,0.4,0.2C54.5,189.8,54.7,190,54.9,190.2z"/>
			<path class="st1" d="M53,192.7c-0.3,0-0.6,0-0.8-0.1c-0.3-0.1-0.5-0.2-0.7-0.4c-0.4-0.3-0.6-0.6-0.7-1l0-0.1l0.6-0.4l0,0.2
				c0,0.3,0.2,0.5,0.4,0.7c0.1,0.1,0.3,0.2,0.5,0.3c0.2,0.1,0.4,0.1,0.6,0.1c0.5,0,0.8-0.1,1.1-0.3c0.3-0.2,0.4-0.5,0.4-0.7
				c0-0.2,0-0.3-0.2-0.5c-0.1-0.1-0.3-0.3-0.5-0.4c-0.2-0.1-0.5-0.2-1-0.2l-0.5-0.1c-0.3,0-0.5-0.1-0.7-0.2
				c-0.3-0.2-0.6-0.4-0.7-0.6c-0.2-0.3-0.3-0.5-0.3-0.8c0-0.2,0.1-0.5,0.2-0.7c0.1-0.2,0.3-0.4,0.5-0.6c0.2-0.2,0.5-0.3,0.7-0.4
				c0.3-0.1,0.5-0.1,0.8-0.1c0.6,0,1.1,0.2,1.6,0.5c0.4,0.3,0.6,0.6,0.7,1l0,0.1l-0.6,0.4l0-0.2c0-0.1,0-0.3-0.1-0.4
				c-0.1-0.1-0.2-0.2-0.3-0.3c-0.1-0.1-0.3-0.2-0.5-0.3c-0.4-0.1-0.9-0.1-1.3,0c-0.2,0.1-0.4,0.1-0.5,0.3c-0.1,0.1-0.3,0.2-0.3,0.4
				c-0.1,0.1-0.1,0.2-0.1,0.4c0,0.2,0.1,0.3,0.2,0.5c0.1,0.2,0.3,0.3,0.5,0.4c0.1,0.1,0.2,0.1,0.4,0.1c0.2,0,0.3,0.1,0.6,0.1l0.3,0
				c0.2,0,0.3,0.1,0.5,0.1c0.2,0,0.3,0.1,0.4,0.2c0.3,0.2,0.5,0.4,0.7,0.6h0c0.2,0.2,0.3,0.5,0.3,0.8c0,0.2-0.1,0.5-0.2,0.7
				c-0.1,0.2-0.3,0.4-0.5,0.6C54.1,192.5,53.6,192.7,53,192.7z M51,191.2c0.1,0.3,0.3,0.6,0.6,0.8c0.2,0.1,0.4,0.2,0.6,0.3
				c0.2,0.1,0.5,0.1,0.8,0.1c0.5,0,1-0.1,1.4-0.4c0.2-0.1,0.3-0.3,0.4-0.5c0.1-0.2,0.1-0.4,0.1-0.6c0-0.2-0.1-0.5-0.2-0.7
				c-0.1-0.2-0.3-0.4-0.6-0.5c-0.1-0.1-0.2-0.1-0.4-0.1c-0.2,0-0.3-0.1-0.5-0.1l-0.3,0c-0.2,0-0.4-0.1-0.6-0.1
				c-0.2,0-0.3-0.1-0.5-0.1c-0.2-0.1-0.4-0.3-0.6-0.5c-0.2-0.2-0.2-0.4-0.2-0.6c0-0.2,0-0.3,0.1-0.5c0.1-0.2,0.2-0.3,0.4-0.4
				c0.2-0.1,0.4-0.2,0.6-0.3c0.5-0.1,1-0.1,1.4,0c0.2,0.1,0.4,0.2,0.6,0.3c0.2,0.1,0.3,0.3,0.4,0.4c0.1,0.1,0.1,0.2,0.1,0.3l0.1-0.1
				c-0.1-0.3-0.3-0.5-0.5-0.8c-0.4-0.3-0.9-0.4-1.4-0.4c-0.3,0-0.5,0-0.8,0.1c-0.2,0.1-0.5,0.2-0.6,0.3c-0.2,0.1-0.3,0.3-0.4,0.5
				c-0.1,0.2-0.2,0.4-0.2,0.6c0,0.3,0.1,0.5,0.2,0.7c0.2,0.2,0.4,0.4,0.7,0.5c0.2,0.1,0.4,0.1,0.6,0.2l0.5,0.1
				c0.5,0.1,0.9,0.1,1.1,0.3c0.2,0.1,0.4,0.3,0.5,0.5c0.1,0.2,0.2,0.4,0.2,0.6c0,0.4-0.2,0.7-0.5,0.9c-0.4,0.3-0.8,0.4-1.3,0.4
				c-0.2,0-0.5,0-0.7-0.1c-0.2-0.1-0.4-0.2-0.6-0.3c-0.3-0.2-0.4-0.4-0.5-0.7L51,191.2z"/>
		</g>
		<g>
			<path class="st1" d="M65.1,186.6v0.4h-2.3v5.5h-0.4V187H60v-0.4H65.1z"/>
			<path class="st1" d="M62.9,192.6h-0.7v-5.5h-2.3v-0.7h5.3v0.7h-2.3V192.6z M62.5,192.3h0.2v-5.5H65v-0.2h-4.8v0.2h2.3V192.3z"/>
		</g>
		<g>
			<path class="st1" d="M71.1,192.5v-5.9h3.8v0.4h-3.4v2.3h2.7v0.4h-2.7v2.3h3.4v0.4H71.1z"/>
			<path class="st1" d="M75,192.6H71v-6.1H75v0.7h-3.4v2.1h2.7v0.7h-2.7v2.1H75V192.6z M71.2,192.3h3.6v-0.2h-3.4v-2.6H74v-0.2h-2.7
				v-2.6h3.4v-0.2h-3.6V192.3z"/>
		</g>
		<g>
			<path class="st1" d="M83.2,192.5c-0.3,0-0.6-0.1-0.9-0.2c-0.3-0.1-0.5-0.3-0.7-0.5c-0.2-0.2-0.4-0.4-0.5-0.7
				c-0.1-0.3-0.2-0.6-0.2-0.9v-3.7h0.4v3.7c0,0.3,0,0.5,0.1,0.7c0.1,0.2,0.2,0.4,0.4,0.6c0.2,0.2,0.4,0.3,0.6,0.4
				c0.2,0.1,0.5,0.1,0.7,0.1c0.2,0,0.5,0,0.7-0.1c0.2-0.1,0.4-0.2,0.6-0.4c0.2-0.2,0.3-0.4,0.4-0.6c0.1-0.2,0.1-0.5,0.1-0.7v-3.7
				h0.4v3.7c0,0.3-0.1,0.6-0.2,0.9c-0.1,0.3-0.3,0.5-0.5,0.7c-0.2,0.2-0.5,0.4-0.7,0.5C83.8,192.5,83.6,192.5,83.2,192.5z"/>
			<path class="st1" d="M83.2,192.7c-0.3,0-0.6-0.1-0.9-0.2s-0.5-0.3-0.8-0.5c-0.2-0.2-0.4-0.5-0.5-0.8c-0.1-0.3-0.2-0.6-0.2-0.9
				v-3.8h0.7v3.8c0,0.2,0,0.5,0.1,0.7c0.1,0.2,0.2,0.4,0.4,0.6c0.2,0.2,0.4,0.3,0.6,0.4c0.4,0.2,0.9,0.2,1.3,0
				c0.2-0.1,0.4-0.2,0.6-0.4c0.2-0.2,0.3-0.3,0.4-0.6c0.1-0.2,0.1-0.4,0.1-0.7v-3.8h0.7v3.8c0,0.3-0.1,0.6-0.2,0.9
				c-0.1,0.3-0.3,0.6-0.5,0.8c-0.2,0.2-0.5,0.4-0.8,0.5C83.9,192.6,83.6,192.7,83.2,192.7z M81.1,186.7v3.5c0,0.3,0.1,0.6,0.2,0.8
				c0.1,0.3,0.3,0.5,0.5,0.7c0.2,0.2,0.4,0.4,0.7,0.5c0.5,0.2,1.1,0.2,1.6,0c0.3-0.1,0.5-0.3,0.7-0.5c0.2-0.2,0.4-0.4,0.5-0.7
				c0.1-0.3,0.2-0.5,0.2-0.8v-3.5h-0.2v3.5c0,0.3-0.1,0.5-0.1,0.8s-0.2,0.5-0.4,0.6c-0.2,0.2-0.4,0.3-0.6,0.4c-0.5,0.2-1,0.2-1.5,0
				c-0.2-0.1-0.5-0.2-0.6-0.4c-0.2-0.2-0.3-0.4-0.4-0.6c-0.1-0.2-0.1-0.5-0.1-0.8v-3.5H81.1z"/>
		</g>
		<g>
			<path class="st1" d="M91.8,192.5v-5.9h3.8v0.4h-3.4v2.3h2.7v0.4h-2.7v2.3h3.4v0.4H91.8z"/>
			<path class="st1" d="M95.7,192.6h-4.1v-6.1h4.1v0.7h-3.4v2.1H95v0.7h-2.7v2.1h3.4V192.6z M91.9,192.3h3.6v-0.2h-3.4v-2.6h2.7
				v-0.2h-2.7v-2.6h3.4v-0.2h-3.6V192.3z"/>
		</g>
		<g>
			<path class="st1" d="M105.2,192.5l-2.4-3h0.7c0.4,0,0.8-0.1,1.1-0.2c0.2-0.1,0.4-0.2,0.5-0.4c0.2-0.2,0.2-0.4,0.2-0.6
				c0-0.2-0.1-0.4-0.2-0.6c-0.1-0.2-0.3-0.3-0.5-0.5c-0.2-0.1-0.5-0.2-0.8-0.2h-1.6v5.5h-0.4v-5.9h2.1c0.3,0,0.5,0,0.8,0.1
				c0.2,0.1,0.5,0.2,0.6,0.4c0.2,0.2,0.3,0.3,0.4,0.5c0.1,0.2,0.1,0.4,0.1,0.6c0,0.3-0.1,0.6-0.3,0.9c-0.2,0.3-0.4,0.5-0.7,0.6
				c-0.2,0.1-0.4,0.1-0.5,0.2c-0.2,0-0.4,0-0.6,0l2.1,2.6H105.2z"/>
			<path class="st1" d="M106,192.6h-0.9l-2.7-3.2h1c0.4,0,0.8-0.1,1-0.2c0.2-0.1,0.3-0.2,0.5-0.4c0.1-0.2,0.2-0.4,0.2-0.6
				c0-0.2-0.1-0.4-0.2-0.5c-0.1-0.2-0.3-0.3-0.5-0.4c-0.2-0.1-0.5-0.2-0.8-0.2h-1.5v5.5h-0.7v-6.1h2.2c0.3,0,0.6,0,0.8,0.1
				c0.3,0.1,0.5,0.2,0.7,0.4c0.2,0.2,0.3,0.4,0.4,0.6c0.1,0.2,0.2,0.4,0.2,0.7c0,0.4-0.1,0.7-0.3,1c-0.2,0.3-0.5,0.5-0.8,0.6
				c-0.2,0.1-0.4,0.1-0.6,0.2c-0.1,0-0.2,0-0.3,0L106,192.6z M105.3,192.3h0.2l-2.1-2.6h0.3c0.2,0,0.4,0,0.6,0
				c0.2,0,0.3-0.1,0.5-0.1c0.3-0.1,0.5-0.3,0.7-0.5c0.2-0.2,0.3-0.5,0.3-0.8c0-0.2,0-0.4-0.1-0.6c-0.1-0.2-0.2-0.4-0.4-0.5
				c-0.2-0.2-0.4-0.3-0.6-0.4c-0.2-0.1-0.5-0.1-0.7-0.1h-1.9v5.6h0.2v-5.5h1.8c0.3,0,0.6,0.1,0.9,0.2c0.3,0.1,0.5,0.3,0.6,0.5
				c0.1,0.2,0.2,0.4,0.2,0.7c0,0.3-0.1,0.5-0.3,0.7c-0.2,0.2-0.4,0.4-0.6,0.5c-0.3,0.1-0.7,0.2-1.1,0.2h-0.5L105.3,192.3z"/>
		</g>
		<g>
			<path class="st1" d="M115.8,189.9c0.2,0.3,0.3,0.5,0.3,0.9c0,0.2,0,0.4-0.1,0.6c-0.1,0.2-0.2,0.4-0.4,0.5
				c-0.2,0.2-0.4,0.3-0.6,0.4c-0.2,0.1-0.5,0.1-0.8,0.1H112l0-5.9h1.7c0.5,0,1,0.2,1.3,0.5c0.2,0.1,0.3,0.3,0.3,0.5s0.1,0.4,0.1,0.6
				c0,0.2-0.1,0.5-0.2,0.7c-0.1,0.2-0.2,0.4-0.4,0.5l-0.1,0.1c0.1,0,0.2,0.1,0.3,0.1C115.4,189.5,115.6,189.7,115.8,189.9z
				 M112.4,189.1h1.3c0.2,0,0.3,0,0.4,0c0.1,0,0.2,0,0.3-0.1c0.2-0.1,0.3-0.2,0.4-0.3c0.1-0.2,0.2-0.4,0.2-0.6
				c0-0.2-0.1-0.4-0.2-0.5c-0.1-0.2-0.3-0.3-0.5-0.4c-0.2-0.1-0.5-0.2-0.7-0.2h-1.3V189.1z M115,191.9c0.2-0.1,0.4-0.3,0.5-0.5
				c0.1-0.2,0.2-0.4,0.2-0.6c0-0.2-0.1-0.4-0.2-0.6c-0.1-0.2-0.3-0.3-0.5-0.4c-0.3-0.1-0.7-0.2-1.1-0.2h-1.4v2.5h1.7
				C114.5,192.1,114.7,192,115,191.9z"/>
			<path class="st1" d="M114.1,192.6h-2.3l0-6.1h1.8c0.6,0,1.1,0.2,1.4,0.5c0.2,0.1,0.3,0.3,0.4,0.5c0.1,0.2,0.1,0.4,0.1,0.6
				c0,0.3-0.1,0.5-0.2,0.7c-0.1,0.2-0.2,0.3-0.3,0.4c0,0,0.1,0,0.1,0c0.3,0.1,0.6,0.3,0.8,0.6h0c0.2,0.3,0.3,0.6,0.3,1
				c0,0.2-0.1,0.5-0.2,0.7c-0.1,0.2-0.2,0.4-0.4,0.6c-0.2,0.2-0.4,0.3-0.7,0.4C114.7,192.5,114.4,192.6,114.1,192.6z M112.1,192.3h2
				c0.3,0,0.5,0,0.7-0.1c0.2-0.1,0.4-0.2,0.6-0.3c0.2-0.1,0.3-0.3,0.4-0.5c0.1-0.2,0.1-0.4,0.1-0.6c0-0.3-0.1-0.6-0.3-0.8l0,0
				c-0.2-0.2-0.4-0.4-0.7-0.5c-0.1,0-0.2-0.1-0.3-0.1l-0.2-0.1l0.3-0.2c0.1-0.1,0.3-0.2,0.4-0.4c0.1-0.2,0.2-0.4,0.2-0.6
				c0-0.2,0-0.3-0.1-0.5c-0.1-0.2-0.2-0.3-0.3-0.4c-0.3-0.3-0.7-0.4-1.2-0.4h-1.6L112.1,192.3z M114.1,192.2h-1.9v-2.8h1.6
				c0.5,0,0.8,0.1,1.1,0.2c0.2,0.1,0.4,0.3,0.6,0.5c0.2,0.2,0.2,0.5,0.2,0.7c0,0.2-0.1,0.5-0.2,0.7c-0.1,0.2-0.3,0.4-0.6,0.5l0,0
				C114.8,192.1,114.5,192.2,114.1,192.2z M112.5,191.9h1.6c0.3,0,0.5-0.1,0.8-0.2c0.2-0.1,0.4-0.3,0.5-0.4c0.1-0.2,0.2-0.3,0.2-0.5
				c0-0.2-0.1-0.4-0.2-0.6c-0.1-0.2-0.3-0.3-0.5-0.4c-0.3-0.1-0.6-0.2-1-0.2h-1.3V191.9z M113.7,189.3h-1.4v-2.4h1.4
				c0.3,0,0.6,0.1,0.8,0.2c0.2,0.1,0.4,0.3,0.5,0.4c0.1,0.2,0.2,0.4,0.2,0.6c0,0.3-0.1,0.5-0.2,0.7c-0.2,0.2-0.3,0.3-0.5,0.4
				c-0.1,0-0.2,0.1-0.4,0.1C114,189.3,113.8,189.3,113.7,189.3z M112.5,189h1.1c0.2,0,0.3,0,0.4,0c0.1,0,0.2,0,0.3-0.1
				c0.1-0.1,0.3-0.2,0.4-0.3c0.1-0.1,0.2-0.3,0.2-0.5c0-0.2,0-0.3-0.1-0.5c-0.1-0.1-0.2-0.3-0.4-0.4c-0.2-0.1-0.4-0.1-0.7-0.1h-1.2
				V189z"/>
		</g>
		<g>
			<path class="st1" d="M122.1,192.5v-5.9h3.8v0.4h-3.4v2.3h2.7v0.4h-2.7v2.3h3.4v0.4H122.1z"/>
			<path class="st1" d="M126,192.6h-4.1v-6.1h4.1v0.7h-3.4v2.1h2.7v0.7h-2.7v2.1h3.4V192.6z M122.2,192.3h3.6v-0.2h-3.4v-2.6h2.7
				v-0.2h-2.7v-2.6h3.4v-0.2h-3.6V192.3z"/>
		</g>
		<g>
			<path class="st1" d="M135.5,192.5l-2.4-3h0.7c0.4,0,0.8-0.1,1.1-0.2c0.2-0.1,0.4-0.2,0.5-0.4c0.2-0.2,0.2-0.4,0.2-0.6
				c0-0.2-0.1-0.4-0.2-0.6c-0.1-0.2-0.3-0.3-0.5-0.5c-0.2-0.1-0.5-0.2-0.8-0.2h-1.6v5.5H132v-5.9h2.1c0.3,0,0.5,0,0.8,0.1
				c0.2,0.1,0.5,0.2,0.6,0.4c0.2,0.2,0.3,0.3,0.4,0.5c0.1,0.2,0.1,0.4,0.1,0.6c0,0.3-0.1,0.6-0.3,0.9c-0.2,0.3-0.4,0.5-0.7,0.6
				c-0.2,0.1-0.4,0.1-0.5,0.2c-0.2,0-0.4,0-0.6,0l2.1,2.6H135.5z"/>
			<path class="st1" d="M136.3,192.6h-0.9l-2.7-3.2h1c0.4,0,0.8-0.1,1-0.2c0.2-0.1,0.3-0.2,0.5-0.4c0.1-0.2,0.2-0.4,0.2-0.6
				c0-0.2-0.1-0.4-0.2-0.5c-0.1-0.2-0.3-0.3-0.5-0.4c-0.2-0.1-0.5-0.2-0.8-0.2h-1.5v5.5h-0.7v-6.1h2.2c0.3,0,0.6,0,0.8,0.1
				c0.3,0.1,0.5,0.2,0.7,0.4c0.2,0.2,0.3,0.4,0.4,0.6c0.1,0.2,0.2,0.4,0.2,0.7c0,0.4-0.1,0.7-0.3,1c-0.2,0.3-0.5,0.5-0.8,0.6
				c-0.2,0.1-0.4,0.1-0.6,0.2c-0.1,0-0.2,0-0.3,0L136.3,192.6z M135.6,192.3h0.2l-2.1-2.6h0.3c0.2,0,0.4,0,0.6,0
				c0.2,0,0.3-0.1,0.5-0.1c0.3-0.1,0.5-0.3,0.7-0.5c0.2-0.2,0.3-0.5,0.3-0.8c0-0.2,0-0.4-0.1-0.6c-0.1-0.2-0.2-0.4-0.4-0.5
				c-0.2-0.2-0.4-0.3-0.6-0.4c-0.2-0.1-0.5-0.1-0.7-0.1h-1.9v5.6h0.2v-5.5h1.8c0.3,0,0.6,0.1,0.9,0.2c0.3,0.1,0.5,0.3,0.6,0.5
				c0.1,0.2,0.2,0.4,0.2,0.7c0,0.3-0.1,0.5-0.3,0.7c-0.2,0.2-0.4,0.4-0.6,0.5c-0.3,0.1-0.7,0.2-1.1,0.2h-0.5L135.6,192.3z"/>
		</g>
		<g>
			<path class="st1" d="M142.7,191l-0.7,1.5h-0.5l2.8-6l2.6,6h-0.4l-0.7-1.5H142.7z M144.3,187.5l-1.4,3.1h2.8L144.3,187.5z"/>
			<path class="st1" d="M147.1,192.6h-0.7l-0.7-1.5h-3l-0.7,1.5h-0.7l3-6.4L147.1,192.6z M146.6,192.3h0.2l-2.4-5.5l-2.6,5.5h0.2
				l0.7-1.5h3.3L146.6,192.3z M145.8,190.7h-3.2l1.6-3.5L145.8,190.7z M143.1,190.4h2.4l-1.2-2.6L143.1,190.4z"/>
		</g>
		<g>
			<path class="st1" d="M157,186.6v0.4h-2.3v5.5h-0.4V187h-2.3v-0.4H157z"/>
			<path class="st1" d="M154.8,192.6h-0.7v-5.5h-2.3v-0.7h5.3v0.7h-2.3V192.6z M154.4,192.3h0.2v-5.5h2.3v-0.2h-4.8v0.2h2.3V192.3z"
				/>
		</g>
		<g>
			<path class="st1" d="M165.3,192.5c-0.3,0-0.6-0.1-0.9-0.2c-0.3-0.1-0.5-0.3-0.7-0.5c-0.2-0.2-0.4-0.4-0.5-0.7
				c-0.1-0.3-0.2-0.6-0.2-0.9v-3.7h0.4v3.7c0,0.3,0,0.5,0.1,0.7c0.1,0.2,0.2,0.4,0.4,0.6c0.2,0.2,0.4,0.3,0.6,0.4
				c0.2,0.1,0.5,0.1,0.7,0.1c0.2,0,0.5,0,0.7-0.1c0.2-0.1,0.4-0.2,0.6-0.4c0.2-0.2,0.3-0.4,0.4-0.6c0.1-0.2,0.1-0.5,0.1-0.7v-3.7
				h0.4v3.7c0,0.3-0.1,0.6-0.2,0.9c-0.1,0.3-0.3,0.5-0.5,0.7c-0.2,0.2-0.5,0.4-0.7,0.5C165.9,192.5,165.6,192.5,165.3,192.5z"/>
			<path class="st1" d="M165.3,192.7c-0.3,0-0.6-0.1-0.9-0.2c-0.3-0.1-0.5-0.3-0.8-0.5c-0.2-0.2-0.4-0.5-0.5-0.8
				c-0.1-0.3-0.2-0.6-0.2-0.9v-3.8h0.7v3.8c0,0.2,0,0.5,0.1,0.7c0.1,0.2,0.2,0.4,0.4,0.6c0.2,0.2,0.4,0.3,0.6,0.4
				c0.4,0.2,0.9,0.2,1.3,0c0.2-0.1,0.4-0.2,0.6-0.4c0.2-0.2,0.3-0.3,0.4-0.6c0.1-0.2,0.1-0.4,0.1-0.7v-3.8h0.7v3.8
				c0,0.3-0.1,0.6-0.2,0.9c-0.1,0.3-0.3,0.6-0.5,0.8c-0.2,0.2-0.5,0.4-0.8,0.5C165.9,192.6,165.6,192.7,165.3,192.7z M163.2,186.7
				v3.5c0,0.3,0.1,0.6,0.2,0.8c0.1,0.3,0.3,0.5,0.5,0.7c0.2,0.2,0.4,0.4,0.7,0.5c0.5,0.2,1.1,0.2,1.6,0c0.3-0.1,0.5-0.3,0.7-0.5
				c0.2-0.2,0.4-0.4,0.5-0.7c0.1-0.3,0.2-0.5,0.2-0.8v-3.5h-0.2v3.5c0,0.3-0.1,0.5-0.1,0.8s-0.2,0.5-0.4,0.6
				c-0.2,0.2-0.4,0.3-0.6,0.4c-0.5,0.2-1,0.2-1.5,0c-0.2-0.1-0.5-0.2-0.6-0.4c-0.2-0.2-0.3-0.4-0.4-0.6c-0.1-0.2-0.1-0.5-0.1-0.8
				v-3.5H163.2z"/>
		</g>
		<g>
			<path class="st1" d="M174.2,187.7v4.8h-0.4v-6l4.1,4.9v-4.8h0.4v6L174.2,187.7z"/>
			<path class="st1" d="M178.4,192.9l-4.1-4.9v4.6h-0.7v-6.4l4.1,4.9v-4.6h0.7V192.9z M174,192.3h0.2v-5l4.1,4.9v-5.5H178v5
				l-4.1-4.9V192.3z"/>
		</g>
		<g>
			<path class="st1" d="M189.3,192.5h-2.1c-0.5,0-1-0.1-1.5-0.4c-0.5-0.3-0.8-0.6-1.1-1.1c-0.3-0.5-0.4-1-0.4-1.5
				c0-0.5,0.1-1,0.4-1.5c0.3-0.5,0.6-0.8,1.1-1.1c0.5-0.3,0.9-0.4,1.5-0.4c0.4,0,0.8,0.1,1.2,0.3c0.4,0.2,0.7,0.4,1,0.7l-0.3,0.3
				c-0.2-0.3-0.5-0.5-0.9-0.6c-0.3-0.1-0.7-0.2-1-0.2c-0.5,0-0.9,0.1-1.3,0.3c-0.4,0.2-0.7,0.5-0.9,0.9c-0.2,0.4-0.3,0.8-0.3,1.3
				s0.1,0.9,0.3,1.3c0.2,0.4,0.5,0.7,0.9,0.9c0.4,0.2,0.8,0.3,1.3,0.3h1.7v-2.1h-1.9v-0.4h2.4V192.5z"/>
			<path class="st1" d="M189.4,192.6h-2.3c-0.6,0-1.1-0.1-1.5-0.4c-0.5-0.3-0.8-0.7-1.1-1.1c-0.3-0.5-0.4-1-0.4-1.6
				c0-0.6,0.1-1.1,0.4-1.6c0.3-0.5,0.7-0.9,1.1-1.1c0.5-0.3,1-0.4,1.6-0.4c0.4,0,0.8,0.1,1.2,0.3c0.4,0.2,0.7,0.4,1,0.7l0.1,0.1
				l-0.5,0.5l-0.1-0.1c-0.2-0.2-0.5-0.4-0.8-0.6c-0.7-0.3-1.5-0.3-2.2,0.1c-0.4,0.2-0.7,0.5-0.9,0.9c-0.2,0.4-0.3,0.8-0.3,1.2
				c0,0.4,0.1,0.9,0.3,1.2c0.2,0.4,0.5,0.7,0.9,0.9c0.4,0.2,0.8,0.3,1.2,0.3h1.6v-1.9h-1.9v-0.7h2.6V192.6z M187.2,186.6
				c-0.5,0-1,0.1-1.4,0.4c-0.4,0.3-0.8,0.6-1,1c-0.3,0.4-0.4,0.9-0.4,1.4c0,0.5,0.1,1,0.4,1.4c0.3,0.4,0.6,0.8,1,1
				c0.4,0.3,0.9,0.4,1.4,0.4h2v-2.7h-2.1v0.2h1.9v2.4h-1.8c-0.5,0-0.9-0.1-1.3-0.4c-0.4-0.2-0.7-0.6-1-1c-0.2-0.4-0.4-0.9-0.4-1.3
				s0.1-0.9,0.4-1.3c0.2-0.4,0.6-0.7,1-1c0.7-0.4,1.6-0.5,2.4-0.1c0.3,0.1,0.6,0.3,0.8,0.5l0.1-0.1c-0.2-0.2-0.5-0.4-0.9-0.6
				C188,186.7,187.6,186.6,187.2,186.6z"/>
		</g>
	</g>
	<g>
		<polygon class="st1" points="171.2,133.5 171.2,32.2 114.4,113.2 56.8,32 56.8,133.5 48,133.5 48,3.8 114.4,97.6 180,3.8 
			180,133.5 		"/>
	</g>
	<g>
		<polygon class="st2" points="59.8,0 59.8,15.4 114.4,92.4 119.8,84.7 		"/>
	</g>
	<g>
		<polygon class="st2" points="168.2,41.7 123.5,105.5 129,113.2 168.2,57.2 		"/>
	</g>
	<g>
		<polygon class="st2" points="59.8,41.4 59.8,133.5 68.5,133.5 68.5,53.7 		"/>
	</g>
	<g>
		<polygon class="st2" points="183,16.3 183,133.5 191.8,133.5 191.8,3.8 		"/>
	</g>
	<g>
		<g>
			<rect x="196.2" y="189.1" class="st3" width="43.8" height="1"/>
		</g>
		<g>
			<rect y="189.1" class="st3" width="43.8" height="1"/>
		</g>
	</g>
	<g>
		<g>
			<path class="st1" d="M18.6,174.2V159L10,171.2L1.3,159v15.3H0v-19.5l10,14.1l9.9-14.1v19.5H18.6z"/>
		</g>
		<g>
			<path class="st1" d="M24.5,174.2v-19.3h1.3v19.3H24.5z"/>
		</g>
		<g>
			<path class="st1" d="M39.8,174.5c-1.8,0-3.4-0.4-4.9-1.3c-1.5-0.9-2.7-2.1-3.6-3.6c-0.9-1.5-1.3-3.2-1.3-4.9
				c0-1.8,0.4-3.4,1.3-4.9c0.9-1.5,2.1-2.7,3.6-3.6c1.5-0.9,3.1-1.3,4.9-1.3c1.4,0,2.7,0.3,3.9,0.8c1.3,0.6,2.4,1.4,3.3,2.4l-1,0.9
				c-0.8-0.9-1.7-1.6-2.8-2.1c-1.1-0.5-2.2-0.7-3.4-0.7c-1.5,0-2.9,0.4-4.2,1.1c-1.3,0.8-2.3,1.8-3.1,3.1c-0.8,1.3-1.1,2.7-1.1,4.3
				c0,1.5,0.4,3,1.1,4.3c0.8,1.3,1.8,2.3,3.1,3.1c1.3,0.8,2.7,1.1,4.2,1.1c1.3,0,2.5-0.3,3.6-0.8c1.1-0.6,2.1-1.3,2.9-2.3l1.1,0.8
				c-0.9,1.2-2.1,2.1-3.4,2.7C42.7,174.1,41.3,174.5,39.8,174.5z"/>
		</g>
		<g>
			<path class="st1" d="M63.5,165.3H52.1v9h-1.4v-10.3v-9h1.4v9h11.4v-9h1.3v9.6v9.7h-1.3V165.3z"/>
		</g>
		<g>
			<path class="st1" d="M71.9,169.3l-2.3,4.9h-1.5l9.1-19.5l8.6,19.5h-1.5l-2.2-4.9H71.9z M77.2,158l-4.6,10h9.1L77.2,158z"/>
		</g>
		<g>
			<path class="st1" d="M89.1,174.2v-19.3h12.5v1.4H90.4v7.6h8.7v1.4h-8.7v7.6h11.2v1.4H89.1z"/>
		</g>
		<g>
			<path class="st1" d="M105.6,174.2v-19.3h1.3v18h10.8v1.3H105.6z"/>
		</g>
		<g>
			<path class="st2" d="M149,174.2V159l-8.6,12.2l-8.7-12.2v15.3h-1.3v-19.5l10,14.1l9.9-14.1v19.5H149z"/>
		</g>
		<g>
			<path class="st2" d="M162.4,174.5c-1,0-1.9-0.2-2.8-0.6c-0.9-0.4-1.7-0.9-2.4-1.6c-0.7-0.7-1.2-1.5-1.6-2.4
				c-0.4-0.9-0.5-1.9-0.5-2.9v-12h1.3v12c0,0.8,0.2,1.6,0.5,2.4c0.3,0.8,0.7,1.4,1.3,2c0.6,0.6,1.2,1,2,1.3c0.7,0.3,1.5,0.5,2.3,0.5
				c0.8,0,1.6-0.2,2.3-0.5c0.7-0.3,1.4-0.7,2-1.3c0.6-0.6,1-1.2,1.3-2c0.3-0.8,0.5-1.5,0.5-2.4v-12h1.3v12c0,1-0.2,2-0.5,2.9
				c-0.4,0.9-0.9,1.7-1.6,2.4c-0.7,0.7-1.5,1.3-2.4,1.6C164.4,174.3,163.4,174.5,162.4,174.5z"/>
		</g>
		<g>
			<path class="st2" d="M181.6,166.1l7.6-11.2h1.6l-8.6,12.6v6.7H181v-6.7l-8.6-12.6h1.6L181.6,166.1z"/>
		</g>
		<g>
			<path class="st2" d="M205.2,174.2l-8-9.7h2.4c1.5,0,2.7-0.2,3.6-0.6c0.7-0.3,1.3-0.8,1.8-1.4c0.5-0.6,0.7-1.4,0.7-2.1
				c0-0.7-0.2-1.4-0.6-2s-1-1.1-1.8-1.5c-0.8-0.4-1.7-0.6-2.7-0.6h-5.4v18h-1.3v-19.3h6.7c0.9,0,1.8,0.1,2.6,0.4
				c0.8,0.3,1.5,0.7,2.1,1.2c0.6,0.5,1,1.1,1.3,1.8c0.3,0.7,0.5,1.3,0.5,2c0,1.1-0.3,2.1-1,2.9c-0.7,0.9-1.4,1.5-2.3,1.9
				c-0.6,0.3-1.2,0.5-1.8,0.5c-0.6,0.1-1.2,0.1-1.9,0.1l7,8.5H205.2z"/>
		</g>
		<g>
			<path class="st2" d="M210.7,174.2v-19.3h12.5v1.4h-11.2v7.6h8.7v1.4h-8.7v7.6h11.2v1.4H210.7z"/>
		</g>
		<g>
			<path class="st2" d="M239.2,166.8c0.5,0.7,0.8,1.5,0.8,2.4c0,0.7-0.2,1.4-0.5,2.1c-0.4,0.7-0.9,1.2-1.5,1.7c-1.4,1-3,1.5-4.8,1.5
				c-0.9,0-1.8-0.1-2.6-0.4c-0.8-0.3-1.6-0.6-2.2-1.1c-1.1-0.8-1.8-1.9-2-3.1l1.3-0.7c0.1,1.1,0.6,2,1.6,2.7
				c0.5,0.4,1.1,0.7,1.8,0.9c0.7,0.2,1.4,0.3,2.2,0.3c1.6,0,2.9-0.4,4-1.2c1-0.8,1.6-1.7,1.6-2.7c0-0.6-0.2-1.2-0.6-1.7
				c-0.4-0.5-0.9-1-1.6-1.4c-0.7-0.3-1.8-0.6-3.5-0.8c-0.1,0-0.6-0.1-1.5-0.2c-0.9-0.1-1.6-0.4-2.2-0.7c-1-0.5-1.7-1.1-2.3-1.9
				c-0.6-0.8-0.8-1.6-0.8-2.5c0-0.7,0.2-1.4,0.5-2.1c0.4-0.6,0.9-1.2,1.6-1.7c0.7-0.5,1.4-0.8,2.2-1.1c0.8-0.3,1.7-0.4,2.6-0.4
				c1.8,0,3.5,0.5,4.8,1.5c1.1,0.9,1.8,1.9,2,3l-1.3,0.7c0-0.5-0.2-1-0.4-1.4c-0.3-0.5-0.6-0.9-1.1-1.2c-0.5-0.4-1.1-0.7-1.8-0.9
				c-0.7-0.2-1.4-0.3-2.2-0.3c-0.8,0-1.5,0.1-2.2,0.3s-1.3,0.5-1.8,0.9c-0.5,0.4-0.9,0.8-1.2,1.3c-0.3,0.5-0.4,0.9-0.4,1.4
				c0,0.6,0.2,1.2,0.7,1.8c0.5,0.6,1,1.1,1.7,1.4c0.4,0.2,0.9,0.3,1.4,0.4c0.5,0.1,1.2,0.2,1.9,0.3c0.1,0,0.5,0.1,1,0.1
				c0.6,0.1,1.1,0.2,1.6,0.3c0.5,0.1,0.9,0.3,1.3,0.5C238,165.4,238.7,166,239.2,166.8z"/>
		</g>
	</g>
</g>
<g id="Sicherheitsabstand" class="st4">
</g>
</svg>
