<?xml version="1.0" encoding="utf-8"?>
<!-- Generator: Adobe Illustrator 27.0.0, SVG Export Plug-In . SVG Version: 6.00 Build 0)  -->
<svg version="1.1" id="Ebene_1" xmlns="http://www.w3.org/2000/svg" xmlns:xlink="http://www.w3.org/1999/xlink" x="0px" y="0px"
	 viewBox="0 0 800 600" enable-background="new 0 0 800 600" xml:space="preserve">
<g>
	<g>
		<g>
			<path fill="#FFFFFF" d="M394.701,299.565c0-82.938-67.235-150.172-150.172-150.172c-82.938,0-150.173,67.234-150.173,150.172
				c0,82.938,67.235,150.172,150.173,150.172c20.865,0,40.735-4.259,58.792-11.949c17.534,11.103,37.506,18.703,58.954,21.743
				c-9.887-13.004-17.683-27.678-22.936-43.511C373.122,388.482,394.701,346.546,394.701,299.565z"/>
		</g>
		<path fill="#701932" d="M405.52,170.089c-54.059-57.818-143.08-63.361-203.753-14.509c13.554-4.02,27.904-6.188,42.763-6.188
			c82.938,0,150.172,67.234,150.172,150.172c0,46.981-21.579,88.918-55.362,116.454c0.039,0.117,0.084,0.232,0.124,0.349
			c21.329-6.459,41.545-17.774,58.924-34.023C458.97,325.702,462.164,230.671,405.52,170.089z"/>
		<g>
			<path fill="#73A7CA" d="M445.209,288.003c-3.564,34.821-19.245,68.559-46.821,94.342c-17.379,16.249-37.595,27.564-58.924,34.023
				c-0.04-0.117-0.085-0.231-0.124-0.349c5.253,15.833,13.048,30.507,22.936,43.511c-21.449-3.04-41.421-10.64-58.954-21.743
				c-18.057,7.69-37.926,11.949-58.792,11.949c-18.745,0-36.684-3.445-53.23-9.719c10.295,11.933,22.654,22.44,36.942,30.944
				c71.27,42.417,163.432,19.026,205.849-52.245C458.574,377.577,461.129,329.478,445.209,288.003z"/>
		</g>
		<path fill="#F59C00" d="M201.767,155.58c25.889-20.845,56.938-31.788,88.23-32.99c-16.543-7.921-34.812-12.946-54.218-14.319
			c-82.731-5.854-154.544,56.466-160.398,139.198c-2.446,34.576,7.022,67.24,24.903,93.984c-3.854-13.296-5.927-27.349-5.927-41.888
			C94.356,231.485,139.663,173.997,201.767,155.58z"/>
	</g>
	<g>
		<path fill="#181715" d="M514.778,263.906c0,1.209-0.172,2.285-0.515,3.227c-0.342,0.942-0.831,1.737-1.466,2.381
			c-0.636,0.647-1.404,1.135-2.305,1.468c-0.902,0.333-1.911,0.499-3.028,0.499c-1.014,0-1.949-0.157-2.803-0.475
			c-0.855-0.318-1.593-0.786-2.213-1.406c-0.62-0.62-1.101-1.388-1.444-2.305c-0.344-0.916-0.515-1.974-0.515-3.172v-12.476
			c0-0.061,0.016-0.117,0.047-0.168c0.031-0.052,0.083-0.094,0.161-0.123c0.076-0.033,0.172-0.058,0.284-0.078
			c0.114-0.02,0.262-0.031,0.447-0.031c0.174,0,0.322,0.011,0.445,0.031c0.123,0.02,0.221,0.045,0.293,0.078
			c0.07,0.029,0.123,0.07,0.154,0.123c0.031,0.051,0.045,0.107,0.045,0.168v12.169c0,0.994,0.121,1.864,0.362,2.612
			c0.24,0.748,0.589,1.37,1.045,1.867s1.009,0.87,1.659,1.121c0.651,0.251,1.385,0.378,2.205,0.378c0.83,0,1.569-0.121,2.22-0.362
			c0.651-0.24,1.2-0.607,1.652-1.099c0.45-0.492,0.795-1.104,1.036-1.836c0.242-0.732,0.362-1.591,0.362-2.574v-12.275
			c0-0.061,0.016-0.117,0.047-0.168c0.031-0.052,0.081-0.094,0.154-0.123c0.07-0.033,0.168-0.058,0.291-0.078
			c0.123-0.02,0.271-0.031,0.447-0.031c0.174,0,0.322,0.011,0.445,0.031c0.123,0.02,0.221,0.045,0.293,0.078
			c0.07,0.029,0.123,0.07,0.154,0.123c0.031,0.051,0.045,0.107,0.045,0.168V263.906z"/>
		<path fill="#181715" d="M532.259,270.913c0,0.061-0.014,0.117-0.045,0.17c-0.031,0.051-0.079,0.09-0.146,0.123
			c-0.067,0.029-0.159,0.056-0.277,0.076s-0.264,0.031-0.438,0.031c-0.184,0-0.336-0.011-0.454-0.031
			c-0.118-0.02-0.21-0.047-0.277-0.076c-0.067-0.033-0.116-0.072-0.146-0.123c-0.031-0.052-0.045-0.108-0.045-0.17v-8.25
			c0-0.86-0.067-1.56-0.201-2.099c-0.132-0.537-0.333-0.998-0.598-1.383c-0.268-0.383-0.607-0.681-1.021-0.891
			c-0.416-0.21-0.9-0.315-1.453-0.315c-0.707,0-1.414,0.251-2.12,0.754c-0.707,0.501-1.45,1.238-2.227,2.212v9.971
			c0,0.061-0.016,0.117-0.047,0.17c-0.031,0.051-0.079,0.09-0.145,0.123c-0.067,0.029-0.159,0.056-0.277,0.076
			c-0.119,0.02-0.269,0.031-0.454,0.031c-0.175,0-0.32-0.011-0.438-0.031c-0.119-0.02-0.213-0.047-0.286-0.076
			c-0.07-0.033-0.119-0.072-0.145-0.123c-0.027-0.052-0.04-0.108-0.04-0.17v-13.904c0-0.061,0.013-0.119,0.04-0.17
			c0.025-0.051,0.074-0.094,0.145-0.13c0.072-0.036,0.163-0.061,0.269-0.078c0.108-0.014,0.248-0.024,0.423-0.024
			c0.173,0,0.316,0.009,0.43,0.024c0.112,0.016,0.199,0.042,0.26,0.078c0.061,0.036,0.105,0.079,0.132,0.13
			c0.025,0.051,0.038,0.108,0.038,0.17v1.967c0.799-0.893,1.582-1.536,2.35-1.938c0.768-0.398,1.531-0.598,2.29-0.598
			c0.911,0,1.679,0.154,2.305,0.461c0.624,0.307,1.13,0.723,1.513,1.244c0.385,0.524,0.661,1.133,0.83,1.829
			c0.17,0.696,0.253,1.536,0.253,2.52V270.913z"/>
		<path fill="#181715" d="M547.817,270.913c0,0.103-0.033,0.183-0.099,0.239c-0.067,0.056-0.154,0.098-0.26,0.123
			c-0.108,0.025-0.255,0.038-0.439,0.038c-0.173,0-0.322-0.013-0.445-0.038c-0.123-0.025-0.219-0.067-0.284-0.123
			c-0.067-0.056-0.101-0.136-0.101-0.239v-1.551c-0.624,0.676-1.312,1.197-2.066,1.565c-0.752,0.369-1.535,0.553-2.343,0.553
			c-0.729,0-1.381-0.094-1.959-0.284c-0.578-0.19-1.068-0.461-1.468-0.813c-0.4-0.354-0.707-0.781-0.922-1.283
			c-0.215-0.503-0.322-1.065-0.322-1.69c0-0.768,0.159-1.437,0.475-2.005c0.318-0.569,0.768-1.043,1.352-1.423
			c0.584-0.378,1.285-0.662,2.106-0.851c0.819-0.19,1.73-0.284,2.735-0.284h2.212v-1.2c0-0.593-0.061-1.119-0.184-1.574
			c-0.123-0.456-0.324-0.837-0.6-1.144c-0.277-0.307-0.634-0.539-1.076-0.691c-0.439-0.155-0.978-0.231-1.612-0.231
			c-0.615,0-1.168,0.074-1.659,0.222c-0.492,0.148-0.922,0.316-1.291,0.501c-0.369,0.184-0.674,0.351-0.915,0.499
			c-0.24,0.148-0.412,0.222-0.515,0.222c-0.061,0-0.117-0.011-0.168-0.031c-0.052-0.02-0.096-0.06-0.13-0.116
			c-0.036-0.056-0.061-0.128-0.078-0.215c-0.015-0.087-0.024-0.192-0.024-0.314c0-0.215,0.016-0.387,0.047-0.515
			c0.031-0.128,0.11-0.255,0.239-0.383c0.126-0.128,0.354-0.28,0.683-0.454c0.327-0.174,0.703-0.336,1.13-0.484
			c0.425-0.148,0.882-0.269,1.374-0.36c0.492-0.094,0.983-0.139,1.475-0.139c0.953,0,1.757,0.116,2.413,0.345
			c0.654,0.231,1.186,0.56,1.591,0.991c0.403,0.43,0.692,0.962,0.868,1.591c0.174,0.631,0.26,1.345,0.26,2.144V270.913z
			 M545.99,264.351h-2.536c-0.737,0-1.383,0.067-1.936,0.201s-1.014,0.327-1.383,0.584c-0.369,0.257-0.642,0.564-0.821,0.922
			c-0.181,0.358-0.269,0.768-0.269,1.229c0,0.799,0.253,1.437,0.761,1.912c0.506,0.477,1.22,0.716,2.142,0.716
			c0.729,0,1.406-0.188,2.037-0.562c0.629-0.374,1.298-0.949,2.005-1.728V264.351z"/>
		<path fill="#181715" d="M565.9,263.784c0,1.188-0.128,2.256-0.385,3.203c-0.255,0.947-0.638,1.755-1.144,2.42
			c-0.508,0.665-1.132,1.179-1.875,1.536c-0.743,0.358-1.596,0.537-2.558,0.537c-0.43,0-0.828-0.043-1.191-0.13
			c-0.363-0.087-0.719-0.228-1.068-0.423c-0.347-0.193-0.703-0.439-1.068-0.737c-0.363-0.296-0.754-0.654-1.175-1.074v1.797
			c0,0.072-0.015,0.134-0.045,0.184c-0.031,0.051-0.083,0.092-0.154,0.123c-0.072,0.031-0.159,0.054-0.262,0.069
			c-0.101,0.016-0.23,0.024-0.383,0.024s-0.286-0.007-0.392-0.024c-0.108-0.014-0.195-0.038-0.262-0.069
			c-0.065-0.031-0.112-0.072-0.137-0.123c-0.025-0.051-0.038-0.112-0.038-0.184v-20.712c0-0.061,0.013-0.118,0.038-0.17
			c0.025-0.051,0.074-0.094,0.146-0.13c0.07-0.036,0.166-0.061,0.284-0.076c0.118-0.016,0.264-0.023,0.438-0.023
			c0.184,0,0.336,0.007,0.454,0.023c0.117,0.015,0.21,0.04,0.277,0.076c0.067,0.036,0.116,0.079,0.146,0.13
			c0.031,0.052,0.045,0.109,0.045,0.17v8.68c0.441-0.459,0.86-0.846,1.26-1.159c0.399-0.313,0.79-0.564,1.168-0.754
			c0.38-0.19,0.756-0.325,1.13-0.407c0.374-0.081,0.761-0.123,1.161-0.123c1.003,0,1.862,0.195,2.572,0.584
			c0.712,0.389,1.291,0.916,1.737,1.583c0.445,0.665,0.77,1.443,0.976,2.335C565.797,261.831,565.9,262.78,565.9,263.784z
			 M563.979,264.076c0-0.779-0.061-1.533-0.184-2.26c-0.123-0.727-0.333-1.372-0.629-1.936c-0.298-0.564-0.692-1.016-1.184-1.359
			c-0.492-0.343-1.106-0.515-1.844-0.515c-0.358,0-0.714,0.051-1.068,0.154c-0.353,0.103-0.714,0.271-1.083,0.508
			c-0.369,0.235-0.75,0.539-1.144,0.913c-0.394,0.374-0.812,0.837-1.253,1.39v6.055c0.768,0.931,1.509,1.645,2.22,2.142
			c0.712,0.497,1.453,0.747,2.222,0.747c0.707,0,1.31-0.172,1.813-0.515c0.501-0.344,0.911-0.792,1.229-1.345
			c0.316-0.553,0.548-1.178,0.69-1.874C563.908,265.484,563.979,264.781,563.979,264.076z"/>
		<path fill="#181715" d="M582.451,270.913c0,0.061-0.015,0.117-0.045,0.17c-0.031,0.051-0.08,0.09-0.146,0.123
			c-0.067,0.029-0.159,0.056-0.276,0.076c-0.117,0.02-0.264,0.031-0.437,0.031c-0.184,0-0.336-0.011-0.454-0.031
			c-0.118-0.02-0.21-0.047-0.277-0.076c-0.067-0.033-0.116-0.072-0.146-0.123c-0.031-0.052-0.045-0.108-0.045-0.17v-8.25
			c0-0.86-0.067-1.56-0.201-2.099c-0.132-0.537-0.333-0.998-0.598-1.383c-0.268-0.383-0.607-0.681-1.021-0.891
			c-0.416-0.21-0.9-0.315-1.453-0.315c-0.707,0-1.413,0.251-2.12,0.754c-0.707,0.501-1.45,1.238-2.227,2.212v9.971
			c0,0.061-0.016,0.117-0.047,0.17c-0.031,0.051-0.08,0.09-0.145,0.123c-0.067,0.029-0.159,0.056-0.277,0.076
			c-0.119,0.02-0.269,0.031-0.454,0.031c-0.175,0-0.32-0.011-0.437-0.031c-0.119-0.02-0.213-0.047-0.286-0.076
			c-0.07-0.033-0.119-0.072-0.145-0.123c-0.027-0.052-0.04-0.108-0.04-0.17v-20.712c0-0.061,0.013-0.118,0.04-0.17
			c0.025-0.051,0.074-0.094,0.145-0.13c0.072-0.036,0.166-0.061,0.286-0.076c0.117-0.016,0.262-0.023,0.437-0.023
			c0.184,0,0.334,0.007,0.454,0.023c0.118,0.015,0.21,0.04,0.277,0.076c0.065,0.036,0.114,0.079,0.145,0.13
			c0.031,0.052,0.047,0.109,0.047,0.17v8.68c0.757-0.839,1.515-1.457,2.274-1.851c0.757-0.394,1.515-0.591,2.274-0.591
			c0.911,0,1.679,0.154,2.305,0.461c0.624,0.307,1.13,0.723,1.513,1.244c0.385,0.524,0.662,1.133,0.83,1.829
			c0.17,0.696,0.253,1.536,0.253,2.52V270.913z"/>
		<path fill="#181715" d="M598.009,270.913c0,0.103-0.034,0.183-0.101,0.239c-0.065,0.056-0.154,0.098-0.26,0.123
			c-0.108,0.025-0.253,0.038-0.437,0.038c-0.175,0-0.324-0.013-0.447-0.038c-0.123-0.025-0.217-0.067-0.284-0.123
			c-0.067-0.056-0.099-0.136-0.099-0.239v-1.551c-0.626,0.676-1.314,1.197-2.068,1.565c-0.752,0.369-1.533,0.553-2.343,0.553
			c-0.727,0-1.379-0.094-1.959-0.284c-0.578-0.19-1.066-0.461-1.466-0.813c-0.399-0.354-0.707-0.781-0.922-1.283
			c-0.215-0.503-0.323-1.065-0.323-1.69c0-0.768,0.159-1.437,0.477-2.005c0.316-0.569,0.768-1.043,1.352-1.423
			c0.584-0.378,1.285-0.662,2.104-0.851c0.821-0.19,1.732-0.284,2.735-0.284h2.213v-1.2c0-0.593-0.061-1.119-0.184-1.574
			c-0.123-0.456-0.322-0.837-0.598-1.144c-0.277-0.307-0.636-0.539-1.075-0.691c-0.441-0.155-0.978-0.231-1.614-0.231
			c-0.615,0-1.168,0.074-1.659,0.222c-0.492,0.148-0.922,0.316-1.291,0.501c-0.369,0.184-0.672,0.351-0.915,0.499
			c-0.24,0.148-0.412,0.222-0.513,0.222c-0.061,0-0.118-0.011-0.17-0.031c-0.051-0.02-0.094-0.06-0.13-0.116
			c-0.036-0.056-0.061-0.128-0.078-0.215c-0.014-0.087-0.022-0.192-0.022-0.314c0-0.215,0.014-0.387,0.045-0.515
			c0.031-0.128,0.11-0.255,0.239-0.383c0.128-0.128,0.356-0.28,0.683-0.454c0.329-0.174,0.705-0.336,1.13-0.484
			c0.425-0.148,0.884-0.269,1.375-0.36c0.492-0.094,0.983-0.139,1.475-0.139c0.953,0,1.757,0.116,2.411,0.345
			c0.656,0.231,1.186,0.56,1.591,0.991s0.694,0.962,0.868,1.591c0.175,0.631,0.262,1.345,0.262,2.144V270.913z M596.18,264.351
			h-2.534c-0.737,0-1.383,0.067-1.936,0.201c-0.553,0.134-1.014,0.327-1.383,0.584c-0.369,0.257-0.644,0.564-0.822,0.922
			c-0.179,0.358-0.269,0.768-0.269,1.229c0,0.799,0.253,1.437,0.761,1.912c0.506,0.477,1.222,0.716,2.144,0.716
			c0.727,0,1.405-0.188,2.035-0.562c0.629-0.374,1.298-0.949,2.005-1.728V264.351z M591.74,252.613c0,0.472-0.083,0.79-0.246,0.955
			c-0.164,0.163-0.466,0.246-0.907,0.246c-0.439,0-0.739-0.079-0.898-0.239c-0.159-0.159-0.239-0.474-0.239-0.945
			c0-0.481,0.083-0.804,0.246-0.967c0.164-0.164,0.461-0.246,0.891-0.246c0.452,0,0.756,0.081,0.915,0.246
			C591.661,251.824,591.74,252.143,591.74,252.613z M596.872,252.613c0,0.472-0.083,0.79-0.246,0.955
			c-0.164,0.163-0.466,0.246-0.907,0.246c-0.439,0-0.739-0.079-0.898-0.239c-0.159-0.159-0.239-0.474-0.239-0.945
			c0-0.481,0.083-0.804,0.246-0.967c0.164-0.164,0.461-0.246,0.891-0.246c0.452,0,0.755,0.081,0.915,0.246
			C596.792,251.824,596.872,252.143,596.872,252.613z"/>
		<path fill="#181715" d="M615.232,270.913c0,0.061-0.016,0.117-0.047,0.17c-0.031,0.051-0.079,0.09-0.146,0.123
			c-0.065,0.029-0.157,0.056-0.277,0.076c-0.118,0.02-0.262,0.031-0.438,0.031c-0.184,0-0.334-0.011-0.454-0.031
			c-0.117-0.02-0.21-0.047-0.277-0.076c-0.065-0.033-0.114-0.072-0.145-0.123c-0.031-0.052-0.047-0.108-0.047-0.17v-8.25
			c0-0.86-0.067-1.56-0.199-2.099c-0.134-0.537-0.332-0.998-0.6-1.383c-0.266-0.383-0.607-0.681-1.021-0.891
			c-0.416-0.21-0.898-0.315-1.451-0.315c-0.707,0-1.414,0.251-2.12,0.754c-0.707,0.501-1.45,1.238-2.229,2.212v9.971
			c0,0.061-0.014,0.117-0.045,0.17c-0.031,0.051-0.08,0.09-0.146,0.123c-0.067,0.029-0.159,0.056-0.277,0.076
			c-0.118,0.02-0.269,0.031-0.454,0.031c-0.174,0-0.32-0.011-0.438-0.031c-0.117-0.02-0.213-0.047-0.284-0.076
			c-0.072-0.033-0.121-0.072-0.146-0.123c-0.025-0.052-0.038-0.108-0.038-0.17v-13.904c0-0.061,0.013-0.119,0.038-0.17
			c0.025-0.051,0.074-0.094,0.146-0.13c0.07-0.036,0.161-0.061,0.268-0.078c0.108-0.014,0.25-0.024,0.423-0.024
			c0.175,0,0.318,0.009,0.43,0.024c0.114,0.016,0.201,0.042,0.262,0.078c0.061,0.036,0.105,0.079,0.13,0.13
			c0.025,0.051,0.038,0.108,0.038,0.17v1.967c0.799-0.893,1.583-1.536,2.352-1.938c0.768-0.398,1.531-0.598,2.288-0.598
			c0.913,0,1.681,0.154,2.305,0.461c0.625,0.307,1.13,0.723,1.513,1.244c0.385,0.524,0.661,1.133,0.83,1.829
			c0.17,0.696,0.255,1.536,0.255,2.52V270.913z"/>
		<path fill="#181715" d="M632.532,257.468c0,0.287-0.045,0.488-0.137,0.6c-0.092,0.112-0.21,0.17-0.354,0.17h-2.196
			c0.43,0.439,0.728,0.918,0.898,1.435c0.168,0.517,0.253,1.063,0.253,1.638c0,0.788-0.125,1.49-0.376,2.104
			c-0.251,0.615-0.607,1.135-1.068,1.56c-0.461,0.425-1.009,0.75-1.643,0.974c-0.636,0.226-1.338,0.34-2.106,0.34
			c-0.624,0-1.218-0.089-1.782-0.262c-0.562-0.174-1.003-0.389-1.321-0.645c-0.204,0.204-0.374,0.441-0.506,0.707
			c-0.134,0.266-0.201,0.573-0.201,0.922c0,0.389,0.188,0.718,0.56,0.983c0.374,0.266,0.859,0.41,1.453,0.43l3.763,0.154
			c0.636,0.02,1.233,0.108,1.789,0.26c0.559,0.155,1.049,0.383,1.468,0.685c0.421,0.302,0.754,0.672,1,1.114
			c0.246,0.441,0.369,0.958,0.369,1.553c0,0.615-0.127,1.202-0.378,1.766c-0.249,0.564-0.64,1.057-1.168,1.482
			c-0.526,0.425-1.2,0.763-2.019,1.014c-0.821,0.251-1.799,0.376-2.936,0.376c-1.084,0-2.01-0.094-2.773-0.284
			c-0.763-0.19-1.388-0.45-1.875-0.783c-0.486-0.333-0.84-0.725-1.061-1.175c-0.219-0.452-0.329-0.938-0.329-1.461
			c0-0.358,0.04-0.696,0.123-1.014c0.081-0.318,0.206-0.62,0.376-0.906c0.168-0.287,0.38-0.564,0.629-0.831
			c0.251-0.266,0.541-0.537,0.87-0.813c-0.522-0.266-0.907-0.589-1.153-0.969c-0.246-0.378-0.369-0.783-0.369-1.213
			c0-0.634,0.123-1.197,0.369-1.683c0.246-0.486,0.544-0.924,0.891-1.312c-0.296-0.39-0.528-0.815-0.691-1.276
			c-0.164-0.461-0.246-1.014-0.246-1.659c0-0.779,0.128-1.477,0.383-2.097c0.257-0.62,0.613-1.146,1.068-1.576
			c0.456-0.43,1.001-0.759,1.636-0.991c0.636-0.23,1.332-0.345,2.09-0.345c0.4,0,0.776,0.023,1.13,0.069
			c0.352,0.047,0.678,0.105,0.976,0.177h4.101c0.175,0,0.3,0.067,0.376,0.201C632.494,257.018,632.532,257.213,632.532,257.468z
			 M630.566,272.295c0-0.676-0.273-1.193-0.822-1.553c-0.548-0.358-1.282-0.553-2.203-0.582l-4.042-0.139
			c-0.369,0.287-0.671,0.559-0.906,0.815c-0.237,0.255-0.423,0.504-0.562,0.745c-0.137,0.24-0.231,0.475-0.284,0.707
			c-0.051,0.23-0.076,0.463-0.076,0.7c0,0.757,0.381,1.33,1.144,1.721c0.763,0.389,1.826,0.582,3.189,0.582
			c0.86,0,1.58-0.083,2.158-0.253c0.578-0.168,1.047-0.39,1.406-0.669c0.358-0.275,0.615-0.593,0.768-0.951
			C630.49,273.058,630.566,272.684,630.566,272.295z M629.107,261.34c0-1.054-0.289-1.878-0.869-2.473
			c-0.578-0.595-1.399-0.891-2.466-0.891c-0.542,0-1.019,0.092-1.428,0.277c-0.41,0.184-0.748,0.436-1.014,0.752
			c-0.268,0.318-0.466,0.687-0.6,1.106c-0.132,0.421-0.199,0.866-0.199,1.338c0,1.025,0.289,1.831,0.868,2.42
			c0.578,0.589,1.39,0.884,2.435,0.884c0.553,0,1.038-0.094,1.452-0.278c0.416-0.184,0.756-0.432,1.023-0.745
			c0.266-0.313,0.466-0.676,0.598-1.09C629.04,262.224,629.107,261.792,629.107,261.34z"/>
		<path fill="#181715" d="M639.181,252.322c0,0.492-0.087,0.824-0.262,1c-0.174,0.174-0.492,0.26-0.953,0.26
			c-0.45,0-0.759-0.085-0.929-0.253c-0.168-0.17-0.253-0.499-0.253-0.991c0-0.492,0.087-0.826,0.26-1
			c0.175-0.174,0.492-0.262,0.953-0.262c0.452,0,0.761,0.085,0.931,0.255C639.096,251.499,639.181,251.83,639.181,252.322z
			 M638.904,270.913c0,0.061-0.016,0.117-0.047,0.17c-0.031,0.051-0.079,0.09-0.145,0.123c-0.067,0.029-0.159,0.056-0.277,0.076
			c-0.119,0.02-0.269,0.031-0.454,0.031c-0.175,0-0.32-0.011-0.437-0.031c-0.119-0.02-0.213-0.047-0.286-0.076
			c-0.07-0.033-0.119-0.072-0.145-0.123c-0.027-0.052-0.04-0.108-0.04-0.17v-13.904c0-0.061,0.013-0.119,0.04-0.17
			c0.025-0.051,0.074-0.094,0.145-0.13c0.072-0.036,0.166-0.061,0.286-0.078c0.117-0.014,0.262-0.024,0.437-0.024
			c0.184,0,0.334,0.009,0.454,0.024c0.118,0.016,0.21,0.042,0.277,0.078c0.065,0.036,0.114,0.079,0.145,0.13s0.047,0.108,0.047,0.17
			V270.913z"/>
		<path fill="#181715" d="M656.315,257.468c0,0.287-0.047,0.488-0.139,0.6c-0.092,0.112-0.21,0.17-0.352,0.17h-2.198
			c0.43,0.439,0.73,0.918,0.9,1.435c0.168,0.517,0.253,1.063,0.253,1.638c0,0.788-0.127,1.49-0.376,2.104
			c-0.251,0.615-0.607,1.135-1.068,1.56c-0.461,0.425-1.009,0.75-1.645,0.974c-0.635,0.226-1.336,0.34-2.104,0.34
			c-0.625,0-1.22-0.089-1.782-0.262c-0.564-0.174-1.005-0.389-1.321-0.645c-0.206,0.204-0.374,0.441-0.508,0.707
			c-0.132,0.266-0.199,0.573-0.199,0.922c0,0.389,0.186,0.718,0.56,0.983c0.374,0.266,0.859,0.41,1.452,0.43l3.765,0.154
			c0.634,0.02,1.231,0.108,1.789,0.26c0.559,0.155,1.047,0.383,1.468,0.685c0.419,0.302,0.752,0.672,0.998,1.114
			c0.246,0.441,0.369,0.958,0.369,1.553c0,0.615-0.125,1.202-0.376,1.766c-0.251,0.564-0.64,1.057-1.168,1.482
			c-0.528,0.425-1.2,0.763-2.021,1.014c-0.819,0.251-1.797,0.376-2.934,0.376c-1.086,0-2.01-0.094-2.773-0.284
			c-0.765-0.19-1.388-0.45-1.874-0.783c-0.488-0.333-0.841-0.725-1.061-1.175c-0.221-0.452-0.331-0.938-0.331-1.461
			c0-0.358,0.042-0.696,0.123-1.014c0.083-0.318,0.208-0.62,0.378-0.906c0.168-0.287,0.378-0.564,0.629-0.831
			c0.251-0.266,0.54-0.537,0.868-0.813c-0.523-0.266-0.906-0.589-1.151-0.969c-0.246-0.378-0.369-0.783-0.369-1.213
			c0-0.634,0.123-1.197,0.369-1.683c0.246-0.486,0.542-0.924,0.891-1.312c-0.298-0.39-0.528-0.815-0.692-1.276
			c-0.163-0.461-0.246-1.014-0.246-1.659c0-0.779,0.128-1.477,0.385-2.097c0.255-0.62,0.611-1.146,1.068-1.576
			c0.456-0.43,1-0.759,1.636-0.991c0.634-0.23,1.33-0.345,2.09-0.345c0.399,0,0.776,0.023,1.13,0.069
			c0.353,0.047,0.678,0.105,0.974,0.177h4.103c0.173,0,0.3,0.067,0.376,0.201C656.277,257.018,656.315,257.213,656.315,257.468z
			 M654.348,272.295c0-0.676-0.275-1.193-0.822-1.553c-0.548-0.358-1.283-0.553-2.205-0.582l-4.04-0.139
			c-0.369,0.287-0.671,0.559-0.907,0.815c-0.235,0.255-0.421,0.504-0.56,0.745c-0.137,0.24-0.233,0.475-0.284,0.707
			c-0.052,0.23-0.078,0.463-0.078,0.7c0,0.757,0.381,1.33,1.146,1.721c0.763,0.389,1.826,0.582,3.187,0.582
			c0.86,0,1.58-0.083,2.16-0.253c0.578-0.168,1.047-0.39,1.404-0.669c0.36-0.275,0.615-0.593,0.768-0.951
			C654.27,273.058,654.348,272.684,654.348,272.295z M652.888,261.34c0-1.054-0.289-1.878-0.868-2.473
			c-0.578-0.595-1.401-0.891-2.466-0.891c-0.544,0-1.019,0.092-1.43,0.277c-0.409,0.184-0.747,0.436-1.014,0.752
			c-0.266,0.318-0.466,0.687-0.598,1.106c-0.134,0.421-0.201,0.866-0.201,1.338c0,1.025,0.289,1.831,0.87,2.42
			c0.578,0.589,1.39,0.884,2.435,0.884c0.553,0,1.038-0.094,1.452-0.278c0.416-0.184,0.756-0.432,1.021-0.745
			c0.268-0.313,0.466-0.676,0.6-1.09C652.821,262.224,652.888,261.792,652.888,261.34z"/>
		<path fill="#181715" d="M663.39,269.837c0,0.604-0.098,1.003-0.291,1.199c-0.195,0.195-0.544,0.293-1.045,0.293
			c-0.483,0-0.817-0.096-1.007-0.286c-0.19-0.19-0.284-0.58-0.284-1.175c0-0.604,0.098-1.003,0.291-1.198
			c0.195-0.195,0.544-0.291,1.045-0.291c0.483,0,0.817,0.094,1.007,0.284C663.296,268.852,663.39,269.242,663.39,269.837z"/>
		<path fill="#181715" d="M511.537,313.888c0,0.134-0.011,0.251-0.031,0.353c-0.022,0.103-0.052,0.19-0.092,0.262
			c-0.041,0.072-0.092,0.125-0.154,0.161c-0.061,0.036-0.134,0.054-0.215,0.054H499.29c-0.193,0-0.358-0.063-0.492-0.192
			c-0.132-0.128-0.199-0.342-0.199-0.638v-0.508c0-0.09,0.007-0.181,0.022-0.268c0.016-0.087,0.045-0.183,0.085-0.286
			c0.042-0.101,0.099-0.219,0.177-0.353c0.076-0.134,0.172-0.287,0.284-0.461l9.973-15.502h-9.85c-0.081,0-0.154-0.018-0.215-0.054
			c-0.061-0.036-0.112-0.087-0.154-0.154c-0.04-0.067-0.07-0.152-0.092-0.255c-0.02-0.101-0.031-0.219-0.031-0.353
			c0-0.143,0.011-0.269,0.031-0.376c0.022-0.109,0.052-0.197,0.092-0.269c0.042-0.072,0.092-0.125,0.154-0.161
			c0.061-0.036,0.134-0.054,0.215-0.054h11.124c0.195,0,0.36,0.063,0.492,0.192c0.134,0.128,0.201,0.342,0.201,0.638v0.506
			c0,0.103-0.009,0.201-0.023,0.293c-0.016,0.092-0.043,0.19-0.085,0.293c-0.04,0.101-0.099,0.217-0.177,0.345
			c-0.076,0.128-0.17,0.273-0.284,0.437l-9.971,15.504h10.479c0.163,0,0.286,0.069,0.369,0.206
			C511.495,313.389,511.537,313.601,511.537,313.888z"/>
		<path fill="#181715" d="M526.804,314.411c0,0.061-0.013,0.118-0.04,0.17c-0.025,0.051-0.074,0.09-0.145,0.123
			c-0.072,0.029-0.164,0.056-0.277,0.076c-0.114,0.02-0.251,0.031-0.416,0.031c-0.184,0-0.333-0.011-0.445-0.031
			c-0.114-0.02-0.201-0.047-0.262-0.076c-0.061-0.033-0.105-0.072-0.13-0.123c-0.025-0.052-0.038-0.109-0.038-0.17v-1.967
			c-0.799,0.891-1.58,1.536-2.345,1.936c-0.763,0.399-1.522,0.598-2.281,0.598c-0.911,0-1.679-0.152-2.305-0.459
			c-0.624-0.307-1.13-0.725-1.513-1.253c-0.385-0.528-0.662-1.141-0.83-1.836c-0.17-0.696-0.253-1.536-0.253-2.52v-8.404
			c0-0.061,0.013-0.119,0.038-0.17c0.025-0.051,0.074-0.094,0.146-0.13c0.07-0.036,0.166-0.061,0.284-0.078
			c0.117-0.015,0.264-0.024,0.437-0.024c0.184,0,0.336,0.009,0.454,0.024c0.118,0.016,0.21,0.042,0.277,0.078
			c0.067,0.036,0.116,0.079,0.146,0.13s0.045,0.109,0.045,0.17v8.235c0,0.86,0.067,1.562,0.201,2.104
			c0.132,0.542,0.333,1.007,0.598,1.39c0.268,0.385,0.607,0.681,1.021,0.891c0.416,0.21,0.9,0.314,1.453,0.314
			c0.707,0,1.41-0.249,2.111-0.752c0.703-0.502,1.448-1.24,2.236-2.212v-9.971c0-0.061,0.013-0.119,0.038-0.17
			c0.027-0.051,0.076-0.094,0.146-0.13c0.072-0.036,0.166-0.061,0.284-0.078c0.119-0.015,0.269-0.024,0.454-0.024
			c0.175,0,0.32,0.009,0.437,0.024c0.119,0.016,0.212,0.042,0.277,0.078c0.067,0.036,0.116,0.079,0.146,0.13s0.047,0.109,0.047,0.17
			V314.411z"/>
		<path fill="#181715" d="M543.707,300.474c0,0.033-0.004,0.065-0.007,0.101c-0.005,0.036-0.011,0.069-0.016,0.1
			c-0.005,0.031-0.013,0.063-0.023,0.099c-0.009,0.036-0.02,0.069-0.031,0.101l-5.039,13.535c-0.031,0.081-0.076,0.148-0.137,0.199
			c-0.061,0.052-0.139,0.094-0.231,0.123c-0.092,0.033-0.202,0.052-0.329,0.061c-0.128,0.011-0.28,0.016-0.454,0.016
			c-0.175,0-0.329-0.007-0.461-0.023c-0.134-0.015-0.246-0.038-0.338-0.069s-0.17-0.072-0.231-0.123
			c-0.062-0.051-0.107-0.112-0.137-0.184l-5.04-13.535c-0.031-0.083-0.054-0.15-0.069-0.201c-0.016-0.051-0.027-0.092-0.031-0.123
			c-0.005-0.031-0.009-0.056-0.009-0.078c0-0.07,0.016-0.132,0.047-0.184c0.031-0.051,0.08-0.089,0.146-0.114
			c0.065-0.025,0.155-0.043,0.268-0.054c0.114-0.011,0.251-0.016,0.416-0.016c0.224,0,0.405,0.009,0.537,0.024
			c0.134,0.016,0.239,0.038,0.316,0.07c0.076,0.029,0.132,0.07,0.168,0.123c0.036,0.051,0.069,0.112,0.099,0.184l4.349,12.136
			l0.031,0.078l0.031-0.078l4.271-12.136c0.02-0.072,0.051-0.134,0.092-0.184c0.04-0.052,0.099-0.094,0.177-0.123
			c0.076-0.033,0.179-0.054,0.307-0.07c0.126-0.015,0.293-0.024,0.499-0.024c0.163,0,0.3,0.005,0.407,0.016
			c0.108,0.011,0.192,0.031,0.253,0.061s0.105,0.069,0.132,0.116C543.694,300.344,543.707,300.404,543.707,300.474z"/>
		<path fill="#181715" d="M559.075,306.743c0,0.369-0.098,0.624-0.293,0.761c-0.193,0.139-0.383,0.208-0.568,0.208h-9.481
			c0,0.86,0.085,1.64,0.253,2.335c0.17,0.696,0.448,1.292,0.839,1.79c0.389,0.497,0.897,0.879,1.52,1.146
			c0.626,0.266,1.394,0.398,2.305,0.398c0.645,0,1.224-0.056,1.737-0.168c0.512-0.112,0.954-0.239,1.329-0.376
			c0.374-0.139,0.681-0.264,0.922-0.378c0.24-0.112,0.412-0.168,0.515-0.168c0.061,0,0.118,0.016,0.168,0.045
			c0.052,0.033,0.092,0.079,0.123,0.146c0.031,0.067,0.054,0.152,0.069,0.255c0.016,0.101,0.024,0.229,0.024,0.383
			c0,0.072-0.006,0.141-0.015,0.208c-0.011,0.067-0.023,0.128-0.04,0.184c-0.014,0.056-0.038,0.11-0.069,0.161
			c-0.031,0.051-0.07,0.103-0.123,0.154c-0.051,0.051-0.21,0.141-0.475,0.269c-0.268,0.128-0.615,0.255-1.045,0.383
			c-0.43,0.128-0.931,0.244-1.498,0.347c-0.569,0.101-1.18,0.152-1.837,0.152c-1.075,0-2.028-0.161-2.858-0.483
			c-0.83-0.324-1.526-0.799-2.09-1.43c-0.562-0.629-0.991-1.41-1.283-2.343c-0.291-0.933-0.438-2.014-0.438-3.243
			c0-1.177,0.152-2.232,0.454-3.163c0.302-0.933,0.736-1.725,1.298-2.375c0.564-0.651,1.242-1.146,2.035-1.489
			c0.795-0.344,1.677-0.515,2.652-0.515c1.045,0,1.936,0.174,2.673,0.522c0.737,0.349,1.343,0.817,1.82,1.406
			c0.475,0.589,0.824,1.272,1.045,2.05c0.22,0.779,0.331,1.598,0.331,2.458V306.743z M557.184,306.206
			c0.031-1.475-0.307-2.626-1.014-3.458c-0.707-0.828-1.735-1.244-3.087-1.244c-0.698,0-1.309,0.13-1.837,0.392
			c-0.528,0.26-0.973,0.605-1.338,1.036c-0.363,0.43-0.642,0.931-0.837,1.499c-0.193,0.569-0.307,1.16-0.338,1.775H557.184z"/>
		<path fill="#181715" d="M571.912,301.212c0,0.155-0.005,0.286-0.014,0.392c-0.011,0.109-0.029,0.195-0.054,0.262
			c-0.025,0.067-0.056,0.117-0.092,0.154c-0.036,0.036-0.085,0.052-0.146,0.052c-0.092,0-0.199-0.022-0.322-0.069
			c-0.123-0.045-0.268-0.094-0.43-0.144c-0.164-0.052-0.343-0.101-0.539-0.146c-0.194-0.047-0.409-0.07-0.645-0.07
			c-0.277,0-0.548,0.06-0.813,0.177c-0.268,0.118-0.546,0.307-0.837,0.569c-0.293,0.26-0.6,0.606-0.922,1.036
			c-0.323,0.43-0.68,0.958-1.068,1.584v9.403c0,0.061-0.016,0.118-0.047,0.17c-0.031,0.051-0.08,0.09-0.145,0.123
			c-0.067,0.029-0.159,0.056-0.277,0.076c-0.119,0.02-0.269,0.031-0.454,0.031c-0.175,0-0.32-0.011-0.438-0.031
			c-0.119-0.02-0.213-0.047-0.286-0.076c-0.07-0.033-0.119-0.072-0.145-0.123c-0.027-0.052-0.04-0.109-0.04-0.17v-13.904
			c0-0.061,0.013-0.119,0.04-0.17c0.025-0.051,0.074-0.094,0.145-0.13c0.072-0.036,0.163-0.061,0.269-0.078
			c0.108-0.015,0.248-0.024,0.423-0.024c0.174,0,0.316,0.009,0.43,0.024c0.112,0.016,0.199,0.042,0.26,0.078
			c0.061,0.036,0.105,0.079,0.132,0.13c0.025,0.051,0.038,0.109,0.038,0.17v2.196c0.399-0.584,0.768-1.056,1.106-1.414
			c0.338-0.358,0.66-0.638,0.967-0.837c0.307-0.201,0.607-0.336,0.9-0.408c0.291-0.07,0.591-0.107,0.898-0.107
			c0.132,0,0.286,0.007,0.461,0.024c0.174,0.014,0.362,0.043,0.56,0.083c0.201,0.042,0.38,0.09,0.539,0.146
			c0.157,0.056,0.268,0.108,0.329,0.154c0.061,0.047,0.103,0.087,0.123,0.123c0.022,0.036,0.04,0.083,0.054,0.139
			c0.016,0.056,0.025,0.132,0.031,0.23C571.911,300.933,571.912,301.06,571.912,301.212z"/>
		<path fill="#181715" d="M578.044,314.411c0,0.061-0.016,0.118-0.047,0.17c-0.031,0.051-0.079,0.09-0.145,0.123
			c-0.067,0.029-0.159,0.056-0.277,0.076c-0.119,0.02-0.269,0.031-0.454,0.031c-0.175,0-0.32-0.011-0.437-0.031
			c-0.119-0.02-0.213-0.047-0.286-0.076c-0.071-0.033-0.119-0.072-0.145-0.123c-0.027-0.052-0.04-0.109-0.04-0.17v-20.711
			c0-0.061,0.013-0.117,0.04-0.17c0.025-0.051,0.074-0.094,0.145-0.13c0.072-0.036,0.166-0.061,0.286-0.076
			c0.117-0.016,0.262-0.024,0.437-0.024c0.184,0,0.334,0.007,0.454,0.024c0.118,0.014,0.21,0.04,0.277,0.076
			c0.065,0.036,0.114,0.08,0.145,0.13c0.031,0.052,0.047,0.108,0.047,0.17V314.411z"/>
		<path fill="#181715" d="M593.748,314.411c0,0.103-0.034,0.183-0.101,0.239c-0.065,0.056-0.154,0.098-0.26,0.123
			c-0.108,0.025-0.253,0.038-0.437,0.038c-0.175,0-0.324-0.013-0.447-0.038c-0.123-0.025-0.217-0.067-0.284-0.123
			c-0.067-0.056-0.099-0.136-0.099-0.239v-1.551c-0.625,0.676-1.314,1.197-2.068,1.565c-0.752,0.369-1.533,0.553-2.343,0.553
			c-0.727,0-1.379-0.094-1.959-0.284c-0.578-0.19-1.066-0.461-1.466-0.813c-0.4-0.354-0.707-0.781-0.922-1.283
			c-0.215-0.503-0.323-1.065-0.323-1.69c0-0.768,0.159-1.437,0.477-2.005c0.316-0.569,0.768-1.043,1.352-1.423
			c0.584-0.378,1.285-0.661,2.104-0.851c0.821-0.19,1.732-0.284,2.735-0.284h2.213v-1.2c0-0.593-0.061-1.119-0.184-1.574
			c-0.123-0.456-0.322-0.837-0.598-1.144c-0.277-0.307-0.636-0.539-1.076-0.691c-0.441-0.155-0.978-0.231-1.614-0.231
			c-0.615,0-1.168,0.074-1.659,0.222c-0.492,0.148-0.922,0.316-1.291,0.501c-0.369,0.184-0.672,0.351-0.915,0.499
			c-0.24,0.148-0.412,0.222-0.513,0.222c-0.061,0-0.118-0.011-0.17-0.031c-0.051-0.02-0.094-0.06-0.13-0.116
			c-0.036-0.056-0.061-0.128-0.078-0.215c-0.014-0.087-0.022-0.192-0.022-0.315c0-0.215,0.015-0.387,0.045-0.515
			c0.031-0.128,0.11-0.255,0.239-0.383c0.128-0.128,0.356-0.28,0.683-0.454c0.329-0.174,0.705-0.336,1.13-0.484
			c0.425-0.148,0.884-0.269,1.375-0.36c0.492-0.094,0.983-0.139,1.475-0.139c0.953,0,1.757,0.116,2.411,0.345
			c0.656,0.231,1.186,0.56,1.591,0.99c0.405,0.43,0.694,0.962,0.868,1.591c0.175,0.631,0.262,1.345,0.262,2.144V314.411z
			 M591.919,307.849h-2.534c-0.737,0-1.383,0.067-1.936,0.201c-0.553,0.134-1.014,0.327-1.383,0.584
			c-0.369,0.257-0.644,0.564-0.823,0.922c-0.179,0.358-0.269,0.768-0.269,1.229c0,0.799,0.253,1.437,0.761,1.913
			c0.506,0.477,1.222,0.716,2.144,0.716c0.727,0,1.405-0.188,2.035-0.562c0.629-0.374,1.298-0.949,2.005-1.728V307.849z
			 M587.479,296.111c0,0.472-0.083,0.79-0.246,0.954c-0.164,0.163-0.466,0.246-0.907,0.246c-0.439,0-0.739-0.079-0.898-0.239
			c-0.159-0.159-0.238-0.474-0.238-0.945c0-0.481,0.083-0.804,0.246-0.967c0.164-0.164,0.461-0.246,0.891-0.246
			c0.452,0,0.756,0.081,0.915,0.246C587.4,295.323,587.479,295.641,587.479,296.111z M592.611,296.111
			c0,0.472-0.083,0.79-0.246,0.954c-0.164,0.163-0.466,0.246-0.907,0.246c-0.439,0-0.739-0.079-0.898-0.239
			c-0.159-0.159-0.239-0.474-0.239-0.945c0-0.481,0.083-0.804,0.246-0.967c0.164-0.164,0.461-0.246,0.891-0.246
			c0.452,0,0.755,0.081,0.915,0.246C592.532,295.323,592.611,295.641,592.611,296.111z"/>
		<path fill="#181715" d="M607.829,310.709c0,0.665-0.123,1.262-0.369,1.79c-0.246,0.528-0.596,0.976-1.054,1.345
			c-0.456,0.369-1,0.649-1.636,0.844c-0.634,0.195-1.336,0.291-2.104,0.291c-0.483,0-0.938-0.038-1.368-0.114
			c-0.43-0.078-0.819-0.175-1.168-0.293c-0.347-0.118-0.642-0.242-0.884-0.376c-0.24-0.134-0.416-0.251-0.53-0.353
			c-0.112-0.103-0.193-0.231-0.246-0.385c-0.051-0.154-0.076-0.358-0.076-0.615c0-0.134,0.009-0.251,0.031-0.352
			c0.02-0.103,0.045-0.19,0.076-0.262c0.031-0.072,0.072-0.125,0.123-0.161c0.052-0.036,0.109-0.054,0.17-0.054
			c0.112,0,0.277,0.072,0.492,0.215c0.215,0.143,0.483,0.3,0.806,0.468c0.322,0.17,0.707,0.325,1.151,0.47
			c0.447,0.143,0.962,0.213,1.546,0.213c0.47,0,0.9-0.051,1.291-0.152c0.389-0.103,0.727-0.257,1.014-0.463
			c0.286-0.204,0.51-0.468,0.667-0.79c0.159-0.324,0.239-0.7,0.239-1.13c0-0.43-0.101-0.793-0.307-1.092
			c-0.204-0.296-0.474-0.555-0.806-0.775c-0.333-0.221-0.712-0.414-1.137-0.584c-0.425-0.168-0.861-0.344-1.307-0.522
			c-0.445-0.179-0.88-0.376-1.305-0.591c-0.425-0.215-0.804-0.477-1.137-0.785c-0.333-0.307-0.602-0.676-0.806-1.106
			c-0.206-0.43-0.307-0.947-0.307-1.551c0-0.481,0.092-0.954,0.277-1.421c0.184-0.466,0.468-0.884,0.851-1.253
			c0.385-0.369,0.877-0.665,1.475-0.891c0.6-0.226,1.309-0.338,2.129-0.338c0.347,0,0.694,0.029,1.036,0.085
			c0.343,0.056,0.656,0.13,0.938,0.222c0.282,0.092,0.524,0.192,0.73,0.3c0.204,0.107,0.36,0.202,0.468,0.284
			c0.107,0.081,0.179,0.152,0.215,0.208c0.036,0.056,0.061,0.114,0.076,0.175c0.016,0.061,0.029,0.137,0.04,0.224
			c0.009,0.087,0.015,0.192,0.015,0.314c0,0.123-0.007,0.233-0.024,0.331c-0.015,0.098-0.038,0.181-0.069,0.253
			c-0.031,0.072-0.069,0.125-0.116,0.161c-0.045,0.036-0.099,0.054-0.161,0.054c-0.081,0-0.204-0.056-0.369-0.17
			c-0.163-0.112-0.378-0.235-0.645-0.369c-0.266-0.132-0.584-0.255-0.953-0.369c-0.369-0.112-0.793-0.168-1.274-0.168
			c-0.483,0-0.904,0.056-1.269,0.168c-0.363,0.114-0.662,0.273-0.898,0.477c-0.235,0.204-0.412,0.445-0.53,0.723
			c-0.117,0.275-0.177,0.578-0.177,0.906c0,0.45,0.103,0.83,0.307,1.137c0.206,0.307,0.477,0.573,0.815,0.799
			c0.338,0.226,0.721,0.425,1.152,0.6c0.43,0.174,0.867,0.347,1.314,0.521c0.445,0.175,0.884,0.367,1.314,0.577
			c0.43,0.21,0.813,0.465,1.151,0.761c0.338,0.296,0.609,0.653,0.815,1.068C607.726,309.624,607.829,310.123,607.829,310.709z"/>
		<path fill="#181715" d="M621.278,310.709c0,0.665-0.123,1.262-0.369,1.79c-0.246,0.528-0.597,0.976-1.052,1.345
			c-0.456,0.369-1.001,0.649-1.636,0.844c-0.636,0.195-1.338,0.291-2.106,0.291c-0.481,0-0.936-0.038-1.367-0.114
			c-0.43-0.078-0.821-0.175-1.168-0.293c-0.349-0.118-0.644-0.242-0.884-0.376c-0.24-0.134-0.417-0.251-0.53-0.353
			c-0.114-0.103-0.195-0.231-0.246-0.385c-0.052-0.154-0.078-0.358-0.078-0.615c0-0.134,0.011-0.251,0.031-0.352
			c0.022-0.103,0.047-0.19,0.078-0.262c0.031-0.072,0.07-0.125,0.123-0.161c0.051-0.036,0.107-0.054,0.168-0.054
			c0.114,0,0.277,0.072,0.492,0.215c0.215,0.143,0.484,0.3,0.808,0.468c0.322,0.17,0.707,0.325,1.151,0.47
			c0.447,0.143,0.96,0.213,1.544,0.213c0.472,0,0.902-0.051,1.291-0.152c0.39-0.103,0.728-0.257,1.014-0.463
			c0.287-0.204,0.51-0.468,0.669-0.79c0.159-0.324,0.238-0.7,0.238-1.13c0-0.43-0.103-0.793-0.307-1.092
			c-0.206-0.296-0.474-0.555-0.806-0.775c-0.334-0.221-0.712-0.414-1.137-0.584c-0.427-0.168-0.86-0.344-1.307-0.522
			c-0.445-0.179-0.88-0.376-1.305-0.591c-0.427-0.215-0.804-0.477-1.137-0.785c-0.334-0.307-0.602-0.676-0.808-1.106
			c-0.204-0.43-0.307-0.947-0.307-1.551c0-0.481,0.092-0.954,0.277-1.421c0.184-0.466,0.47-0.884,0.853-1.253
			c0.385-0.369,0.877-0.665,1.475-0.891c0.6-0.226,1.309-0.338,2.128-0.338c0.349,0,0.694,0.029,1.038,0.085
			c0.344,0.056,0.656,0.13,0.938,0.222c0.28,0.092,0.524,0.192,0.728,0.3c0.206,0.107,0.362,0.202,0.47,0.284
			c0.107,0.081,0.179,0.152,0.215,0.208c0.034,0.056,0.061,0.114,0.076,0.175c0.016,0.061,0.029,0.137,0.038,0.224
			c0.011,0.087,0.016,0.192,0.016,0.314c0,0.123-0.007,0.233-0.023,0.331c-0.014,0.098-0.038,0.181-0.069,0.253
			c-0.031,0.072-0.069,0.125-0.116,0.161c-0.045,0.036-0.099,0.054-0.161,0.054c-0.083,0-0.206-0.056-0.369-0.17
			c-0.164-0.112-0.38-0.235-0.645-0.369c-0.268-0.132-0.584-0.255-0.953-0.369c-0.369-0.112-0.794-0.168-1.276-0.168
			c-0.481,0-0.904,0.056-1.267,0.168c-0.363,0.114-0.663,0.273-0.898,0.477c-0.237,0.204-0.412,0.445-0.53,0.723
			c-0.119,0.275-0.177,0.578-0.177,0.906c0,0.45,0.101,0.83,0.307,1.137c0.204,0.307,0.475,0.573,0.813,0.799
			c0.338,0.226,0.723,0.425,1.153,0.6c0.43,0.174,0.868,0.347,1.314,0.521c0.445,0.175,0.882,0.367,1.312,0.577
			c0.43,0.21,0.815,0.465,1.153,0.761c0.338,0.296,0.609,0.653,0.813,1.068C621.177,309.624,621.278,310.123,621.278,310.709z"/>
		<path fill="#181715" d="M628.194,295.82c0,0.492-0.087,0.824-0.262,1c-0.174,0.174-0.492,0.26-0.953,0.26
			c-0.45,0-0.759-0.085-0.929-0.253c-0.168-0.17-0.253-0.499-0.253-0.99c0-0.492,0.087-0.826,0.26-1
			c0.175-0.173,0.492-0.262,0.953-0.262c0.452,0,0.761,0.085,0.931,0.255C628.109,294.997,628.194,295.328,628.194,295.82z
			 M627.917,314.411c0,0.061-0.016,0.118-0.047,0.17c-0.031,0.051-0.08,0.09-0.144,0.123c-0.067,0.029-0.159,0.056-0.277,0.076
			c-0.119,0.02-0.269,0.031-0.454,0.031c-0.175,0-0.32-0.011-0.437-0.031c-0.119-0.02-0.213-0.047-0.286-0.076
			c-0.07-0.033-0.119-0.072-0.145-0.123c-0.027-0.052-0.04-0.109-0.04-0.17v-13.904c0-0.061,0.013-0.119,0.04-0.17
			c0.025-0.051,0.074-0.094,0.145-0.13c0.072-0.036,0.166-0.061,0.286-0.078c0.118-0.015,0.262-0.024,0.437-0.024
			c0.185,0,0.334,0.009,0.454,0.024c0.118,0.016,0.21,0.042,0.277,0.078c0.065,0.036,0.114,0.079,0.144,0.13
			c0.031,0.051,0.047,0.109,0.047,0.17V314.411z"/>
		<path fill="#181715" d="M645.326,300.966c0,0.287-0.045,0.488-0.137,0.6c-0.092,0.112-0.21,0.17-0.354,0.17h-2.196
			c0.43,0.439,0.728,0.918,0.898,1.435c0.168,0.517,0.253,1.063,0.253,1.638c0,0.788-0.125,1.489-0.376,2.104
			c-0.251,0.615-0.607,1.135-1.068,1.56c-0.461,0.425-1.009,0.75-1.643,0.974c-0.636,0.226-1.338,0.34-2.106,0.34
			c-0.624,0-1.218-0.089-1.782-0.262c-0.562-0.174-1.003-0.389-1.321-0.645c-0.204,0.204-0.374,0.441-0.506,0.707
			c-0.134,0.266-0.201,0.573-0.201,0.922c0,0.389,0.188,0.718,0.56,0.983c0.374,0.266,0.859,0.41,1.453,0.43l3.763,0.154
			c0.636,0.02,1.233,0.108,1.79,0.26c0.558,0.155,1.048,0.383,1.468,0.685c0.421,0.302,0.754,0.672,1,1.114
			c0.246,0.441,0.369,0.958,0.369,1.553c0,0.615-0.127,1.202-0.378,1.766c-0.249,0.564-0.64,1.057-1.168,1.482
			c-0.526,0.425-1.2,0.763-2.019,1.014c-0.821,0.251-1.799,0.376-2.935,0.376c-1.085,0-2.01-0.094-2.773-0.284
			c-0.763-0.19-1.388-0.45-1.875-0.783c-0.486-0.332-0.84-0.725-1.061-1.175c-0.219-0.452-0.329-0.938-0.329-1.461
			c0-0.358,0.04-0.696,0.123-1.014c0.081-0.318,0.206-0.62,0.376-0.906c0.168-0.287,0.38-0.564,0.629-0.832
			c0.251-0.266,0.541-0.537,0.87-0.813c-0.522-0.266-0.907-0.589-1.153-0.969c-0.246-0.378-0.369-0.783-0.369-1.213
			c0-0.634,0.123-1.197,0.369-1.683c0.246-0.486,0.544-0.924,0.891-1.312c-0.296-0.39-0.528-0.815-0.69-1.276
			c-0.165-0.461-0.246-1.014-0.246-1.659c0-0.779,0.128-1.477,0.383-2.097c0.257-0.62,0.613-1.146,1.068-1.576
			c0.456-0.43,1.001-0.759,1.636-0.99c0.636-0.23,1.332-0.345,2.09-0.345c0.4,0,0.776,0.024,1.13,0.069
			c0.352,0.047,0.678,0.105,0.976,0.177h4.101c0.175,0,0.3,0.067,0.376,0.201C645.288,300.516,645.326,300.711,645.326,300.966z
			 M643.36,315.794c0-0.676-0.273-1.193-0.822-1.553c-0.548-0.358-1.282-0.553-2.203-0.582l-4.042-0.139
			c-0.369,0.287-0.671,0.558-0.906,0.815c-0.237,0.255-0.423,0.504-0.562,0.745c-0.137,0.24-0.231,0.475-0.284,0.707
			c-0.051,0.229-0.076,0.463-0.076,0.7c0,0.757,0.381,1.33,1.144,1.721c0.763,0.389,1.826,0.582,3.189,0.582
			c0.86,0,1.58-0.083,2.158-0.253c0.578-0.168,1.047-0.39,1.406-0.669c0.358-0.275,0.615-0.593,0.768-0.951
			C643.284,316.556,643.36,316.182,643.36,315.794z M641.901,304.838c0-1.054-0.289-1.878-0.869-2.473
			c-0.578-0.595-1.399-0.891-2.466-0.891c-0.542,0-1.019,0.092-1.428,0.277c-0.41,0.184-0.748,0.436-1.014,0.752
			c-0.268,0.318-0.466,0.687-0.6,1.106c-0.132,0.421-0.199,0.866-0.199,1.338c0,1.025,0.289,1.831,0.868,2.42
			c0.578,0.589,1.39,0.884,2.435,0.884c0.553,0,1.038-0.094,1.451-0.278c0.416-0.184,0.756-0.432,1.023-0.745
			c0.266-0.313,0.466-0.676,0.598-1.09C641.834,305.722,641.901,305.29,641.901,304.838z"/>
		<path fill="#181715" d="M652.403,313.335c0,0.604-0.098,1.003-0.293,1.198c-0.194,0.195-0.542,0.293-1.045,0.293
			c-0.481,0-0.817-0.096-1.005-0.286c-0.19-0.19-0.286-0.58-0.286-1.175c0-0.604,0.098-1.003,0.293-1.198
			c0.193-0.195,0.542-0.291,1.045-0.291c0.481,0,0.817,0.094,1.007,0.284C652.307,312.35,652.403,312.741,652.403,313.335z"/>
		<path fill="#181715" d="M507.542,357.878c-0.031,0.081-0.078,0.152-0.139,0.208c-0.061,0.056-0.141,0.1-0.239,0.13
			c-0.096,0.031-0.215,0.054-0.352,0.069c-0.139,0.016-0.295,0.024-0.468,0.024c-0.123,0-0.237-0.002-0.338-0.007
			c-0.103-0.005-0.195-0.016-0.277-0.031c-0.083-0.016-0.154-0.034-0.215-0.054c-0.061-0.02-0.118-0.047-0.17-0.076
			c-0.051-0.033-0.092-0.067-0.123-0.108c-0.031-0.042-0.056-0.092-0.076-0.154l-6.807-18.913c-0.061-0.155-0.089-0.28-0.085-0.378
			c0.005-0.098,0.045-0.172,0.116-0.222c0.072-0.051,0.179-0.085,0.323-0.099c0.143-0.016,0.333-0.024,0.568-0.024
			c0.195,0,0.351,0.007,0.468,0.024c0.119,0.014,0.211,0.038,0.277,0.069c0.067,0.031,0.119,0.072,0.154,0.123
			c0.036,0.051,0.07,0.112,0.101,0.184l6.177,17.499h0.014l5.992-17.499c0.022-0.072,0.047-0.134,0.078-0.184
			c0.031-0.051,0.083-0.092,0.161-0.123c0.076-0.031,0.183-0.054,0.315-0.069c0.134-0.016,0.307-0.024,0.522-0.024
			c0.237,0,0.423,0.011,0.56,0.031c0.139,0.02,0.237,0.056,0.293,0.107c0.056,0.052,0.081,0.123,0.076,0.217
			c-0.004,0.09-0.038,0.213-0.099,0.369L507.542,357.878z"/>
		<path fill="#181715" d="M529.922,350.81c0,1.106-0.145,2.126-0.43,3.057c-0.287,0.933-0.714,1.743-1.283,2.429
			c-0.568,0.685-1.278,1.22-2.127,1.605c-0.852,0.383-1.838,0.575-2.966,0.575c-1.085,0-2.035-0.17-2.849-0.513
			c-0.815-0.343-1.497-0.835-2.044-1.475c-0.548-0.64-0.958-1.417-1.229-2.328c-0.271-0.911-0.407-1.941-0.407-3.087
			c0-1.106,0.141-2.126,0.423-3.058c0.28-0.933,0.707-1.739,1.274-2.42c0.569-0.682,1.278-1.211,2.128-1.589
			c0.851-0.38,1.844-0.569,2.981-0.569c1.086,0,2.037,0.168,2.851,0.508c0.815,0.336,1.493,0.826,2.035,1.466
			c0.544,0.64,0.953,1.417,1.229,2.328C529.783,348.649,529.922,349.674,529.922,350.81z M527.986,350.979
			c0-0.788-0.078-1.54-0.231-2.258s-0.409-1.35-0.768-1.898c-0.358-0.548-0.839-0.983-1.444-1.305
			c-0.604-0.323-1.357-0.484-2.258-0.484c-0.83,0-1.547,0.148-2.151,0.447c-0.606,0.296-1.099,0.709-1.482,1.236
			c-0.385,0.528-0.669,1.15-0.853,1.865c-0.184,0.718-0.277,1.491-0.277,2.321c0,0.799,0.076,1.56,0.23,2.281
			c0.154,0.723,0.41,1.356,0.768,1.898c0.36,0.542,0.841,0.973,1.444,1.291c0.606,0.318,1.357,0.477,2.259,0.477
			c0.83,0,1.545-0.15,2.151-0.446c0.604-0.296,1.099-0.707,1.482-1.229c0.385-0.522,0.669-1.142,0.853-1.86
			C527.894,352.598,527.986,351.819,527.986,350.979z"/>
		<path fill="#181715" d="M542.81,344.71c0,0.155-0.006,0.286-0.016,0.392c-0.009,0.108-0.027,0.195-0.054,0.262
			c-0.025,0.067-0.056,0.118-0.092,0.154c-0.034,0.036-0.083,0.052-0.145,0.052c-0.092,0-0.201-0.022-0.323-0.069
			c-0.123-0.045-0.266-0.094-0.43-0.145c-0.163-0.052-0.344-0.101-0.537-0.146c-0.195-0.047-0.41-0.07-0.645-0.07
			c-0.277,0-0.548,0.06-0.815,0.177c-0.266,0.117-0.546,0.307-0.837,0.569c-0.293,0.26-0.6,0.606-0.922,1.036
			c-0.324,0.43-0.678,0.958-1.068,1.583v9.403c0,0.061-0.014,0.117-0.045,0.17c-0.031,0.051-0.08,0.09-0.146,0.123
			c-0.067,0.029-0.159,0.056-0.277,0.076c-0.118,0.02-0.269,0.031-0.454,0.031c-0.174,0-0.32-0.011-0.438-0.031
			c-0.117-0.02-0.213-0.047-0.284-0.076c-0.072-0.033-0.121-0.072-0.146-0.123c-0.025-0.052-0.038-0.108-0.038-0.17v-13.904
			c0-0.061,0.013-0.119,0.038-0.17c0.025-0.051,0.074-0.094,0.146-0.13c0.07-0.036,0.161-0.061,0.268-0.078
			c0.108-0.015,0.25-0.024,0.423-0.024c0.175,0,0.318,0.009,0.43,0.024c0.114,0.016,0.201,0.042,0.262,0.078
			c0.061,0.036,0.105,0.08,0.13,0.13c0.025,0.051,0.038,0.108,0.038,0.17v2.196c0.399-0.584,0.768-1.056,1.106-1.414
			c0.338-0.358,0.662-0.638,0.969-0.837c0.307-0.201,0.606-0.336,0.898-0.409c0.291-0.07,0.591-0.107,0.898-0.107
			c0.134,0,0.287,0.007,0.461,0.023c0.175,0.015,0.362,0.043,0.56,0.083c0.201,0.042,0.38,0.09,0.539,0.146
			c0.159,0.056,0.269,0.108,0.331,0.154c0.061,0.047,0.101,0.087,0.123,0.123c0.02,0.036,0.038,0.083,0.052,0.139
			c0.016,0.056,0.027,0.132,0.031,0.229C542.806,344.431,542.81,344.558,542.81,344.71z"/>
		<path fill="#181715" d="M557.029,357.909c0,0.103-0.034,0.183-0.101,0.238c-0.065,0.056-0.154,0.098-0.26,0.123
			c-0.108,0.025-0.253,0.038-0.437,0.038c-0.175,0-0.324-0.013-0.447-0.038c-0.123-0.025-0.217-0.067-0.284-0.123
			c-0.067-0.056-0.099-0.135-0.099-0.238v-1.551c-0.626,0.676-1.314,1.197-2.068,1.565c-0.752,0.369-1.533,0.553-2.343,0.553
			c-0.727,0-1.379-0.094-1.96-0.284c-0.578-0.19-1.066-0.461-1.466-0.813c-0.399-0.354-0.707-0.781-0.922-1.283
			c-0.215-0.503-0.323-1.065-0.323-1.69c0-0.768,0.159-1.437,0.477-2.005c0.316-0.569,0.768-1.043,1.352-1.423
			c0.584-0.378,1.285-0.662,2.104-0.851c0.821-0.19,1.732-0.284,2.735-0.284h2.213v-1.2c0-0.593-0.061-1.119-0.184-1.574
			c-0.123-0.456-0.322-0.837-0.598-1.144c-0.277-0.307-0.636-0.539-1.075-0.691c-0.441-0.155-0.978-0.231-1.614-0.231
			c-0.615,0-1.168,0.074-1.659,0.222c-0.492,0.148-0.922,0.316-1.291,0.501c-0.369,0.184-0.672,0.351-0.915,0.499
			c-0.24,0.148-0.412,0.222-0.513,0.222c-0.061,0-0.118-0.011-0.17-0.031c-0.051-0.02-0.094-0.06-0.13-0.116
			c-0.036-0.056-0.061-0.128-0.078-0.215c-0.014-0.087-0.022-0.192-0.022-0.314c0-0.215,0.015-0.387,0.045-0.515
			c0.031-0.128,0.11-0.255,0.239-0.383c0.128-0.128,0.356-0.28,0.683-0.454c0.329-0.173,0.705-0.336,1.13-0.484
			c0.425-0.148,0.884-0.269,1.376-0.36c0.492-0.094,0.983-0.139,1.475-0.139c0.953,0,1.757,0.116,2.411,0.345
			c0.656,0.231,1.186,0.56,1.591,0.991s0.694,0.962,0.868,1.591c0.175,0.631,0.262,1.345,0.262,2.144V357.909z M555.199,351.347
			h-2.534c-0.737,0-1.383,0.067-1.936,0.201c-0.553,0.134-1.014,0.327-1.383,0.584c-0.369,0.257-0.644,0.564-0.823,0.922
			c-0.179,0.358-0.269,0.768-0.269,1.229c0,0.799,0.253,1.437,0.761,1.912c0.506,0.477,1.222,0.716,2.144,0.716
			c0.727,0,1.405-0.188,2.035-0.562c0.629-0.374,1.298-0.949,2.005-1.728V351.347z"/>
		<path fill="#181715" d="M574.147,357.909c0,0.061-0.013,0.117-0.04,0.17c-0.025,0.051-0.074,0.09-0.145,0.123
			c-0.072,0.029-0.164,0.056-0.277,0.076c-0.114,0.02-0.251,0.031-0.416,0.031c-0.185,0-0.333-0.011-0.445-0.031
			c-0.114-0.02-0.201-0.047-0.262-0.076c-0.061-0.033-0.105-0.072-0.13-0.123c-0.025-0.052-0.038-0.108-0.038-0.17v-1.967
			c-0.799,0.891-1.58,1.536-2.345,1.936c-0.763,0.399-1.522,0.598-2.281,0.598c-0.911,0-1.679-0.152-2.305-0.459
			c-0.624-0.307-1.13-0.725-1.513-1.253c-0.385-0.528-0.662-1.141-0.83-1.837c-0.17-0.696-0.253-1.536-0.253-2.52v-8.404
			c0-0.061,0.013-0.119,0.038-0.17c0.025-0.051,0.074-0.094,0.146-0.13c0.07-0.036,0.166-0.061,0.284-0.078
			c0.118-0.015,0.264-0.024,0.438-0.024c0.184,0,0.336,0.009,0.454,0.024c0.117,0.016,0.21,0.042,0.277,0.078
			c0.067,0.036,0.116,0.08,0.146,0.13c0.031,0.051,0.045,0.108,0.045,0.17v8.235c0,0.861,0.067,1.562,0.201,2.104
			c0.132,0.542,0.333,1.007,0.598,1.39c0.268,0.385,0.607,0.681,1.021,0.891c0.416,0.21,0.9,0.315,1.453,0.315
			c0.707,0,1.41-0.249,2.111-0.752c0.703-0.502,1.448-1.24,2.236-2.212v-9.971c0-0.061,0.013-0.119,0.038-0.17
			c0.027-0.051,0.076-0.094,0.146-0.13c0.072-0.036,0.166-0.061,0.284-0.078c0.119-0.015,0.269-0.024,0.454-0.024
			c0.175,0,0.32,0.009,0.437,0.024c0.119,0.016,0.211,0.042,0.276,0.078c0.067,0.036,0.116,0.08,0.146,0.13
			c0.031,0.051,0.047,0.108,0.047,0.17V357.909z"/>
		<path fill="#181715" d="M588.307,354.207c0,0.665-0.123,1.262-0.369,1.79c-0.246,0.528-0.596,0.976-1.052,1.345
			s-1.001,0.649-1.636,0.844c-0.636,0.195-1.338,0.291-2.106,0.291c-0.481,0-0.936-0.038-1.367-0.114
			c-0.43-0.078-0.821-0.175-1.168-0.293c-0.349-0.118-0.643-0.242-0.884-0.376c-0.24-0.134-0.417-0.251-0.53-0.352
			c-0.114-0.103-0.195-0.231-0.246-0.385c-0.052-0.154-0.078-0.358-0.078-0.615c0-0.134,0.011-0.251,0.031-0.353
			c0.022-0.103,0.047-0.19,0.078-0.262c0.031-0.072,0.07-0.125,0.123-0.161c0.051-0.036,0.107-0.054,0.168-0.054
			c0.114,0,0.277,0.072,0.492,0.215c0.215,0.143,0.484,0.3,0.808,0.468c0.322,0.17,0.707,0.325,1.151,0.47
			c0.447,0.143,0.96,0.213,1.544,0.213c0.472,0,0.902-0.051,1.291-0.152c0.39-0.103,0.728-0.257,1.014-0.463
			c0.288-0.204,0.51-0.468,0.669-0.79c0.159-0.323,0.239-0.7,0.239-1.13c0-0.43-0.103-0.794-0.307-1.092
			c-0.206-0.296-0.474-0.555-0.806-0.776c-0.334-0.22-0.712-0.414-1.137-0.584c-0.427-0.168-0.861-0.344-1.307-0.522
			c-0.445-0.179-0.88-0.376-1.305-0.591c-0.427-0.215-0.804-0.477-1.137-0.785c-0.334-0.307-0.602-0.676-0.808-1.106
			c-0.204-0.43-0.307-0.947-0.307-1.551c0-0.481,0.092-0.954,0.277-1.421c0.184-0.466,0.47-0.884,0.853-1.253
			c0.385-0.369,0.877-0.665,1.475-0.891c0.6-0.226,1.309-0.338,2.128-0.338c0.349,0,0.694,0.029,1.038,0.085
			c0.344,0.056,0.656,0.13,0.938,0.222c0.28,0.092,0.524,0.192,0.728,0.3c0.206,0.107,0.362,0.202,0.47,0.284
			c0.107,0.081,0.179,0.152,0.215,0.208c0.034,0.056,0.062,0.114,0.076,0.175c0.016,0.061,0.029,0.137,0.038,0.224
			c0.011,0.087,0.016,0.192,0.016,0.314c0,0.123-0.007,0.233-0.024,0.331c-0.014,0.098-0.038,0.181-0.069,0.253
			c-0.031,0.072-0.069,0.125-0.116,0.161c-0.045,0.036-0.099,0.054-0.161,0.054c-0.083,0-0.206-0.056-0.369-0.17
			c-0.164-0.112-0.38-0.235-0.645-0.369c-0.268-0.132-0.584-0.255-0.953-0.369c-0.369-0.112-0.794-0.168-1.276-0.168
			c-0.481,0-0.904,0.056-1.267,0.168c-0.363,0.114-0.663,0.273-0.898,0.477c-0.237,0.204-0.412,0.445-0.53,0.723
			c-0.119,0.275-0.177,0.578-0.177,0.906c0,0.45,0.101,0.83,0.307,1.137c0.204,0.307,0.475,0.573,0.813,0.799
			c0.338,0.226,0.723,0.425,1.153,0.6c0.43,0.174,0.868,0.347,1.314,0.521c0.445,0.175,0.882,0.367,1.312,0.576
			c0.43,0.21,0.815,0.465,1.153,0.761c0.338,0.296,0.609,0.652,0.813,1.068C588.206,353.122,588.307,353.621,588.307,354.207z"/>
		<path fill="#181715" d="M601.758,354.207c0,0.665-0.123,1.262-0.369,1.79c-0.246,0.528-0.597,0.976-1.054,1.345
			c-0.455,0.369-1,0.649-1.636,0.844c-0.634,0.195-1.336,0.291-2.104,0.291c-0.483,0-0.938-0.038-1.368-0.114
			c-0.43-0.078-0.819-0.175-1.168-0.293c-0.347-0.118-0.642-0.242-0.884-0.376c-0.24-0.134-0.416-0.251-0.53-0.352
			c-0.112-0.103-0.193-0.231-0.246-0.385c-0.051-0.154-0.076-0.358-0.076-0.615c0-0.134,0.009-0.251,0.031-0.353
			c0.02-0.103,0.045-0.19,0.076-0.262c0.031-0.072,0.072-0.125,0.123-0.161c0.052-0.036,0.109-0.054,0.17-0.054
			c0.112,0,0.277,0.072,0.492,0.215c0.215,0.143,0.483,0.3,0.806,0.468c0.322,0.17,0.707,0.325,1.151,0.47
			c0.446,0.143,0.962,0.213,1.546,0.213c0.47,0,0.9-0.051,1.291-0.152c0.389-0.103,0.727-0.257,1.014-0.463
			c0.286-0.204,0.51-0.468,0.667-0.79c0.159-0.323,0.239-0.7,0.239-1.13c0-0.43-0.101-0.794-0.307-1.092
			c-0.204-0.296-0.474-0.555-0.806-0.776c-0.333-0.22-0.712-0.414-1.137-0.584c-0.425-0.168-0.86-0.344-1.307-0.522
			c-0.445-0.179-0.88-0.376-1.305-0.591s-0.804-0.477-1.137-0.785c-0.333-0.307-0.602-0.676-0.806-1.106
			c-0.206-0.43-0.307-0.947-0.307-1.551c0-0.481,0.092-0.954,0.277-1.421c0.184-0.466,0.468-0.884,0.851-1.253
			c0.385-0.369,0.877-0.665,1.475-0.891c0.6-0.226,1.309-0.338,2.129-0.338c0.347,0,0.694,0.029,1.036,0.085
			c0.344,0.056,0.656,0.13,0.938,0.222c0.282,0.092,0.524,0.192,0.73,0.3c0.204,0.107,0.36,0.202,0.468,0.284
			c0.107,0.081,0.179,0.152,0.215,0.208c0.036,0.056,0.061,0.114,0.076,0.175c0.016,0.061,0.029,0.137,0.04,0.224
			c0.009,0.087,0.014,0.192,0.014,0.314c0,0.123-0.007,0.233-0.023,0.331c-0.015,0.098-0.038,0.181-0.069,0.253
			s-0.069,0.125-0.116,0.161c-0.045,0.036-0.099,0.054-0.161,0.054c-0.081,0-0.204-0.056-0.369-0.17
			c-0.163-0.112-0.378-0.235-0.645-0.369c-0.266-0.132-0.584-0.255-0.953-0.369c-0.369-0.112-0.794-0.168-1.274-0.168
			c-0.483,0-0.904,0.056-1.269,0.168c-0.363,0.114-0.661,0.273-0.898,0.477c-0.235,0.204-0.412,0.445-0.53,0.723
			c-0.118,0.275-0.177,0.578-0.177,0.906c0,0.45,0.103,0.83,0.307,1.137c0.206,0.307,0.477,0.573,0.815,0.799
			c0.338,0.226,0.721,0.425,1.151,0.6c0.43,0.174,0.868,0.347,1.314,0.521c0.445,0.175,0.884,0.367,1.314,0.576
			c0.43,0.21,0.813,0.465,1.151,0.761c0.338,0.296,0.609,0.652,0.815,1.068C601.655,353.122,601.758,353.621,601.758,354.207z"/>
		<path fill="#181715" d="M616.633,355.85c0,0.123-0.005,0.233-0.014,0.331c-0.011,0.098-0.025,0.181-0.047,0.253
			c-0.02,0.072-0.049,0.136-0.083,0.192c-0.036,0.056-0.121,0.152-0.255,0.286c-0.132,0.132-0.356,0.302-0.667,0.506
			c-0.313,0.204-0.663,0.383-1.054,0.539c-0.389,0.152-0.808,0.278-1.26,0.376c-0.45,0.098-0.917,0.144-1.397,0.144
			c-0.963,0-1.817-0.161-2.558-0.483c-0.743-0.323-1.367-0.799-1.867-1.43c-0.503-0.629-0.884-1.403-1.144-2.319
			c-0.262-0.916-0.392-1.976-0.392-3.172c0-1.352,0.161-2.511,0.484-3.474c0.322-0.962,0.765-1.75,1.329-2.364
			c0.562-0.615,1.222-1.068,1.974-1.361c0.754-0.291,1.56-0.437,2.42-0.437c0.461,0,0.9,0.043,1.321,0.13
			c0.419,0.087,0.806,0.202,1.16,0.345c0.353,0.145,0.667,0.307,0.944,0.492c0.277,0.184,0.479,0.342,0.607,0.47
			c0.128,0.128,0.215,0.224,0.262,0.291c0.045,0.067,0.081,0.141,0.107,0.222c0.025,0.083,0.043,0.172,0.054,0.269
			c0.009,0.098,0.014,0.213,0.014,0.345c0,0.298-0.043,0.506-0.13,0.624c-0.087,0.117-0.182,0.175-0.284,0.175
			c-0.145,0-0.32-0.09-0.53-0.275c-0.212-0.185-0.479-0.387-0.808-0.607c-0.327-0.221-0.725-0.423-1.189-0.607
			c-0.466-0.185-1.023-0.277-1.668-0.277c-1.33,0-2.357,0.512-3.08,1.536c-0.721,1.025-1.083,2.504-1.083,4.441
			c0,0.972,0.098,1.826,0.291,2.558c0.195,0.732,0.474,1.341,0.839,1.828c0.363,0.486,0.806,0.851,1.328,1.092
			c0.523,0.24,1.112,0.361,1.766,0.361c0.615,0,1.159-0.098,1.629-0.293c0.472-0.195,0.882-0.41,1.229-0.645
			c0.349-0.235,0.638-0.45,0.87-0.645c0.23-0.195,0.401-0.293,0.513-0.293c0.061,0,0.116,0.018,0.163,0.054
			c0.045,0.036,0.083,0.092,0.114,0.17c0.031,0.076,0.054,0.168,0.07,0.277C616.625,355.581,616.633,355.707,616.633,355.85z"/>
		<path fill="#181715" d="M632.615,357.909c0,0.061-0.016,0.117-0.047,0.17c-0.031,0.051-0.079,0.09-0.146,0.123
			c-0.065,0.029-0.157,0.056-0.277,0.076c-0.117,0.02-0.262,0.031-0.437,0.031c-0.184,0-0.334-0.011-0.454-0.031
			c-0.118-0.02-0.21-0.047-0.277-0.076c-0.065-0.033-0.114-0.072-0.145-0.123c-0.031-0.052-0.047-0.108-0.047-0.17v-8.25
			c0-0.86-0.067-1.56-0.199-2.099c-0.134-0.537-0.333-0.998-0.6-1.383c-0.266-0.383-0.607-0.681-1.021-0.891
			c-0.416-0.21-0.898-0.315-1.451-0.315c-0.707,0-1.414,0.251-2.12,0.754c-0.707,0.501-1.45,1.238-2.229,2.212v9.971
			c0,0.061-0.015,0.117-0.045,0.17c-0.031,0.051-0.079,0.09-0.146,0.123c-0.067,0.029-0.159,0.056-0.277,0.076
			c-0.118,0.02-0.269,0.031-0.454,0.031c-0.174,0-0.32-0.011-0.437-0.031c-0.118-0.02-0.213-0.047-0.284-0.076
			c-0.072-0.033-0.121-0.072-0.146-0.123c-0.025-0.052-0.038-0.108-0.038-0.17v-20.711c0-0.061,0.013-0.118,0.038-0.17
			c0.025-0.051,0.074-0.094,0.146-0.13c0.07-0.036,0.166-0.061,0.284-0.076c0.117-0.016,0.264-0.024,0.437-0.024
			c0.184,0,0.336,0.007,0.454,0.024c0.118,0.015,0.21,0.04,0.277,0.076c0.067,0.036,0.116,0.079,0.146,0.13
			c0.031,0.052,0.045,0.109,0.045,0.17v8.68c0.759-0.839,1.516-1.457,2.274-1.851c0.759-0.394,1.516-0.591,2.274-0.591
			c0.913,0,1.681,0.154,2.305,0.461c0.625,0.307,1.13,0.723,1.513,1.244c0.385,0.524,0.662,1.133,0.83,1.829
			c0.17,0.696,0.255,1.536,0.255,2.52V357.909z"/>
		<path fill="#181715" d="M648.171,357.909c0,0.103-0.033,0.183-0.099,0.238c-0.067,0.056-0.154,0.098-0.26,0.123
			c-0.108,0.025-0.255,0.038-0.439,0.038c-0.173,0-0.322-0.013-0.445-0.038c-0.123-0.025-0.219-0.067-0.284-0.123
			c-0.067-0.056-0.101-0.135-0.101-0.238v-1.551c-0.624,0.676-1.312,1.197-2.066,1.565c-0.752,0.369-1.535,0.553-2.343,0.553
			c-0.728,0-1.381-0.094-1.959-0.284c-0.578-0.19-1.068-0.461-1.468-0.813c-0.399-0.354-0.707-0.781-0.922-1.283
			c-0.215-0.503-0.322-1.065-0.322-1.69c0-0.768,0.159-1.437,0.475-2.005c0.318-0.569,0.768-1.043,1.352-1.423
			c0.584-0.378,1.285-0.662,2.106-0.851c0.819-0.19,1.73-0.284,2.735-0.284h2.212v-1.2c0-0.593-0.061-1.119-0.184-1.574
			c-0.123-0.456-0.324-0.837-0.6-1.144c-0.277-0.307-0.634-0.539-1.075-0.691c-0.439-0.155-0.978-0.231-1.612-0.231
			c-0.615,0-1.168,0.074-1.659,0.222c-0.492,0.148-0.922,0.316-1.291,0.501c-0.369,0.184-0.674,0.351-0.915,0.499
			c-0.24,0.148-0.412,0.222-0.515,0.222c-0.061,0-0.118-0.011-0.168-0.031c-0.052-0.02-0.096-0.06-0.13-0.116
			c-0.036-0.056-0.061-0.128-0.078-0.215c-0.014-0.087-0.023-0.192-0.023-0.314c0-0.215,0.016-0.387,0.047-0.515
			c0.031-0.128,0.11-0.255,0.239-0.383c0.126-0.128,0.354-0.28,0.683-0.454c0.327-0.173,0.703-0.336,1.13-0.484
			c0.425-0.148,0.882-0.269,1.374-0.36c0.492-0.094,0.983-0.139,1.475-0.139c0.953,0,1.757,0.116,2.413,0.345
			c0.654,0.231,1.186,0.56,1.591,0.991c0.403,0.43,0.692,0.962,0.868,1.591c0.173,0.631,0.26,1.345,0.26,2.144V357.909z
			 M646.344,351.347h-2.536c-0.737,0-1.383,0.067-1.936,0.201c-0.553,0.134-1.014,0.327-1.383,0.584
			c-0.369,0.257-0.642,0.564-0.821,0.922c-0.181,0.358-0.269,0.768-0.269,1.229c0,0.799,0.253,1.437,0.761,1.912
			c0.506,0.477,1.22,0.716,2.142,0.716c0.728,0,1.406-0.188,2.037-0.562c0.629-0.374,1.298-0.949,2.005-1.728V351.347z"/>
		<path fill="#181715" d="M665.289,357.909c0,0.061-0.013,0.117-0.04,0.17c-0.025,0.051-0.074,0.09-0.145,0.123
			c-0.072,0.029-0.164,0.056-0.277,0.076c-0.114,0.02-0.251,0.031-0.416,0.031c-0.184,0-0.333-0.011-0.445-0.031
			c-0.114-0.02-0.201-0.047-0.262-0.076c-0.061-0.033-0.105-0.072-0.13-0.123c-0.025-0.052-0.038-0.108-0.038-0.17v-1.967
			c-0.799,0.891-1.58,1.536-2.345,1.936c-0.763,0.399-1.522,0.598-2.281,0.598c-0.911,0-1.679-0.152-2.305-0.459
			c-0.624-0.307-1.13-0.725-1.513-1.253c-0.385-0.528-0.662-1.141-0.83-1.837c-0.17-0.696-0.253-1.536-0.253-2.52v-8.404
			c0-0.061,0.013-0.119,0.038-0.17c0.025-0.051,0.074-0.094,0.146-0.13c0.07-0.036,0.166-0.061,0.284-0.078
			c0.117-0.015,0.264-0.024,0.437-0.024c0.184,0,0.336,0.009,0.454,0.024c0.118,0.016,0.21,0.042,0.277,0.078
			c0.067,0.036,0.116,0.08,0.146,0.13c0.031,0.051,0.045,0.108,0.045,0.17v8.235c0,0.861,0.067,1.562,0.201,2.104
			c0.132,0.542,0.333,1.007,0.598,1.39c0.268,0.385,0.607,0.681,1.021,0.891c0.416,0.21,0.9,0.315,1.453,0.315
			c0.707,0,1.41-0.249,2.111-0.752c0.703-0.502,1.448-1.24,2.236-2.212v-9.971c0-0.061,0.013-0.119,0.038-0.17
			c0.027-0.051,0.076-0.094,0.146-0.13c0.072-0.036,0.166-0.061,0.284-0.078c0.119-0.015,0.269-0.024,0.454-0.024
			c0.175,0,0.32,0.009,0.437,0.024c0.119,0.016,0.212,0.042,0.277,0.078c0.067,0.036,0.116,0.08,0.146,0.13
			c0.031,0.051,0.047,0.108,0.047,0.17V357.909z"/>
		<path fill="#181715" d="M682.798,350.241c0,0.369-0.098,0.624-0.291,0.761c-0.195,0.139-0.385,0.208-0.569,0.208h-9.479
			c0,0.861,0.085,1.64,0.253,2.335c0.17,0.696,0.448,1.293,0.837,1.79c0.39,0.497,0.897,0.878,1.522,1.146
			c0.624,0.266,1.392,0.398,2.305,0.398c0.645,0,1.224-0.056,1.735-0.168c0.513-0.112,0.956-0.239,1.33-0.376
			c0.372-0.139,0.68-0.264,0.922-0.378c0.24-0.112,0.412-0.168,0.513-0.168c0.061,0,0.118,0.016,0.17,0.045
			c0.051,0.033,0.092,0.079,0.123,0.146c0.031,0.067,0.054,0.152,0.069,0.255c0.016,0.101,0.024,0.23,0.024,0.383
			c0,0.072-0.005,0.141-0.016,0.208c-0.009,0.067-0.022,0.128-0.038,0.184c-0.015,0.056-0.038,0.11-0.069,0.161
			c-0.031,0.051-0.072,0.103-0.123,0.154c-0.052,0.051-0.21,0.141-0.477,0.269c-0.266,0.128-0.615,0.255-1.045,0.383
			c-0.43,0.128-0.929,0.244-1.497,0.347c-0.569,0.101-1.182,0.152-1.837,0.152c-1.075,0-2.028-0.161-2.858-0.483
			c-0.83-0.323-1.528-0.799-2.09-1.43c-0.564-0.629-0.991-1.41-1.283-2.343c-0.291-0.933-0.438-2.014-0.438-3.243
			c0-1.177,0.15-2.232,0.454-3.163c0.302-0.933,0.734-1.724,1.298-2.375c0.562-0.651,1.242-1.146,2.035-1.489
			c0.794-0.344,1.677-0.515,2.65-0.515c1.045,0,1.936,0.173,2.673,0.522c0.737,0.349,1.345,0.817,1.822,1.406
			c0.475,0.589,0.824,1.273,1.045,2.05c0.219,0.779,0.329,1.598,0.329,2.458V350.241z M680.909,349.704
			c0.031-1.475-0.307-2.626-1.014-3.458c-0.707-0.828-1.737-1.244-3.089-1.244c-0.696,0-1.309,0.13-1.835,0.392
			c-0.528,0.26-0.974,0.605-1.338,1.036c-0.363,0.43-0.644,0.931-0.837,1.498c-0.195,0.569-0.307,1.16-0.338,1.775H680.909z"/>
		<path fill="#181715" d="M699.2,357.909c0,0.061-0.014,0.117-0.045,0.17c-0.031,0.051-0.08,0.09-0.146,0.123
			c-0.067,0.029-0.159,0.056-0.277,0.076c-0.118,0.02-0.264,0.031-0.438,0.031c-0.184,0-0.336-0.011-0.454-0.031
			c-0.117-0.02-0.21-0.047-0.277-0.076c-0.067-0.033-0.114-0.072-0.146-0.123c-0.029-0.052-0.045-0.108-0.045-0.17v-8.25
			c0-0.86-0.067-1.56-0.201-2.099c-0.132-0.537-0.333-0.998-0.598-1.383c-0.266-0.383-0.607-0.681-1.021-0.891
			c-0.416-0.21-0.9-0.315-1.453-0.315c-0.705,0-1.414,0.251-2.118,0.754c-0.709,0.501-1.45,1.238-2.229,2.212v9.971
			c0,0.061-0.016,0.117-0.045,0.17c-0.032,0.051-0.079,0.09-0.146,0.123c-0.067,0.029-0.159,0.056-0.277,0.076
			c-0.118,0.02-0.269,0.031-0.454,0.031c-0.174,0-0.32-0.011-0.438-0.031c-0.117-0.02-0.213-0.047-0.284-0.076
			c-0.072-0.033-0.121-0.072-0.146-0.123c-0.025-0.052-0.038-0.108-0.038-0.17v-13.904c0-0.061,0.013-0.119,0.038-0.17
			c0.025-0.051,0.074-0.094,0.146-0.13c0.07-0.036,0.161-0.061,0.268-0.078c0.108-0.015,0.249-0.024,0.423-0.024
			c0.174,0,0.318,0.009,0.43,0.024c0.112,0.016,0.199,0.042,0.26,0.078c0.061,0.036,0.107,0.08,0.132,0.13
			c0.025,0.051,0.038,0.108,0.038,0.17v1.967c0.799-0.893,1.583-1.536,2.35-1.938c0.77-0.398,1.533-0.598,2.29-0.598
			c0.911,0,1.679,0.154,2.305,0.461c0.626,0.307,1.13,0.723,1.513,1.244c0.385,0.524,0.662,1.133,0.83,1.829
			c0.17,0.696,0.253,1.536,0.253,2.52V357.909z"/>
		<path fill="#181715" d="M716.477,357.909c0,0.072-0.013,0.134-0.038,0.184c-0.025,0.051-0.071,0.092-0.137,0.123
			c-0.067,0.031-0.152,0.054-0.255,0.069c-0.101,0.016-0.23,0.024-0.383,0.024c-0.164,0-0.3-0.007-0.407-0.024
			c-0.108-0.015-0.195-0.038-0.262-0.069c-0.067-0.031-0.118-0.072-0.154-0.123c-0.036-0.051-0.052-0.112-0.052-0.184v-1.997
			c-0.737,0.799-1.502,1.426-2.29,1.882c-0.788,0.456-1.648,0.683-2.581,0.683c-1.003,0-1.86-0.193-2.565-0.582
			c-0.709-0.39-1.283-0.918-1.73-1.583c-0.445-0.665-0.77-1.446-0.974-2.343c-0.206-0.897-0.307-1.847-0.307-2.851
			c0-1.178,0.127-2.241,0.383-3.189s0.634-1.753,1.137-2.42c0.503-0.665,1.123-1.177,1.86-1.536
			c0.738-0.358,1.593-0.537,2.565-0.537c0.841,0,1.609,0.186,2.305,0.56c0.696,0.374,1.383,0.925,2.059,1.652v-8.375
			c0-0.061,0.013-0.117,0.038-0.168c0.025-0.051,0.074-0.092,0.146-0.123c0.072-0.031,0.166-0.056,0.284-0.078
			c0.118-0.02,0.264-0.029,0.437-0.029c0.185,0,0.336,0.009,0.454,0.029c0.118,0.022,0.21,0.047,0.277,0.078
			c0.067,0.031,0.116,0.072,0.146,0.123c0.031,0.051,0.045,0.107,0.045,0.168V357.909z M714.65,347.877
			c-0.768-0.933-1.507-1.645-2.22-2.137c-0.712-0.492-1.457-0.738-2.236-0.738c-0.707,0-1.31,0.17-1.813,0.506
			c-0.503,0.34-0.911,0.785-1.229,1.338c-0.318,0.553-0.548,1.179-0.692,1.875c-0.143,0.696-0.213,1.403-0.213,2.12
			c0,0.768,0.061,1.517,0.184,2.243c0.123,0.727,0.333,1.376,0.629,1.943c0.296,0.569,0.691,1.025,1.182,1.368
			c0.492,0.343,1.106,0.515,1.844,0.515c0.369,0,0.728-0.052,1.077-0.155c0.347-0.101,0.705-0.271,1.074-0.506
			c0.369-0.235,0.752-0.541,1.146-0.915c0.394-0.374,0.817-0.837,1.267-1.39V347.877z"/>
		<path fill="#181715" d="M725,356.833c0,0.604-0.098,1.003-0.293,1.199c-0.193,0.195-0.542,0.293-1.045,0.293
			c-0.481,0-0.815-0.096-1.005-0.286c-0.19-0.19-0.286-0.58-0.286-1.175c0-0.604,0.098-1.003,0.293-1.198
			c0.195-0.195,0.542-0.291,1.045-0.291c0.481,0,0.817,0.094,1.007,0.284C724.906,355.848,725,356.239,725,356.833z"/>
	</g>
	<g>
		<path fill="#181715" d="M140.731,267.421c0,0.112-0.027,0.215-0.083,0.308c-0.056,0.094-0.15,0.168-0.28,0.224
			c-0.132,0.056-0.304,0.102-0.519,0.14c-0.213,0.037-0.49,0.056-0.826,0.056c-0.318,0-0.587-0.019-0.812-0.056
			c-0.224-0.038-0.403-0.084-0.533-0.14c-0.132-0.056-0.224-0.13-0.28-0.224c-0.056-0.093-0.083-0.196-0.083-0.308v-35.134
			c0-0.112,0.033-0.214,0.098-0.308c0.065-0.093,0.168-0.168,0.307-0.224c0.141-0.056,0.318-0.102,0.533-0.14
			c0.215-0.037,0.472-0.056,0.77-0.056c0.336,0,0.613,0.019,0.826,0.056c0.215,0.038,0.387,0.084,0.519,0.14
			c0.13,0.056,0.224,0.131,0.28,0.224c0.056,0.094,0.083,0.196,0.083,0.308V267.421z"/>
		<path fill="#181715" d="M176.872,267.421c0,0.112-0.029,0.215-0.083,0.308c-0.058,0.094-0.152,0.168-0.282,0.224
			c-0.13,0.056-0.307,0.102-0.532,0.14c-0.224,0.037-0.495,0.056-0.813,0.056c-0.336,0-0.611-0.019-0.824-0.056
			c-0.217-0.038-0.39-0.084-0.521-0.14c-0.13-0.056-0.224-0.13-0.278-0.224c-0.058-0.093-0.085-0.196-0.085-0.308v-16.895h-18.1
			v16.895c0,0.112-0.029,0.215-0.083,0.308c-0.058,0.094-0.152,0.168-0.282,0.224c-0.13,0.056-0.304,0.102-0.517,0.14
			c-0.215,0.037-0.492,0.056-0.828,0.056c-0.318,0-0.587-0.019-0.812-0.056c-0.224-0.038-0.403-0.084-0.533-0.14
			c-0.13-0.056-0.224-0.13-0.278-0.224c-0.058-0.093-0.085-0.196-0.085-0.308v-35.134c0-0.112,0.027-0.214,0.085-0.308
			c0.054-0.093,0.148-0.168,0.278-0.224c0.13-0.056,0.309-0.102,0.533-0.14c0.224-0.037,0.493-0.056,0.812-0.056
			c0.336,0,0.613,0.019,0.828,0.056c0.213,0.038,0.387,0.084,0.517,0.14c0.13,0.056,0.224,0.131,0.282,0.224
			c0.054,0.094,0.083,0.196,0.083,0.308v15.186h18.1v-15.186c0-0.112,0.027-0.214,0.085-0.308c0.054-0.093,0.148-0.168,0.278-0.224
			c0.13-0.056,0.304-0.102,0.521-0.14c0.213-0.037,0.488-0.056,0.824-0.056c0.318,0,0.589,0.019,0.813,0.056
			c0.224,0.038,0.401,0.084,0.532,0.14c0.13,0.056,0.224,0.131,0.282,0.224c0.054,0.094,0.083,0.196,0.083,0.308V267.421z"/>
		<path fill="#181715" d="M210.772,267.365c0,0.131-0.024,0.243-0.069,0.336c-0.047,0.094-0.137,0.173-0.268,0.238
			c-0.13,0.065-0.313,0.116-0.546,0.154c-0.235,0.037-0.528,0.056-0.882,0.056c-0.318,0-0.586-0.014-0.799-0.042
			c-0.215-0.029-0.398-0.085-0.546-0.168c-0.152-0.085-0.271-0.197-0.365-0.336c-0.094-0.141-0.177-0.323-0.253-0.547l-3.389-8.798
			c-0.392-0.99-0.812-1.923-1.26-2.802c-0.448-0.878-0.991-1.639-1.627-2.284c-0.635-0.644-1.399-1.152-2.296-1.527
			c-0.897-0.373-1.972-0.56-3.223-0.56h-3.754v16.334c0,0.112-0.029,0.215-0.083,0.308c-0.058,0.094-0.152,0.168-0.282,0.224
			c-0.13,0.056-0.304,0.102-0.517,0.14c-0.215,0.037-0.492,0.056-0.828,0.056c-0.318,0-0.587-0.019-0.812-0.056
			c-0.224-0.038-0.403-0.084-0.533-0.14c-0.13-0.056-0.224-0.13-0.278-0.224c-0.058-0.093-0.085-0.196-0.085-0.308v-33.93
			c0-0.672,0.177-1.134,0.533-1.387c0.354-0.251,0.7-0.378,1.036-0.378h6.809c0.897,0,1.638,0.024,2.227,0.071
			c0.589,0.046,1.124,0.107,1.611,0.182c1.383,0.243,2.587,0.635,3.613,1.177c1.027,0.542,1.878,1.209,2.55,2.004
			c0.672,0.794,1.173,1.69,1.499,2.69c0.327,0.999,0.492,2.078,0.492,3.236c0,1.196-0.17,2.265-0.506,3.209
			c-0.336,0.943-0.812,1.774-1.428,2.493c-0.616,0.719-1.356,1.341-2.212,1.863c-0.861,0.523-1.804,0.963-2.831,1.317
			c0.616,0.28,1.171,0.626,1.667,1.037c0.495,0.411,0.954,0.907,1.374,1.485c0.419,0.579,0.817,1.246,1.189,2.004
			c0.374,0.756,0.748,1.601,1.121,2.535l3.391,8.461c0.242,0.654,0.398,1.103,0.463,1.345
			C210.739,267.076,210.772,267.253,210.772,267.365z M204.749,241.449c0-1.55-0.347-2.862-1.038-3.936
			c-0.691-1.075-1.849-1.845-3.474-2.312c-0.542-0.149-1.132-0.257-1.764-0.322c-0.636-0.066-1.468-0.098-2.495-0.098h-4.483v13.308
			h5.211c1.401,0,2.605-0.173,3.613-0.519c1.009-0.345,1.846-0.816,2.509-1.414c0.661-0.597,1.15-1.298,1.457-2.101
			C204.593,243.252,204.749,242.383,204.749,241.449z"/>
		<path fill="#181715" d="M155.665,313.705c0,1.607-0.289,3.045-0.868,4.315c-0.58,1.271-1.392,2.349-2.438,3.236
			c-1.047,0.888-2.288,1.565-3.725,2.032c-1.439,0.466-3.008,0.7-4.707,0.7c-1.161,0-2.252-0.108-3.279-0.323
			c-1.027-0.214-1.943-0.471-2.746-0.77c-0.804-0.298-1.48-0.602-2.032-0.911c-0.551-0.307-0.929-0.569-1.133-0.784
			c-0.206-0.214-0.356-0.466-0.448-0.756c-0.094-0.29-0.141-0.649-0.141-1.079c0-0.317,0.018-0.578,0.056-0.785
			c0.038-0.205,0.089-0.373,0.154-0.504c0.065-0.13,0.15-0.22,0.253-0.266c0.101-0.047,0.21-0.07,0.322-0.07
			c0.26,0,0.631,0.164,1.106,0.49c0.477,0.327,1.094,0.682,1.849,1.065c0.757,0.383,1.663,0.738,2.719,1.065
			c1.054,0.327,2.283,0.491,3.684,0.491c1.139,0,2.185-0.155,3.138-0.462c0.953-0.309,1.773-0.752,2.466-1.331
			c0.691-0.578,1.227-1.293,1.61-2.143c0.383-0.85,0.575-1.817,0.575-2.9c0-1.121-0.242-2.082-0.729-2.886
			c-0.486-0.803-1.126-1.508-1.92-2.115c-0.794-0.607-1.694-1.159-2.702-1.654c-1.009-0.494-2.042-0.99-3.096-1.484
			c-1.056-0.495-2.088-1.032-3.096-1.611c-1.009-0.578-1.909-1.256-2.704-2.031c-0.794-0.775-1.433-1.686-1.92-2.732
			c-0.484-1.046-0.727-2.288-0.727-3.726c0-1.401,0.251-2.657,0.755-3.769c0.504-1.111,1.215-2.054,2.129-2.829
			c0.915-0.776,2.014-1.368,3.292-1.78c1.28-0.41,2.684-0.616,4.217-0.616c0.766,0,1.54,0.075,2.325,0.224
			c0.785,0.15,1.527,0.341,2.229,0.574c0.7,0.234,1.325,0.495,1.876,0.785c0.551,0.29,0.916,0.523,1.094,0.701
			c0.177,0.177,0.289,0.307,0.336,0.392c0.047,0.083,0.087,0.192,0.126,0.322c0.036,0.131,0.065,0.285,0.083,0.463
			c0.018,0.177,0.029,0.397,0.029,0.658c0,0.243-0.014,0.463-0.043,0.658c-0.027,0.197-0.069,0.365-0.127,0.504
			c-0.054,0.141-0.125,0.249-0.21,0.323c-0.083,0.075-0.181,0.112-0.293,0.112c-0.206,0-0.519-0.136-0.94-0.406
			c-0.419-0.271-0.947-0.575-1.583-0.911c-0.635-0.336-1.392-0.64-2.269-0.911c-0.878-0.27-1.878-0.406-2.999-0.406
			c-1.103,0-2.064,0.15-2.885,0.448c-0.822,0.299-1.504,0.705-2.046,1.219c-0.542,0.513-0.947,1.116-1.218,1.807
			c-0.271,0.691-0.405,1.42-0.405,2.185c0,1.121,0.242,2.083,0.727,2.886c0.486,0.803,1.132,1.513,1.934,2.129
			c0.803,0.616,1.714,1.172,2.731,1.667c1.018,0.495,2.055,0.991,3.111,1.486c1.056,0.494,2.091,1.027,3.109,1.596
			c1.02,0.57,1.929,1.243,2.733,2.017c0.803,0.775,1.446,1.681,1.932,2.719C155.423,311.057,155.665,312.286,155.665,313.705z"/>
		<path fill="#181715" d="M187.273,288.825c0,0.243-0.02,0.458-0.058,0.644c-0.036,0.187-0.094,0.341-0.166,0.462
			c-0.076,0.122-0.17,0.215-0.282,0.28c-0.112,0.066-0.233,0.098-0.363,0.098h-10.815v32.641c0,0.112-0.029,0.215-0.083,0.308
			c-0.058,0.094-0.152,0.168-0.282,0.224c-0.13,0.056-0.307,0.102-0.531,0.14c-0.224,0.037-0.495,0.056-0.813,0.056
			c-0.318,0-0.587-0.019-0.812-0.056c-0.224-0.038-0.403-0.084-0.533-0.14c-0.13-0.056-0.224-0.13-0.278-0.224
			c-0.058-0.093-0.085-0.196-0.085-0.308V290.31h-10.815c-0.15,0-0.275-0.032-0.378-0.098c-0.103-0.065-0.193-0.158-0.266-0.28
			c-0.076-0.121-0.132-0.275-0.17-0.462c-0.036-0.186-0.054-0.401-0.054-0.644c0-0.261,0.018-0.49,0.054-0.687
			c0.038-0.195,0.094-0.359,0.17-0.49c0.072-0.13,0.163-0.229,0.266-0.295c0.103-0.065,0.228-0.098,0.378-0.098h25.048
			c0.13,0,0.251,0.033,0.363,0.098c0.112,0.066,0.206,0.164,0.282,0.295c0.072,0.131,0.13,0.295,0.166,0.49
			C187.253,288.335,187.273,288.564,187.273,288.825z"/>
		<path fill="#181715" d="M214.044,321.998c0,0.243-0.02,0.458-0.058,0.644c-0.036,0.187-0.098,0.346-0.181,0.476
			c-0.085,0.131-0.183,0.229-0.295,0.295c-0.112,0.065-0.233,0.098-0.363,0.098h-16.981c-0.336,0-0.681-0.127-1.036-0.378
			c-0.356-0.253-0.533-0.715-0.533-1.387v-32.725c0-0.672,0.177-1.134,0.533-1.387c0.354-0.251,0.7-0.378,1.036-0.378h16.728
			c0.13,0,0.253,0.033,0.365,0.098c0.112,0.066,0.204,0.164,0.278,0.295c0.076,0.131,0.13,0.295,0.17,0.49
			c0.036,0.197,0.054,0.426,0.054,0.687c0,0.243-0.018,0.458-0.054,0.644c-0.04,0.187-0.094,0.341-0.17,0.462
			c-0.074,0.122-0.166,0.215-0.278,0.28c-0.112,0.066-0.235,0.098-0.365,0.098h-14.877v12.748h12.83c0.15,0,0.282,0.033,0.394,0.098
			c0.112,0.066,0.204,0.159,0.278,0.28c0.076,0.122,0.13,0.28,0.17,0.477c0.036,0.195,0.054,0.425,0.054,0.686
			c0,0.243-0.018,0.453-0.054,0.63c-0.04,0.178-0.094,0.323-0.17,0.435c-0.074,0.112-0.166,0.196-0.278,0.252
			c-0.112,0.056-0.244,0.084-0.394,0.084h-12.83v14.457h15.13c0.13,0,0.251,0.033,0.363,0.098c0.112,0.065,0.21,0.158,0.295,0.28
			c0.083,0.121,0.145,0.28,0.181,0.475C214.024,321.508,214.044,321.737,214.044,321.998z"/>
		<path fill="#181715" d="M248.616,310.175c0,2.204-0.311,4.166-0.936,5.884c-0.627,1.719-1.518,3.166-2.677,4.343
			c-1.159,1.177-2.56,2.069-4.203,2.676c-1.645,0.606-3.485,0.91-5.52,0.91c-1.847,0-3.554-0.29-5.112-0.869
			c-1.56-0.578-2.905-1.433-4.035-2.563c-1.132-1.131-2.008-2.532-2.635-4.203c-0.625-1.672-0.936-3.601-0.936-5.786v-22.75
			c0-0.112,0.027-0.214,0.083-0.308c0.056-0.093,0.155-0.168,0.293-0.224c0.141-0.056,0.315-0.102,0.521-0.14
			c0.204-0.037,0.475-0.056,0.812-0.056c0.316,0,0.587,0.019,0.812,0.056c0.224,0.038,0.401,0.084,0.533,0.14
			c0.13,0.056,0.224,0.131,0.28,0.224c0.056,0.094,0.083,0.196,0.083,0.308v22.19c0,1.812,0.22,3.4,0.658,4.763
			c0.441,1.364,1.075,2.498,1.905,3.404c0.831,0.907,1.84,1.588,3.026,2.046c1.188,0.457,2.527,0.686,4.022,0.686
			c1.513,0,2.861-0.22,4.047-0.659c1.188-0.438,2.191-1.106,3.013-2.003c0.822-0.897,1.452-2.013,1.893-3.348
			c0.438-1.336,0.658-2.9,0.658-4.693v-22.386c0-0.112,0.027-0.214,0.083-0.308c0.056-0.093,0.148-0.168,0.28-0.224
			c0.13-0.056,0.309-0.102,0.533-0.14c0.224-0.037,0.494-0.056,0.812-0.056c0.316,0,0.587,0.019,0.812,0.056
			c0.224,0.038,0.401,0.084,0.533,0.14c0.13,0.056,0.224,0.131,0.28,0.224c0.056,0.094,0.083,0.196,0.083,0.308V310.175z"/>
		<path fill="#181715" d="M279.114,321.998c0,0.243-0.02,0.458-0.058,0.644c-0.036,0.187-0.098,0.346-0.181,0.476
			c-0.085,0.131-0.183,0.229-0.295,0.295c-0.112,0.065-0.233,0.098-0.363,0.098h-16.981c-0.336,0-0.681-0.127-1.036-0.378
			c-0.356-0.253-0.533-0.715-0.533-1.387v-32.725c0-0.672,0.177-1.134,0.533-1.387c0.354-0.251,0.7-0.378,1.036-0.378h16.728
			c0.13,0,0.253,0.033,0.365,0.098c0.112,0.066,0.204,0.164,0.278,0.295c0.076,0.131,0.13,0.295,0.17,0.49
			c0.036,0.197,0.054,0.426,0.054,0.687c0,0.243-0.018,0.458-0.054,0.644c-0.04,0.187-0.094,0.341-0.17,0.462
			c-0.074,0.122-0.166,0.215-0.278,0.28c-0.112,0.066-0.235,0.098-0.365,0.098h-14.877v12.748h12.83c0.15,0,0.282,0.033,0.394,0.098
			c0.112,0.066,0.204,0.159,0.278,0.28c0.076,0.122,0.13,0.28,0.17,0.477c0.036,0.195,0.054,0.425,0.054,0.686
			c0,0.243-0.018,0.453-0.054,0.63c-0.04,0.178-0.094,0.323-0.17,0.435c-0.074,0.112-0.166,0.196-0.278,0.252
			c-0.112,0.056-0.244,0.084-0.394,0.084h-12.83v14.457h15.13c0.13,0,0.251,0.033,0.363,0.098c0.112,0.065,0.21,0.158,0.295,0.28
			c0.083,0.121,0.145,0.28,0.181,0.475C279.094,321.508,279.114,321.737,279.114,321.998z"/>
		<path fill="#181715" d="M310.501,322.895c0,0.131-0.024,0.243-0.069,0.336c-0.047,0.094-0.137,0.173-0.268,0.239
			c-0.13,0.065-0.313,0.116-0.546,0.154c-0.235,0.037-0.528,0.056-0.882,0.056c-0.318,0-0.586-0.015-0.799-0.042
			c-0.215-0.029-0.398-0.085-0.546-0.168c-0.152-0.085-0.271-0.197-0.365-0.336c-0.094-0.141-0.177-0.323-0.253-0.547l-3.389-8.798
			c-0.392-0.99-0.812-1.923-1.26-2.802c-0.448-0.878-0.991-1.639-1.627-2.284c-0.635-0.644-1.399-1.152-2.296-1.527
			c-0.897-0.373-1.972-0.56-3.223-0.56h-3.754v16.335c0,0.112-0.029,0.215-0.083,0.308c-0.058,0.094-0.152,0.168-0.282,0.224
			c-0.13,0.056-0.304,0.102-0.517,0.14c-0.215,0.037-0.492,0.056-0.828,0.056c-0.318,0-0.587-0.019-0.812-0.056
			c-0.224-0.038-0.403-0.084-0.533-0.14c-0.13-0.056-0.224-0.13-0.278-0.224c-0.058-0.093-0.085-0.196-0.085-0.308v-33.93
			c0-0.672,0.177-1.134,0.533-1.387c0.354-0.251,0.7-0.378,1.036-0.378h6.809c0.897,0,1.638,0.024,2.227,0.07
			c0.589,0.046,1.124,0.108,1.611,0.182c1.383,0.243,2.587,0.635,3.613,1.177c1.027,0.542,1.878,1.209,2.55,2.004
			c0.672,0.794,1.173,1.69,1.499,2.69c0.327,0.999,0.492,2.078,0.492,3.236c0,1.196-0.17,2.265-0.506,3.208
			c-0.336,0.943-0.812,1.774-1.428,2.493c-0.616,0.719-1.356,1.341-2.212,1.864c-0.861,0.523-1.804,0.963-2.831,1.317
			c0.616,0.28,1.171,0.626,1.667,1.037c0.495,0.411,0.954,0.907,1.374,1.485c0.419,0.579,0.817,1.246,1.189,2.004
			c0.374,0.755,0.748,1.601,1.121,2.535l3.391,8.461c0.242,0.654,0.398,1.103,0.463,1.345
			C310.468,322.606,310.501,322.783,310.501,322.895z M304.478,296.978c0-1.55-0.347-2.862-1.038-3.936
			c-0.691-1.075-1.849-1.845-3.474-2.312c-0.542-0.149-1.132-0.257-1.764-0.322c-0.636-0.066-1.468-0.099-2.495-0.099h-4.483v13.309
			h5.211c1.401,0,2.605-0.173,3.613-0.519c1.009-0.345,1.846-0.816,2.509-1.415c0.662-0.597,1.15-1.298,1.457-2.101
			C304.322,298.781,304.478,297.913,304.478,296.978z"/>
		<path fill="#181715" d="M159.924,368.898c0,1.065-0.127,2.055-0.378,2.97c-0.253,0.916-0.613,1.747-1.079,2.493
			c-0.466,0.748-1.038,1.411-1.71,1.989c-0.672,0.579-1.432,1.069-2.283,1.471c-0.85,0.401-1.77,0.705-2.76,0.91
			c-0.991,0.206-2.138,0.308-3.445,0.308h-9.385c-0.336,0-0.683-0.127-1.038-0.378c-0.354-0.253-0.531-0.715-0.531-1.387v-32.725
			c0-0.672,0.177-1.134,0.531-1.387c0.354-0.251,0.701-0.378,1.038-0.378h7.787c2.111,0,3.821,0.215,5.128,0.644
			c1.307,0.43,2.386,1.041,3.236,1.836c0.851,0.794,1.486,1.755,1.905,2.885c0.421,1.131,0.631,2.387,0.631,3.769
			c0,0.86-0.098,1.681-0.295,2.466c-0.195,0.785-0.49,1.513-0.882,2.185c-0.392,0.672-0.882,1.28-1.471,1.821
			c-0.587,0.542-1.285,1-2.088,1.373c0.973,0.187,1.887,0.537,2.748,1.05c0.857,0.514,1.611,1.163,2.254,1.948
			c0.645,0.785,1.153,1.695,1.527,2.732C159.736,366.53,159.924,367.665,159.924,368.898z M153.928,352.144
			c0-0.953-0.132-1.817-0.392-2.592c-0.262-0.774-0.676-1.438-1.247-1.988c-0.569-0.551-1.312-0.976-2.227-1.275
			c-0.915-0.298-2.14-0.448-3.67-0.448h-5.661v13h6.222c1.363,0,2.465-0.182,3.304-0.547c0.842-0.363,1.533-0.854,2.075-1.47
			c0.541-0.616,0.942-1.331,1.204-2.143C153.796,353.866,153.928,353.022,153.928,352.144z M156.282,369.178
			c0-1.195-0.192-2.251-0.575-3.166c-0.381-0.915-0.942-1.681-1.681-2.297c-0.737-0.617-1.648-1.083-2.731-1.401
			c-1.085-0.317-2.429-0.476-4.035-0.476h-6.529v14.149h7.903c1.157,0,2.18-0.145,3.067-0.435c0.888-0.289,1.672-0.719,2.354-1.289
			c0.681-0.569,1.224-1.279,1.625-2.129C156.081,371.284,156.282,370.299,156.282,369.178z"/>
		<path fill="#181715" d="M188.309,377.528c0,0.243-0.02,0.458-0.056,0.644c-0.038,0.187-0.098,0.346-0.181,0.476
			c-0.087,0.131-0.184,0.229-0.296,0.295c-0.112,0.065-0.233,0.098-0.363,0.098h-16.979c-0.336,0-0.683-0.127-1.038-0.378
			c-0.354-0.253-0.531-0.715-0.531-1.387v-32.725c0-0.672,0.177-1.134,0.531-1.387c0.354-0.251,0.701-0.378,1.038-0.378h16.728
			c0.13,0,0.251,0.033,0.363,0.098c0.112,0.066,0.204,0.164,0.28,0.295c0.074,0.131,0.13,0.295,0.168,0.49
			c0.038,0.197,0.056,0.426,0.056,0.687c0,0.243-0.018,0.458-0.056,0.645c-0.038,0.187-0.094,0.341-0.168,0.462
			c-0.076,0.122-0.168,0.215-0.28,0.28c-0.112,0.066-0.233,0.098-0.363,0.098h-14.878v12.748h12.832c0.148,0,0.28,0.032,0.392,0.098
			c0.112,0.066,0.204,0.159,0.28,0.28c0.074,0.122,0.13,0.28,0.168,0.477c0.038,0.195,0.056,0.425,0.056,0.686
			c0,0.243-0.018,0.453-0.056,0.63c-0.038,0.178-0.094,0.323-0.168,0.435c-0.076,0.112-0.168,0.196-0.28,0.252
			c-0.112,0.056-0.244,0.084-0.392,0.084h-12.832v14.457h15.13c0.13,0,0.251,0.033,0.363,0.099c0.112,0.065,0.21,0.158,0.296,0.28
			c0.083,0.121,0.143,0.28,0.181,0.475C188.289,377.038,188.309,377.267,188.309,377.528z"/>
		<path fill="#181715" d="M219.698,378.424c0,0.131-0.025,0.243-0.07,0.336c-0.047,0.094-0.136,0.173-0.266,0.239
			c-0.132,0.065-0.315,0.116-0.548,0.154c-0.233,0.037-0.528,0.056-0.882,0.056c-0.318,0-0.584-0.014-0.799-0.042
			c-0.215-0.029-0.396-0.085-0.546-0.168c-0.15-0.085-0.271-0.197-0.363-0.336c-0.094-0.141-0.179-0.323-0.253-0.547l-3.391-8.798
			c-0.39-0.99-0.812-1.923-1.26-2.802c-0.448-0.878-0.991-1.638-1.625-2.284c-0.636-0.643-1.401-1.152-2.298-1.526
			c-0.897-0.373-1.972-0.56-3.223-0.56h-3.753v16.334c0,0.112-0.029,0.215-0.085,0.308c-0.056,0.094-0.15,0.168-0.28,0.224
			c-0.13,0.056-0.304,0.102-0.519,0.14c-0.215,0.037-0.49,0.056-0.826,0.056c-0.318,0-0.589-0.019-0.813-0.056
			c-0.224-0.038-0.401-0.084-0.532-0.14c-0.13-0.056-0.224-0.13-0.28-0.224c-0.056-0.093-0.085-0.196-0.085-0.308v-33.93
			c0-0.672,0.177-1.134,0.533-1.387c0.354-0.251,0.7-0.378,1.036-0.378h6.809c0.897,0,1.64,0.023,2.227,0.07
			c0.589,0.046,1.126,0.107,1.611,0.182c1.383,0.243,2.589,0.635,3.615,1.177c1.027,0.542,1.876,1.209,2.549,2.004
			c0.672,0.794,1.173,1.69,1.5,2.69c0.325,0.999,0.49,2.078,0.49,3.236c0,1.196-0.168,2.265-0.504,3.208
			c-0.336,0.943-0.813,1.774-1.428,2.493c-0.618,0.719-1.356,1.341-2.214,1.864c-0.859,0.523-1.802,0.962-2.829,1.317
			c0.615,0.28,1.171,0.626,1.667,1.037c0.495,0.411,0.953,0.907,1.372,1.485c0.421,0.579,0.817,1.246,1.191,2.004
			c0.372,0.756,0.746,1.602,1.121,2.535l3.391,8.461c0.242,0.654,0.396,1.103,0.461,1.345
			C219.665,378.135,219.698,378.312,219.698,378.424z M213.673,352.508c0-1.55-0.345-2.862-1.036-3.936
			c-0.692-1.075-1.851-1.845-3.474-2.312c-0.542-0.149-1.132-0.257-1.766-0.322c-0.635-0.066-1.466-0.098-2.493-0.098h-4.483v13.308
			h5.21c1.403,0,2.607-0.173,3.615-0.519c1.009-0.345,1.844-0.816,2.507-1.415c0.663-0.597,1.15-1.298,1.457-2.101
			C213.519,354.311,213.673,353.442,213.673,352.508z"/>
		<path fill="#181715" d="M255.911,377.892c0.112,0.28,0.164,0.509,0.155,0.686c-0.011,0.178-0.076,0.314-0.195,0.407
			c-0.123,0.093-0.311,0.154-0.56,0.183c-0.253,0.027-0.575,0.042-0.969,0.042c-0.39,0-0.705-0.014-0.936-0.042
			c-0.235-0.029-0.417-0.07-0.548-0.126c-0.132-0.056-0.23-0.13-0.295-0.224c-0.065-0.093-0.127-0.205-0.181-0.336l-3.474-9.666
			h-15.914l-3.335,9.61c-0.038,0.131-0.094,0.243-0.168,0.336c-0.076,0.094-0.177,0.173-0.307,0.239
			c-0.132,0.065-0.314,0.116-0.546,0.154c-0.235,0.037-0.53,0.056-0.884,0.056c-0.392,0-0.719-0.019-0.981-0.056
			c-0.26-0.038-0.452-0.103-0.575-0.196c-0.119-0.093-0.184-0.224-0.195-0.392c-0.009-0.168,0.043-0.392,0.155-0.672l12.691-34.49
			c0.056-0.149,0.139-0.276,0.251-0.378c0.112-0.103,0.257-0.183,0.434-0.239c0.179-0.056,0.394-0.098,0.647-0.127
			c0.249-0.027,0.535-0.042,0.853-0.042c0.336,0,0.629,0.015,0.882,0.042c0.253,0.029,0.466,0.07,0.644,0.127
			c0.179,0.056,0.318,0.136,0.423,0.239c0.101,0.102,0.181,0.229,0.237,0.378L255.911,377.892z M240.867,346.456h-0.027l-6.836,19.5
			h13.868L240.867,346.456z"/>
		<path fill="#181715" d="M282.14,344.355c0,0.243-0.02,0.458-0.058,0.645c-0.036,0.187-0.094,0.341-0.166,0.462
			c-0.076,0.122-0.17,0.215-0.282,0.28c-0.112,0.066-0.233,0.098-0.363,0.098h-10.815v32.641c0,0.112-0.029,0.215-0.083,0.308
			c-0.058,0.094-0.152,0.168-0.282,0.224c-0.13,0.056-0.307,0.102-0.532,0.14c-0.224,0.037-0.495,0.056-0.813,0.056
			s-0.587-0.019-0.812-0.056c-0.224-0.038-0.403-0.084-0.533-0.14c-0.13-0.056-0.224-0.13-0.278-0.224
			c-0.058-0.093-0.085-0.196-0.085-0.308V345.84h-10.815c-0.15,0-0.275-0.033-0.378-0.098c-0.103-0.065-0.193-0.158-0.266-0.28
			c-0.076-0.121-0.132-0.275-0.17-0.462c-0.036-0.186-0.054-0.401-0.054-0.645c0-0.261,0.018-0.49,0.054-0.687
			c0.038-0.195,0.094-0.359,0.17-0.49c0.072-0.13,0.163-0.229,0.266-0.295c0.103-0.065,0.228-0.098,0.378-0.098h25.048
			c0.13,0,0.251,0.033,0.363,0.098c0.112,0.066,0.206,0.164,0.282,0.295c0.072,0.131,0.13,0.295,0.166,0.49
			C282.12,343.865,282.14,344.094,282.14,344.355z"/>
		<path fill="#181715" d="M308.91,377.528c0,0.243-0.018,0.458-0.056,0.644c-0.038,0.187-0.099,0.346-0.183,0.476
			c-0.083,0.131-0.181,0.229-0.293,0.295c-0.112,0.065-0.235,0.098-0.365,0.098h-16.979c-0.336,0-0.682-0.127-1.036-0.378
			c-0.356-0.253-0.533-0.715-0.533-1.387v-32.725c0-0.672,0.177-1.134,0.533-1.387c0.354-0.251,0.7-0.378,1.036-0.378h16.726
			c0.13,0,0.253,0.033,0.365,0.098c0.112,0.066,0.206,0.164,0.28,0.295c0.074,0.131,0.13,0.295,0.168,0.49
			c0.036,0.197,0.056,0.426,0.056,0.687c0,0.243-0.02,0.458-0.056,0.645c-0.038,0.187-0.094,0.341-0.168,0.462
			c-0.074,0.122-0.168,0.215-0.28,0.28c-0.112,0.066-0.235,0.098-0.365,0.098h-14.877v12.748h12.832c0.15,0,0.28,0.032,0.392,0.098
			c0.112,0.066,0.206,0.159,0.28,0.28c0.074,0.122,0.13,0.28,0.168,0.477c0.036,0.195,0.056,0.425,0.056,0.686
			c0,0.243-0.02,0.453-0.056,0.63c-0.038,0.178-0.094,0.323-0.168,0.435c-0.074,0.112-0.168,0.196-0.28,0.252
			c-0.112,0.056-0.242,0.084-0.392,0.084h-12.832v14.457h15.13c0.13,0,0.253,0.033,0.365,0.099c0.112,0.065,0.21,0.158,0.293,0.28
			c0.083,0.121,0.145,0.28,0.183,0.475C308.892,377.038,308.91,377.267,308.91,377.528z"/>
		<path fill="#181715" d="M340.297,378.424c0,0.131-0.023,0.243-0.069,0.336c-0.047,0.094-0.137,0.173-0.268,0.239
			c-0.13,0.065-0.313,0.116-0.546,0.154c-0.235,0.037-0.528,0.056-0.882,0.056c-0.318,0-0.586-0.014-0.799-0.042
			c-0.215-0.029-0.398-0.085-0.546-0.168c-0.152-0.085-0.271-0.197-0.365-0.336c-0.094-0.141-0.177-0.323-0.253-0.547l-3.389-8.798
			c-0.392-0.99-0.812-1.923-1.26-2.802c-0.448-0.878-0.991-1.638-1.627-2.284c-0.634-0.643-1.399-1.152-2.296-1.526
			c-0.897-0.373-1.972-0.56-3.223-0.56h-3.754v16.334c0,0.112-0.029,0.215-0.083,0.308c-0.058,0.094-0.152,0.168-0.282,0.224
			c-0.13,0.056-0.304,0.102-0.517,0.14c-0.215,0.037-0.492,0.056-0.828,0.056c-0.318,0-0.587-0.019-0.812-0.056
			c-0.224-0.038-0.403-0.084-0.533-0.14c-0.13-0.056-0.224-0.13-0.278-0.224c-0.058-0.093-0.085-0.196-0.085-0.308v-33.93
			c0-0.672,0.177-1.134,0.533-1.387c0.354-0.251,0.7-0.378,1.036-0.378h6.809c0.897,0,1.638,0.023,2.227,0.07
			c0.589,0.046,1.124,0.107,1.611,0.182c1.383,0.243,2.587,0.635,3.613,1.177c1.027,0.542,1.878,1.209,2.551,2.004
			c0.672,0.794,1.173,1.69,1.498,2.69c0.327,0.999,0.492,2.078,0.492,3.236c0,1.196-0.17,2.265-0.506,3.208
			c-0.336,0.943-0.812,1.774-1.428,2.493c-0.616,0.719-1.356,1.341-2.212,1.864c-0.86,0.523-1.804,0.962-2.831,1.317
			c0.616,0.28,1.171,0.626,1.667,1.037c0.495,0.411,0.954,0.907,1.374,1.485c0.419,0.579,0.817,1.246,1.189,2.004
			c0.374,0.756,0.748,1.602,1.121,2.535l3.391,8.461c0.242,0.654,0.398,1.103,0.463,1.345
			C340.265,378.135,340.297,378.312,340.297,378.424z M334.274,352.508c0-1.55-0.347-2.862-1.038-3.936
			c-0.691-1.075-1.849-1.845-3.474-2.312c-0.542-0.149-1.132-0.257-1.764-0.322c-0.636-0.066-1.468-0.098-2.495-0.098h-4.483v13.308
			h5.211c1.401,0,2.605-0.173,3.613-0.519c1.009-0.345,1.845-0.816,2.509-1.415c0.662-0.597,1.15-1.298,1.457-2.101
			C334.119,354.311,334.274,353.442,334.274,352.508z"/>
	</g>
</g>
</svg>
